G04 #@! TF.FileFunction,Legend,Top*
%FSLAX46Y46*%
G04 Gerber Fmt 4.6, Leading zero omitted, Abs format (unit mm)*
G04 Created by KiCad (PCBNEW (2014-11-13 BZR 5275)-product) date Thu 13 Nov 2014 07:34:44 PM EST*
%MOMM*%
G01*
G04 APERTURE LIST*
%ADD10C,0.100000*%
%ADD11C,0.200000*%
%ADD12C,0.275000*%
%ADD13C,0.350000*%
%ADD14C,0.150000*%
%ADD15C,0.203200*%
G04 APERTURE END LIST*
D10*
D11*
X96561905Y-85380951D02*
X97361905Y-85190475D01*
X96790476Y-85038094D01*
X97361905Y-84885713D01*
X96561905Y-84695237D01*
X97133333Y-84428570D02*
X97133333Y-84047618D01*
X97361905Y-84504761D02*
X96561905Y-84238094D01*
X97361905Y-83971427D01*
X97361905Y-83247618D02*
X96980952Y-83514285D01*
X97361905Y-83704761D02*
X96561905Y-83704761D01*
X96561905Y-83399999D01*
X96600000Y-83323808D01*
X96638095Y-83285713D01*
X96714286Y-83247618D01*
X96828571Y-83247618D01*
X96904762Y-83285713D01*
X96942857Y-83323808D01*
X96980952Y-83399999D01*
X96980952Y-83704761D01*
X97361905Y-82904761D02*
X96561905Y-82904761D01*
X97361905Y-82447618D01*
X96561905Y-82447618D01*
X97361905Y-82066666D02*
X96561905Y-82066666D01*
X97361905Y-81685714D02*
X96561905Y-81685714D01*
X97361905Y-81228571D01*
X96561905Y-81228571D01*
X96600000Y-80428571D02*
X96561905Y-80504762D01*
X96561905Y-80619047D01*
X96600000Y-80733333D01*
X96676190Y-80809524D01*
X96752381Y-80847619D01*
X96904762Y-80885714D01*
X97019048Y-80885714D01*
X97171429Y-80847619D01*
X97247619Y-80809524D01*
X97323810Y-80733333D01*
X97361905Y-80619047D01*
X97361905Y-80542857D01*
X97323810Y-80428571D01*
X97285714Y-80390476D01*
X97019048Y-80390476D01*
X97019048Y-80542857D01*
X97285714Y-80047619D02*
X97323810Y-80009524D01*
X97361905Y-80047619D01*
X97323810Y-80085714D01*
X97285714Y-80047619D01*
X97361905Y-80047619D01*
X96866667Y-80047619D02*
X96904762Y-80009524D01*
X96942857Y-80047619D01*
X96904762Y-80085714D01*
X96866667Y-80047619D01*
X96942857Y-80047619D01*
X97285714Y-78600000D02*
X97323810Y-78638095D01*
X97361905Y-78752381D01*
X97361905Y-78828571D01*
X97323810Y-78942857D01*
X97247619Y-79019048D01*
X97171429Y-79057143D01*
X97019048Y-79095238D01*
X96904762Y-79095238D01*
X96752381Y-79057143D01*
X96676190Y-79019048D01*
X96600000Y-78942857D01*
X96561905Y-78828571D01*
X96561905Y-78752381D01*
X96600000Y-78638095D01*
X96638095Y-78600000D01*
X96561905Y-78104762D02*
X96561905Y-77952381D01*
X96600000Y-77876190D01*
X96676190Y-77800000D01*
X96828571Y-77761905D01*
X97095238Y-77761905D01*
X97247619Y-77800000D01*
X97323810Y-77876190D01*
X97361905Y-77952381D01*
X97361905Y-78104762D01*
X97323810Y-78180952D01*
X97247619Y-78257143D01*
X97095238Y-78295238D01*
X96828571Y-78295238D01*
X96676190Y-78257143D01*
X96600000Y-78180952D01*
X96561905Y-78104762D01*
X96561905Y-77533334D02*
X97361905Y-77266667D01*
X96561905Y-77000000D01*
X96942857Y-76733334D02*
X96942857Y-76466667D01*
X97361905Y-76352381D02*
X97361905Y-76733334D01*
X96561905Y-76733334D01*
X96561905Y-76352381D01*
X97361905Y-75552381D02*
X96980952Y-75819048D01*
X97361905Y-76009524D02*
X96561905Y-76009524D01*
X96561905Y-75704762D01*
X96600000Y-75628571D01*
X96638095Y-75590476D01*
X96714286Y-75552381D01*
X96828571Y-75552381D01*
X96904762Y-75590476D01*
X96942857Y-75628571D01*
X96980952Y-75704762D01*
X96980952Y-76009524D01*
X96561905Y-74714286D02*
X96561905Y-74257143D01*
X97361905Y-74485714D02*
X96561905Y-74485714D01*
X96561905Y-73838095D02*
X96561905Y-73685714D01*
X96600000Y-73609523D01*
X96676190Y-73533333D01*
X96828571Y-73495238D01*
X97095238Y-73495238D01*
X97247619Y-73533333D01*
X97323810Y-73609523D01*
X97361905Y-73685714D01*
X97361905Y-73838095D01*
X97323810Y-73914285D01*
X97247619Y-73990476D01*
X97095238Y-74028571D01*
X96828571Y-74028571D01*
X96676190Y-73990476D01*
X96600000Y-73914285D01*
X96561905Y-73838095D01*
X97361905Y-72085714D02*
X96980952Y-72352381D01*
X97361905Y-72542857D02*
X96561905Y-72542857D01*
X96561905Y-72238095D01*
X96600000Y-72161904D01*
X96638095Y-72123809D01*
X96714286Y-72085714D01*
X96828571Y-72085714D01*
X96904762Y-72123809D01*
X96942857Y-72161904D01*
X96980952Y-72238095D01*
X96980952Y-72542857D01*
X96942857Y-71742857D02*
X96942857Y-71476190D01*
X97361905Y-71361904D02*
X97361905Y-71742857D01*
X96561905Y-71742857D01*
X96561905Y-71361904D01*
X96561905Y-71133333D02*
X96561905Y-70676190D01*
X97361905Y-70904761D02*
X96561905Y-70904761D01*
X97133333Y-70447618D02*
X97133333Y-70066666D01*
X97361905Y-70523809D02*
X96561905Y-70257142D01*
X97361905Y-69990475D01*
X97361905Y-69723809D02*
X96561905Y-69723809D01*
X97361905Y-69342857D02*
X96561905Y-69342857D01*
X97361905Y-68885714D01*
X96561905Y-68885714D01*
X97361905Y-67895238D02*
X96561905Y-67895238D01*
X97133333Y-67628571D01*
X96561905Y-67361904D01*
X97361905Y-67361904D01*
X97133333Y-67019047D02*
X97133333Y-66638095D01*
X97361905Y-67095238D02*
X96561905Y-66828571D01*
X97361905Y-66561904D01*
X96600000Y-65876190D02*
X96561905Y-65952381D01*
X96561905Y-66066666D01*
X96600000Y-66180952D01*
X96676190Y-66257143D01*
X96752381Y-66295238D01*
X96904762Y-66333333D01*
X97019048Y-66333333D01*
X97171429Y-66295238D01*
X97247619Y-66257143D01*
X97323810Y-66180952D01*
X97361905Y-66066666D01*
X97361905Y-65990476D01*
X97323810Y-65876190D01*
X97285714Y-65838095D01*
X97019048Y-65838095D01*
X97019048Y-65990476D01*
X97361905Y-65495238D02*
X96561905Y-65495238D01*
X97285714Y-64657143D02*
X97323810Y-64695238D01*
X97361905Y-64809524D01*
X97361905Y-64885714D01*
X97323810Y-65000000D01*
X97247619Y-65076191D01*
X97171429Y-65114286D01*
X97019048Y-65152381D01*
X96904762Y-65152381D01*
X96752381Y-65114286D01*
X96676190Y-65076191D01*
X96600000Y-65000000D01*
X96561905Y-64885714D01*
X96561905Y-64809524D01*
X96600000Y-64695238D01*
X96638095Y-64657143D01*
D12*
X88490477Y-72107143D02*
X89328572Y-72107143D01*
X88909524Y-72678571D02*
X88909524Y-71535714D01*
X90376191Y-71178571D02*
X89852382Y-71178571D01*
X89800001Y-71892857D01*
X89852382Y-71821429D01*
X89957144Y-71750000D01*
X90219048Y-71750000D01*
X90323810Y-71821429D01*
X90376191Y-71892857D01*
X90428572Y-72035714D01*
X90428572Y-72392857D01*
X90376191Y-72535714D01*
X90323810Y-72607143D01*
X90219048Y-72678571D01*
X89957144Y-72678571D01*
X89852382Y-72607143D01*
X89800001Y-72535714D01*
X91947620Y-71178571D02*
X92052381Y-71178571D01*
X92157143Y-71250000D01*
X92209524Y-71321429D01*
X92261905Y-71464286D01*
X92314286Y-71750000D01*
X92314286Y-72107143D01*
X92261905Y-72392857D01*
X92209524Y-72535714D01*
X92157143Y-72607143D01*
X92052381Y-72678571D01*
X91947620Y-72678571D01*
X91842858Y-72607143D01*
X91790477Y-72535714D01*
X91738096Y-72392857D01*
X91685715Y-72107143D01*
X91685715Y-71750000D01*
X91738096Y-71464286D01*
X91790477Y-71321429D01*
X91842858Y-71250000D01*
X91947620Y-71178571D01*
X93623810Y-72107143D02*
X94461905Y-72107143D01*
X95509524Y-71178571D02*
X94985715Y-71178571D01*
X94933334Y-71892857D01*
X94985715Y-71821429D01*
X95090477Y-71750000D01*
X95352381Y-71750000D01*
X95457143Y-71821429D01*
X95509524Y-71892857D01*
X95561905Y-72035714D01*
X95561905Y-72392857D01*
X95509524Y-72535714D01*
X95457143Y-72607143D01*
X95352381Y-72678571D01*
X95090477Y-72678571D01*
X94985715Y-72607143D01*
X94933334Y-72535714D01*
D13*
X131340446Y-88073988D02*
X130705446Y-87438988D01*
X130705446Y-87438988D02*
X130705446Y-88708988D01*
X130705446Y-88708988D02*
X131340446Y-88073988D01*
X131340446Y-88073988D02*
X130705446Y-88073988D01*
D11*
X108200000Y-63600000D02*
X107900000Y-63600000D01*
X107900000Y-63600000D02*
X107900000Y-64800000D01*
X107900000Y-64800000D02*
X108200000Y-64800000D01*
X108200000Y-63600000D02*
X110200000Y-63600000D01*
X110200000Y-63600000D02*
X110200000Y-64800000D01*
X110200000Y-64800000D02*
X108200000Y-64800000D01*
X108200000Y-64800000D02*
X108200000Y-63600000D01*
X107250000Y-66150000D02*
X106950000Y-66150000D01*
X106950000Y-66150000D02*
X106950000Y-67350000D01*
X106950000Y-67350000D02*
X107250000Y-67350000D01*
X107250000Y-66150000D02*
X109250000Y-66150000D01*
X109250000Y-66150000D02*
X109250000Y-67350000D01*
X109250000Y-67350000D02*
X107250000Y-67350000D01*
X107250000Y-67350000D02*
X107250000Y-66150000D01*
X121500000Y-73600000D02*
X121800000Y-73600000D01*
X121800000Y-73600000D02*
X121800000Y-72400000D01*
X121800000Y-72400000D02*
X121500000Y-72400000D01*
X121500000Y-73600000D02*
X119500000Y-73600000D01*
X119500000Y-73600000D02*
X119500000Y-72400000D01*
X119500000Y-72400000D02*
X121500000Y-72400000D01*
X121500000Y-72400000D02*
X121500000Y-73600000D01*
D13*
X120029000Y-80929000D02*
X120029000Y-81071000D01*
X120029000Y-81071000D02*
X120029000Y-80929000D01*
X120971000Y-80929000D02*
X120971000Y-81071000D01*
X120971000Y-81071000D02*
X120971000Y-80929000D01*
X89460000Y-77175000D02*
X88825000Y-77810000D01*
X88825000Y-77810000D02*
X89460000Y-77810000D01*
X89460000Y-77810000D02*
X90095000Y-77810000D01*
X90095000Y-77810000D02*
X89460000Y-77175000D01*
X89460000Y-77175000D02*
X89460000Y-77810000D01*
X131770000Y-71325000D02*
X132405000Y-70690000D01*
X132405000Y-70690000D02*
X131135000Y-70690000D01*
X131135000Y-70690000D02*
X131770000Y-71325000D01*
X131770000Y-71325000D02*
X131770000Y-70690000D01*
X112821000Y-79779000D02*
X112679000Y-79779000D01*
X112679000Y-79779000D02*
X112821000Y-79779000D01*
X112821000Y-80721000D02*
X112679000Y-80721000D01*
X112679000Y-80721000D02*
X112821000Y-80721000D01*
X102146000Y-66096000D02*
X102146000Y-64904000D01*
X102146000Y-64904000D02*
X102146000Y-66096000D01*
X100854000Y-66096000D02*
X100854000Y-64904000D01*
X100854000Y-64904000D02*
X100854000Y-66096000D01*
X112821000Y-82279000D02*
X112679000Y-82279000D01*
X112679000Y-82279000D02*
X112821000Y-82279000D01*
X112821000Y-83221000D02*
X112679000Y-83221000D01*
X112679000Y-83221000D02*
X112821000Y-83221000D01*
X123396000Y-80846000D02*
X123396000Y-79654000D01*
X123396000Y-79654000D02*
X123396000Y-80846000D01*
X122104000Y-80846000D02*
X122104000Y-79654000D01*
X122104000Y-79654000D02*
X122104000Y-80846000D01*
D11*
X121400000Y-76400000D02*
X121300000Y-76300000D01*
X121300000Y-76300000D02*
X121200000Y-76400000D01*
X121200000Y-76400000D02*
X121300000Y-76500000D01*
X121300000Y-76500000D02*
X121400000Y-76400000D01*
X121500000Y-76100000D02*
X121800000Y-76100000D01*
X121800000Y-76100000D02*
X121800000Y-74900000D01*
X121800000Y-74900000D02*
X121500000Y-74900000D01*
X121500000Y-76100000D02*
X119500000Y-76100000D01*
X119500000Y-76100000D02*
X119500000Y-74900000D01*
X119500000Y-74900000D02*
X121500000Y-74900000D01*
X121500000Y-74900000D02*
X121500000Y-76100000D01*
D13*
X127992000Y-68984000D02*
X127992000Y-68476000D01*
X127992000Y-68476000D02*
X128500000Y-68476000D01*
X128500000Y-71524000D02*
X127992000Y-71524000D01*
X127992000Y-71524000D02*
X127992000Y-71016000D01*
X127992000Y-64984000D02*
X127992000Y-64476000D01*
X127992000Y-64476000D02*
X128500000Y-64476000D01*
X128500000Y-67524000D02*
X127992000Y-67524000D01*
X127992000Y-67524000D02*
X127992000Y-67016000D01*
X127992000Y-60984000D02*
X127992000Y-60476000D01*
X127992000Y-60476000D02*
X128500000Y-60476000D01*
X128500000Y-63524000D02*
X127992000Y-63524000D01*
X127992000Y-63524000D02*
X127992000Y-63016000D01*
X105508000Y-69516000D02*
X105508000Y-70024000D01*
X105508000Y-70024000D02*
X105000000Y-70024000D01*
X105000000Y-66976000D02*
X105508000Y-66976000D01*
X105508000Y-66976000D02*
X105508000Y-67484000D01*
X103984000Y-77508000D02*
X103476000Y-77508000D01*
X103476000Y-77508000D02*
X103476000Y-77000000D01*
X106524000Y-77000000D02*
X106524000Y-77508000D01*
X106524000Y-77508000D02*
X106016000Y-77508000D01*
X103984000Y-73008000D02*
X103476000Y-73008000D01*
X103476000Y-73008000D02*
X103476000Y-72500000D01*
X106524000Y-72500000D02*
X106524000Y-73008000D01*
X106524000Y-73008000D02*
X106016000Y-73008000D01*
X113583000Y-69000000D02*
X116417000Y-69000000D01*
X116417000Y-69000000D02*
X116417000Y-64000000D01*
X116417000Y-64000000D02*
X113583000Y-64000000D01*
X113583000Y-64000000D02*
X113583000Y-69000000D01*
X118348000Y-69259000D02*
X118221000Y-69386000D01*
X118221000Y-69386000D02*
X118094000Y-69259000D01*
X118094000Y-69259000D02*
X118221000Y-69132000D01*
X118221000Y-69132000D02*
X118348000Y-69259000D01*
X116290000Y-68492000D02*
X115909000Y-68873000D01*
X115909000Y-68873000D02*
X115528000Y-68492000D01*
X115528000Y-68492000D02*
X115909000Y-68111000D01*
X115909000Y-68111000D02*
X116290000Y-68492000D01*
X116417000Y-70000000D02*
X113583000Y-70000000D01*
X113583000Y-70000000D02*
X113583000Y-75000000D01*
X113583000Y-75000000D02*
X116417000Y-75000000D01*
X116417000Y-75000000D02*
X116417000Y-70000000D01*
X111652000Y-69741000D02*
X111779000Y-69614000D01*
X111779000Y-69614000D02*
X111906000Y-69741000D01*
X111906000Y-69741000D02*
X111779000Y-69868000D01*
X111779000Y-69868000D02*
X111652000Y-69741000D01*
X113710000Y-70508000D02*
X114091000Y-70127000D01*
X114091000Y-70127000D02*
X114472000Y-70508000D01*
X114472000Y-70508000D02*
X114091000Y-70889000D01*
X114091000Y-70889000D02*
X113710000Y-70508000D01*
X115546000Y-83050000D02*
X115323000Y-83050000D01*
X115323000Y-83050000D02*
X115323000Y-79950000D01*
X115323000Y-79950000D02*
X115546000Y-79950000D01*
X118454000Y-83050000D02*
X118677000Y-83050000D01*
X118677000Y-83050000D02*
X118677000Y-79950000D01*
X118677000Y-79950000D02*
X118454000Y-79950000D01*
X115292000Y-83685000D02*
X115165000Y-83558000D01*
X115165000Y-83558000D02*
X115292000Y-83431000D01*
X115292000Y-83431000D02*
X115419000Y-83558000D01*
X115419000Y-83558000D02*
X115292000Y-83685000D01*
X113796000Y-85529000D02*
X113704000Y-85529000D01*
X113704000Y-85529000D02*
X113796000Y-85529000D01*
X113796000Y-85971000D02*
X113704000Y-85971000D01*
X113704000Y-85971000D02*
X113796000Y-85971000D01*
X117954000Y-77721000D02*
X118046000Y-77721000D01*
X118046000Y-77721000D02*
X117954000Y-77721000D01*
X117954000Y-77279000D02*
X118046000Y-77279000D01*
X118046000Y-77279000D02*
X117954000Y-77279000D01*
X101046000Y-81279000D02*
X100954000Y-81279000D01*
X100954000Y-81279000D02*
X101046000Y-81279000D01*
X101046000Y-81721000D02*
X100954000Y-81721000D01*
X100954000Y-81721000D02*
X101046000Y-81721000D01*
X101046000Y-82779000D02*
X100954000Y-82779000D01*
X100954000Y-82779000D02*
X101046000Y-82779000D01*
X101046000Y-83221000D02*
X100954000Y-83221000D01*
X100954000Y-83221000D02*
X101046000Y-83221000D01*
X104529000Y-84704000D02*
X104529000Y-84796000D01*
X104529000Y-84796000D02*
X104529000Y-84704000D01*
X104971000Y-84704000D02*
X104971000Y-84796000D01*
X104971000Y-84796000D02*
X104971000Y-84704000D01*
D14*
X129233334Y-86061905D02*
X129233334Y-86633333D01*
X129195238Y-86747619D01*
X129119048Y-86823810D01*
X129004762Y-86861905D01*
X128928572Y-86861905D01*
X129538096Y-86061905D02*
X130071429Y-86061905D01*
X129728572Y-86861905D01*
X88733334Y-88061905D02*
X88733334Y-88633333D01*
X88695238Y-88747619D01*
X88619048Y-88823810D01*
X88504762Y-88861905D01*
X88428572Y-88861905D01*
X89457143Y-88061905D02*
X89304762Y-88061905D01*
X89228572Y-88100000D01*
X89190477Y-88138095D01*
X89114286Y-88252381D01*
X89076191Y-88404762D01*
X89076191Y-88709524D01*
X89114286Y-88785714D01*
X89152381Y-88823810D01*
X89228572Y-88861905D01*
X89380953Y-88861905D01*
X89457143Y-88823810D01*
X89495239Y-88785714D01*
X89533334Y-88709524D01*
X89533334Y-88519048D01*
X89495239Y-88442857D01*
X89457143Y-88404762D01*
X89380953Y-88366667D01*
X89228572Y-88366667D01*
X89152381Y-88404762D01*
X89114286Y-88442857D01*
X89076191Y-88519048D01*
X90180952Y-88861905D02*
X90180952Y-88061905D01*
X90485714Y-88061905D01*
X90561905Y-88100000D01*
X90600000Y-88138095D01*
X90638095Y-88214286D01*
X90638095Y-88328571D01*
X90600000Y-88404762D01*
X90561905Y-88442857D01*
X90485714Y-88480952D01*
X90180952Y-88480952D01*
X90980952Y-88861905D02*
X90980952Y-88061905D01*
X90980952Y-88442857D02*
X91438095Y-88442857D01*
X91438095Y-88861905D02*
X91438095Y-88061905D01*
X91780952Y-88633333D02*
X92161904Y-88633333D01*
X91704761Y-88861905D02*
X91971428Y-88061905D01*
X92238095Y-88861905D01*
X92466666Y-88823810D02*
X92580952Y-88861905D01*
X92771428Y-88861905D01*
X92847618Y-88823810D01*
X92885714Y-88785714D01*
X92923809Y-88709524D01*
X92923809Y-88633333D01*
X92885714Y-88557143D01*
X92847618Y-88519048D01*
X92771428Y-88480952D01*
X92619047Y-88442857D01*
X92542856Y-88404762D01*
X92504761Y-88366667D01*
X92466666Y-88290476D01*
X92466666Y-88214286D01*
X92504761Y-88138095D01*
X92542856Y-88100000D01*
X92619047Y-88061905D01*
X92809523Y-88061905D01*
X92923809Y-88100000D01*
X93266666Y-88442857D02*
X93533333Y-88442857D01*
X93647619Y-88861905D02*
X93266666Y-88861905D01*
X93266666Y-88061905D01*
X93647619Y-88061905D01*
X94447619Y-88861905D02*
X94180952Y-88480952D01*
X93990476Y-88861905D02*
X93990476Y-88061905D01*
X94295238Y-88061905D01*
X94371429Y-88100000D01*
X94409524Y-88138095D01*
X94447619Y-88214286D01*
X94447619Y-88328571D01*
X94409524Y-88404762D01*
X94371429Y-88442857D01*
X94295238Y-88480952D01*
X93990476Y-88480952D01*
X94790476Y-88442857D02*
X95057143Y-88442857D01*
X95171429Y-88861905D02*
X94790476Y-88861905D01*
X94790476Y-88061905D01*
X95171429Y-88061905D01*
X95780953Y-88442857D02*
X95514286Y-88442857D01*
X95514286Y-88861905D02*
X95514286Y-88061905D01*
X95895239Y-88061905D01*
X108228571Y-63561905D02*
X108228571Y-62761905D01*
X108419047Y-62761905D01*
X108533333Y-62800000D01*
X108609524Y-62876190D01*
X108647619Y-62952381D01*
X108685714Y-63104762D01*
X108685714Y-63219048D01*
X108647619Y-63371429D01*
X108609524Y-63447619D01*
X108533333Y-63523810D01*
X108419047Y-63561905D01*
X108228571Y-63561905D01*
X108952381Y-62761905D02*
X109485714Y-62761905D01*
X108952381Y-63561905D01*
X109485714Y-63561905D01*
X109752381Y-62838095D02*
X109790476Y-62800000D01*
X109866667Y-62761905D01*
X110057143Y-62761905D01*
X110133333Y-62800000D01*
X110171429Y-62838095D01*
X110209524Y-62914286D01*
X110209524Y-62990476D01*
X110171429Y-63104762D01*
X109714286Y-63561905D01*
X110209524Y-63561905D01*
X107028571Y-68361905D02*
X107028571Y-67561905D01*
X107219047Y-67561905D01*
X107333333Y-67600000D01*
X107409524Y-67676190D01*
X107447619Y-67752381D01*
X107485714Y-67904762D01*
X107485714Y-68019048D01*
X107447619Y-68171429D01*
X107409524Y-68247619D01*
X107333333Y-68323810D01*
X107219047Y-68361905D01*
X107028571Y-68361905D01*
X107752381Y-67561905D02*
X108285714Y-67561905D01*
X107752381Y-68361905D01*
X108285714Y-68361905D01*
X109009524Y-68361905D02*
X108552381Y-68361905D01*
X108780952Y-68361905D02*
X108780952Y-67561905D01*
X108704762Y-67676190D01*
X108628571Y-67752381D01*
X108552381Y-67790476D01*
X119528571Y-71111905D02*
X119528571Y-70311905D01*
X119719047Y-70311905D01*
X119833333Y-70350000D01*
X119909524Y-70426190D01*
X119947619Y-70502381D01*
X119985714Y-70654762D01*
X119985714Y-70769048D01*
X119947619Y-70921429D01*
X119909524Y-70997619D01*
X119833333Y-71073810D01*
X119719047Y-71111905D01*
X119528571Y-71111905D01*
X120252381Y-70311905D02*
X120785714Y-70311905D01*
X120252381Y-71111905D01*
X120785714Y-71111905D01*
X121433333Y-70311905D02*
X121280952Y-70311905D01*
X121204762Y-70350000D01*
X121166667Y-70388095D01*
X121090476Y-70502381D01*
X121052381Y-70654762D01*
X121052381Y-70959524D01*
X121090476Y-71035714D01*
X121128571Y-71073810D01*
X121204762Y-71111905D01*
X121357143Y-71111905D01*
X121433333Y-71073810D01*
X121471429Y-71035714D01*
X121509524Y-70959524D01*
X121509524Y-70769048D01*
X121471429Y-70692857D01*
X121433333Y-70654762D01*
X121357143Y-70616667D01*
X121204762Y-70616667D01*
X121128571Y-70654762D01*
X121090476Y-70692857D01*
X121052381Y-70769048D01*
X119985714Y-83535714D02*
X119947619Y-83573810D01*
X119833333Y-83611905D01*
X119757143Y-83611905D01*
X119642857Y-83573810D01*
X119566666Y-83497619D01*
X119528571Y-83421429D01*
X119490476Y-83269048D01*
X119490476Y-83154762D01*
X119528571Y-83002381D01*
X119566666Y-82926190D01*
X119642857Y-82850000D01*
X119757143Y-82811905D01*
X119833333Y-82811905D01*
X119947619Y-82850000D01*
X119985714Y-82888095D01*
X120747619Y-83611905D02*
X120290476Y-83611905D01*
X120519047Y-83611905D02*
X120519047Y-82811905D01*
X120442857Y-82926190D01*
X120366666Y-83002381D01*
X120290476Y-83040476D01*
X121052381Y-82888095D02*
X121090476Y-82850000D01*
X121166667Y-82811905D01*
X121357143Y-82811905D01*
X121433333Y-82850000D01*
X121471429Y-82888095D01*
X121509524Y-82964286D01*
X121509524Y-83040476D01*
X121471429Y-83154762D01*
X121014286Y-83611905D01*
X121509524Y-83611905D01*
D15*
X94166414Y-76951965D02*
X94166414Y-77666793D01*
X94118758Y-77809759D01*
X94023448Y-77905070D01*
X93880482Y-77952725D01*
X93785172Y-77952725D01*
X95167174Y-77952725D02*
X94595311Y-77952725D01*
X94881242Y-77952725D02*
X94881242Y-76951965D01*
X94785932Y-77094930D01*
X94690621Y-77190241D01*
X94595311Y-77237896D01*
X126951965Y-73833586D02*
X127666793Y-73833586D01*
X127809759Y-73881242D01*
X127905070Y-73976552D01*
X127952725Y-74119518D01*
X127952725Y-74214828D01*
X126951965Y-72880481D02*
X126951965Y-73357034D01*
X127428517Y-73404689D01*
X127380862Y-73357034D01*
X127333207Y-73261723D01*
X127333207Y-73023447D01*
X127380862Y-72928137D01*
X127428517Y-72880481D01*
X127523828Y-72832826D01*
X127762104Y-72832826D01*
X127857414Y-72880481D01*
X127905070Y-72928137D01*
X127952725Y-73023447D01*
X127952725Y-73261723D01*
X127905070Y-73357034D01*
X127857414Y-73404689D01*
D14*
X110116667Y-80285714D02*
X110078572Y-80323810D01*
X109964286Y-80361905D01*
X109888096Y-80361905D01*
X109773810Y-80323810D01*
X109697619Y-80247619D01*
X109659524Y-80171429D01*
X109621429Y-80019048D01*
X109621429Y-79904762D01*
X109659524Y-79752381D01*
X109697619Y-79676190D01*
X109773810Y-79600000D01*
X109888096Y-79561905D01*
X109964286Y-79561905D01*
X110078572Y-79600000D01*
X110116667Y-79638095D01*
X110802381Y-79561905D02*
X110650000Y-79561905D01*
X110573810Y-79600000D01*
X110535715Y-79638095D01*
X110459524Y-79752381D01*
X110421429Y-79904762D01*
X110421429Y-80209524D01*
X110459524Y-80285714D01*
X110497619Y-80323810D01*
X110573810Y-80361905D01*
X110726191Y-80361905D01*
X110802381Y-80323810D01*
X110840477Y-80285714D01*
X110878572Y-80209524D01*
X110878572Y-80019048D01*
X110840477Y-79942857D01*
X110802381Y-79904762D01*
X110726191Y-79866667D01*
X110573810Y-79866667D01*
X110497619Y-79904762D01*
X110459524Y-79942857D01*
X110421429Y-80019048D01*
X131361905Y-64014286D02*
X130980952Y-64280953D01*
X131361905Y-64471429D02*
X130561905Y-64471429D01*
X130561905Y-64166667D01*
X130600000Y-64090476D01*
X130638095Y-64052381D01*
X130714286Y-64014286D01*
X130828571Y-64014286D01*
X130904762Y-64052381D01*
X130942857Y-64090476D01*
X130980952Y-64166667D01*
X130980952Y-64471429D01*
X131361905Y-63252381D02*
X131361905Y-63709524D01*
X131361905Y-63480953D02*
X130561905Y-63480953D01*
X130676190Y-63557143D01*
X130752381Y-63633334D01*
X130790476Y-63709524D01*
X130638095Y-62947619D02*
X130600000Y-62909524D01*
X130561905Y-62833333D01*
X130561905Y-62642857D01*
X130600000Y-62566667D01*
X130638095Y-62528571D01*
X130714286Y-62490476D01*
X130790476Y-62490476D01*
X130904762Y-62528571D01*
X131361905Y-62985714D01*
X131361905Y-62490476D01*
X103285714Y-65633333D02*
X103323810Y-65671428D01*
X103361905Y-65785714D01*
X103361905Y-65861904D01*
X103323810Y-65976190D01*
X103247619Y-66052381D01*
X103171429Y-66090476D01*
X103019048Y-66128571D01*
X102904762Y-66128571D01*
X102752381Y-66090476D01*
X102676190Y-66052381D01*
X102600000Y-65976190D01*
X102561905Y-65861904D01*
X102561905Y-65785714D01*
X102600000Y-65671428D01*
X102638095Y-65633333D01*
X102638095Y-65328571D02*
X102600000Y-65290476D01*
X102561905Y-65214285D01*
X102561905Y-65023809D01*
X102600000Y-64947619D01*
X102638095Y-64909523D01*
X102714286Y-64871428D01*
X102790476Y-64871428D01*
X102904762Y-64909523D01*
X103361905Y-65366666D01*
X103361905Y-64871428D01*
X119366667Y-66785714D02*
X119328572Y-66823810D01*
X119214286Y-66861905D01*
X119138096Y-66861905D01*
X119023810Y-66823810D01*
X118947619Y-66747619D01*
X118909524Y-66671429D01*
X118871429Y-66519048D01*
X118871429Y-66404762D01*
X118909524Y-66252381D01*
X118947619Y-66176190D01*
X119023810Y-66100000D01*
X119138096Y-66061905D01*
X119214286Y-66061905D01*
X119328572Y-66100000D01*
X119366667Y-66138095D01*
X119633334Y-66061905D02*
X120128572Y-66061905D01*
X119861905Y-66366667D01*
X119976191Y-66366667D01*
X120052381Y-66404762D01*
X120090477Y-66442857D01*
X120128572Y-66519048D01*
X120128572Y-66709524D01*
X120090477Y-66785714D01*
X120052381Y-66823810D01*
X119976191Y-66861905D01*
X119747619Y-66861905D01*
X119671429Y-66823810D01*
X119633334Y-66785714D01*
X119116667Y-63785714D02*
X119078572Y-63823810D01*
X118964286Y-63861905D01*
X118888096Y-63861905D01*
X118773810Y-63823810D01*
X118697619Y-63747619D01*
X118659524Y-63671429D01*
X118621429Y-63519048D01*
X118621429Y-63404762D01*
X118659524Y-63252381D01*
X118697619Y-63176190D01*
X118773810Y-63100000D01*
X118888096Y-63061905D01*
X118964286Y-63061905D01*
X119078572Y-63100000D01*
X119116667Y-63138095D01*
X119802381Y-63328571D02*
X119802381Y-63861905D01*
X119611905Y-63023810D02*
X119421429Y-63595238D01*
X119916667Y-63595238D01*
X110116667Y-79285714D02*
X110078572Y-79323810D01*
X109964286Y-79361905D01*
X109888096Y-79361905D01*
X109773810Y-79323810D01*
X109697619Y-79247619D01*
X109659524Y-79171429D01*
X109621429Y-79019048D01*
X109621429Y-78904762D01*
X109659524Y-78752381D01*
X109697619Y-78676190D01*
X109773810Y-78600000D01*
X109888096Y-78561905D01*
X109964286Y-78561905D01*
X110078572Y-78600000D01*
X110116667Y-78638095D01*
X110840477Y-78561905D02*
X110459524Y-78561905D01*
X110421429Y-78942857D01*
X110459524Y-78904762D01*
X110535715Y-78866667D01*
X110726191Y-78866667D01*
X110802381Y-78904762D01*
X110840477Y-78942857D01*
X110878572Y-79019048D01*
X110878572Y-79209524D01*
X110840477Y-79285714D01*
X110802381Y-79323810D01*
X110726191Y-79361905D01*
X110535715Y-79361905D01*
X110459524Y-79323810D01*
X110421429Y-79285714D01*
X110116667Y-84535714D02*
X110078572Y-84573810D01*
X109964286Y-84611905D01*
X109888096Y-84611905D01*
X109773810Y-84573810D01*
X109697619Y-84497619D01*
X109659524Y-84421429D01*
X109621429Y-84269048D01*
X109621429Y-84154762D01*
X109659524Y-84002381D01*
X109697619Y-83926190D01*
X109773810Y-83850000D01*
X109888096Y-83811905D01*
X109964286Y-83811905D01*
X110078572Y-83850000D01*
X110116667Y-83888095D01*
X110383334Y-83811905D02*
X110916667Y-83811905D01*
X110573810Y-84611905D01*
X110116667Y-83535714D02*
X110078572Y-83573810D01*
X109964286Y-83611905D01*
X109888096Y-83611905D01*
X109773810Y-83573810D01*
X109697619Y-83497619D01*
X109659524Y-83421429D01*
X109621429Y-83269048D01*
X109621429Y-83154762D01*
X109659524Y-83002381D01*
X109697619Y-82926190D01*
X109773810Y-82850000D01*
X109888096Y-82811905D01*
X109964286Y-82811905D01*
X110078572Y-82850000D01*
X110116667Y-82888095D01*
X110573810Y-83154762D02*
X110497619Y-83116667D01*
X110459524Y-83078571D01*
X110421429Y-83002381D01*
X110421429Y-82964286D01*
X110459524Y-82888095D01*
X110497619Y-82850000D01*
X110573810Y-82811905D01*
X110726191Y-82811905D01*
X110802381Y-82850000D01*
X110840477Y-82888095D01*
X110878572Y-82964286D01*
X110878572Y-83002381D01*
X110840477Y-83078571D01*
X110802381Y-83116667D01*
X110726191Y-83154762D01*
X110573810Y-83154762D01*
X110497619Y-83192857D01*
X110459524Y-83230952D01*
X110421429Y-83307143D01*
X110421429Y-83459524D01*
X110459524Y-83535714D01*
X110497619Y-83573810D01*
X110573810Y-83611905D01*
X110726191Y-83611905D01*
X110802381Y-83573810D01*
X110840477Y-83535714D01*
X110878572Y-83459524D01*
X110878572Y-83307143D01*
X110840477Y-83230952D01*
X110802381Y-83192857D01*
X110726191Y-83154762D01*
X120866667Y-78535714D02*
X120828572Y-78573810D01*
X120714286Y-78611905D01*
X120638096Y-78611905D01*
X120523810Y-78573810D01*
X120447619Y-78497619D01*
X120409524Y-78421429D01*
X120371429Y-78269048D01*
X120371429Y-78154762D01*
X120409524Y-78002381D01*
X120447619Y-77926190D01*
X120523810Y-77850000D01*
X120638096Y-77811905D01*
X120714286Y-77811905D01*
X120828572Y-77850000D01*
X120866667Y-77888095D01*
X121247619Y-78611905D02*
X121400000Y-78611905D01*
X121476191Y-78573810D01*
X121514286Y-78535714D01*
X121590477Y-78421429D01*
X121628572Y-78269048D01*
X121628572Y-77964286D01*
X121590477Y-77888095D01*
X121552381Y-77850000D01*
X121476191Y-77811905D01*
X121323810Y-77811905D01*
X121247619Y-77850000D01*
X121209524Y-77888095D01*
X121171429Y-77964286D01*
X121171429Y-78154762D01*
X121209524Y-78230952D01*
X121247619Y-78269048D01*
X121323810Y-78307143D01*
X121476191Y-78307143D01*
X121552381Y-78269048D01*
X121590477Y-78230952D01*
X121628572Y-78154762D01*
X122235714Y-85035714D02*
X122197619Y-85073810D01*
X122083333Y-85111905D01*
X122007143Y-85111905D01*
X121892857Y-85073810D01*
X121816666Y-84997619D01*
X121778571Y-84921429D01*
X121740476Y-84769048D01*
X121740476Y-84654762D01*
X121778571Y-84502381D01*
X121816666Y-84426190D01*
X121892857Y-84350000D01*
X122007143Y-84311905D01*
X122083333Y-84311905D01*
X122197619Y-84350000D01*
X122235714Y-84388095D01*
X122997619Y-85111905D02*
X122540476Y-85111905D01*
X122769047Y-85111905D02*
X122769047Y-84311905D01*
X122692857Y-84426190D01*
X122616666Y-84502381D01*
X122540476Y-84540476D01*
X123492857Y-84311905D02*
X123569048Y-84311905D01*
X123645238Y-84350000D01*
X123683333Y-84388095D01*
X123721429Y-84464286D01*
X123759524Y-84616667D01*
X123759524Y-84807143D01*
X123721429Y-84959524D01*
X123683333Y-85035714D01*
X123645238Y-85073810D01*
X123569048Y-85111905D01*
X123492857Y-85111905D01*
X123416667Y-85073810D01*
X123378571Y-85035714D01*
X123340476Y-84959524D01*
X123302381Y-84807143D01*
X123302381Y-84616667D01*
X123340476Y-84464286D01*
X123378571Y-84388095D01*
X123416667Y-84350000D01*
X123492857Y-84311905D01*
X126985714Y-87785714D02*
X126947619Y-87823810D01*
X126833333Y-87861905D01*
X126757143Y-87861905D01*
X126642857Y-87823810D01*
X126566666Y-87747619D01*
X126528571Y-87671429D01*
X126490476Y-87519048D01*
X126490476Y-87404762D01*
X126528571Y-87252381D01*
X126566666Y-87176190D01*
X126642857Y-87100000D01*
X126757143Y-87061905D01*
X126833333Y-87061905D01*
X126947619Y-87100000D01*
X126985714Y-87138095D01*
X127747619Y-87861905D02*
X127290476Y-87861905D01*
X127519047Y-87861905D02*
X127519047Y-87061905D01*
X127442857Y-87176190D01*
X127366666Y-87252381D01*
X127290476Y-87290476D01*
X128509524Y-87861905D02*
X128052381Y-87861905D01*
X128280952Y-87861905D02*
X128280952Y-87061905D01*
X128204762Y-87176190D01*
X128128571Y-87252381D01*
X128052381Y-87290476D01*
X122235714Y-83535714D02*
X122197619Y-83573810D01*
X122083333Y-83611905D01*
X122007143Y-83611905D01*
X121892857Y-83573810D01*
X121816666Y-83497619D01*
X121778571Y-83421429D01*
X121740476Y-83269048D01*
X121740476Y-83154762D01*
X121778571Y-83002381D01*
X121816666Y-82926190D01*
X121892857Y-82850000D01*
X122007143Y-82811905D01*
X122083333Y-82811905D01*
X122197619Y-82850000D01*
X122235714Y-82888095D01*
X122997619Y-83611905D02*
X122540476Y-83611905D01*
X122769047Y-83611905D02*
X122769047Y-82811905D01*
X122692857Y-82926190D01*
X122616666Y-83002381D01*
X122540476Y-83040476D01*
X123264286Y-82811905D02*
X123759524Y-82811905D01*
X123492857Y-83116667D01*
X123607143Y-83116667D01*
X123683333Y-83154762D01*
X123721429Y-83192857D01*
X123759524Y-83269048D01*
X123759524Y-83459524D01*
X123721429Y-83535714D01*
X123683333Y-83573810D01*
X123607143Y-83611905D01*
X123378571Y-83611905D01*
X123302381Y-83573810D01*
X123264286Y-83535714D01*
X100985714Y-69785714D02*
X100947619Y-69823810D01*
X100833333Y-69861905D01*
X100757143Y-69861905D01*
X100642857Y-69823810D01*
X100566666Y-69747619D01*
X100528571Y-69671429D01*
X100490476Y-69519048D01*
X100490476Y-69404762D01*
X100528571Y-69252381D01*
X100566666Y-69176190D01*
X100642857Y-69100000D01*
X100757143Y-69061905D01*
X100833333Y-69061905D01*
X100947619Y-69100000D01*
X100985714Y-69138095D01*
X101747619Y-69861905D02*
X101290476Y-69861905D01*
X101519047Y-69861905D02*
X101519047Y-69061905D01*
X101442857Y-69176190D01*
X101366666Y-69252381D01*
X101290476Y-69290476D01*
X102433333Y-69061905D02*
X102280952Y-69061905D01*
X102204762Y-69100000D01*
X102166667Y-69138095D01*
X102090476Y-69252381D01*
X102052381Y-69404762D01*
X102052381Y-69709524D01*
X102090476Y-69785714D01*
X102128571Y-69823810D01*
X102204762Y-69861905D01*
X102357143Y-69861905D01*
X102433333Y-69823810D01*
X102471429Y-69785714D01*
X102509524Y-69709524D01*
X102509524Y-69519048D01*
X102471429Y-69442857D01*
X102433333Y-69404762D01*
X102357143Y-69366667D01*
X102204762Y-69366667D01*
X102128571Y-69404762D01*
X102090476Y-69442857D01*
X102052381Y-69519048D01*
X119528571Y-72111905D02*
X119528571Y-71311905D01*
X119719047Y-71311905D01*
X119833333Y-71350000D01*
X119909524Y-71426190D01*
X119947619Y-71502381D01*
X119985714Y-71654762D01*
X119985714Y-71769048D01*
X119947619Y-71921429D01*
X119909524Y-71997619D01*
X119833333Y-72073810D01*
X119719047Y-72111905D01*
X119528571Y-72111905D01*
X120252381Y-71311905D02*
X120785714Y-71311905D01*
X120252381Y-72111905D01*
X120785714Y-72111905D01*
X121471429Y-71311905D02*
X121090476Y-71311905D01*
X121052381Y-71692857D01*
X121090476Y-71654762D01*
X121166667Y-71616667D01*
X121357143Y-71616667D01*
X121433333Y-71654762D01*
X121471429Y-71692857D01*
X121509524Y-71769048D01*
X121509524Y-71959524D01*
X121471429Y-72035714D01*
X121433333Y-72073810D01*
X121357143Y-72111905D01*
X121166667Y-72111905D01*
X121090476Y-72073810D01*
X121052381Y-72035714D01*
X109733334Y-65442857D02*
X109466667Y-65442857D01*
X109466667Y-65861905D02*
X109466667Y-65061905D01*
X109847620Y-65061905D01*
X110571429Y-65861905D02*
X110114286Y-65861905D01*
X110342857Y-65861905D02*
X110342857Y-65061905D01*
X110266667Y-65176190D01*
X110190476Y-65252381D01*
X110114286Y-65290476D01*
X119483334Y-74192857D02*
X119216667Y-74192857D01*
X119216667Y-74611905D02*
X119216667Y-73811905D01*
X119597620Y-73811905D01*
X119864286Y-73888095D02*
X119902381Y-73850000D01*
X119978572Y-73811905D01*
X120169048Y-73811905D01*
X120245238Y-73850000D01*
X120283334Y-73888095D01*
X120321429Y-73964286D01*
X120321429Y-74040476D01*
X120283334Y-74154762D01*
X119826191Y-74611905D01*
X120321429Y-74611905D01*
X127438095Y-68576190D02*
X127400000Y-68652381D01*
X127323810Y-68728571D01*
X127209524Y-68842857D01*
X127171429Y-68919048D01*
X127171429Y-68995238D01*
X127361905Y-68957143D02*
X127323810Y-69033333D01*
X127247619Y-69109524D01*
X127095238Y-69147619D01*
X126828571Y-69147619D01*
X126676190Y-69109524D01*
X126600000Y-69033333D01*
X126561905Y-68957143D01*
X126561905Y-68804762D01*
X126600000Y-68728571D01*
X126676190Y-68652381D01*
X126828571Y-68614286D01*
X127095238Y-68614286D01*
X127247619Y-68652381D01*
X127323810Y-68728571D01*
X127361905Y-68804762D01*
X127361905Y-68957143D01*
X126561905Y-68347619D02*
X126561905Y-67852381D01*
X126866667Y-68119048D01*
X126866667Y-68004762D01*
X126904762Y-67928572D01*
X126942857Y-67890476D01*
X127019048Y-67852381D01*
X127209524Y-67852381D01*
X127285714Y-67890476D01*
X127323810Y-67928572D01*
X127361905Y-68004762D01*
X127361905Y-68233334D01*
X127323810Y-68309524D01*
X127285714Y-68347619D01*
X127438095Y-64576190D02*
X127400000Y-64652381D01*
X127323810Y-64728571D01*
X127209524Y-64842857D01*
X127171429Y-64919048D01*
X127171429Y-64995238D01*
X127361905Y-64957143D02*
X127323810Y-65033333D01*
X127247619Y-65109524D01*
X127095238Y-65147619D01*
X126828571Y-65147619D01*
X126676190Y-65109524D01*
X126600000Y-65033333D01*
X126561905Y-64957143D01*
X126561905Y-64804762D01*
X126600000Y-64728571D01*
X126676190Y-64652381D01*
X126828571Y-64614286D01*
X127095238Y-64614286D01*
X127247619Y-64652381D01*
X127323810Y-64728571D01*
X127361905Y-64804762D01*
X127361905Y-64957143D01*
X126828571Y-63928572D02*
X127361905Y-63928572D01*
X126523810Y-64119048D02*
X127095238Y-64309524D01*
X127095238Y-63814286D01*
X127438095Y-60576190D02*
X127400000Y-60652381D01*
X127323810Y-60728571D01*
X127209524Y-60842857D01*
X127171429Y-60919048D01*
X127171429Y-60995238D01*
X127361905Y-60957143D02*
X127323810Y-61033333D01*
X127247619Y-61109524D01*
X127095238Y-61147619D01*
X126828571Y-61147619D01*
X126676190Y-61109524D01*
X126600000Y-61033333D01*
X126561905Y-60957143D01*
X126561905Y-60804762D01*
X126600000Y-60728571D01*
X126676190Y-60652381D01*
X126828571Y-60614286D01*
X127095238Y-60614286D01*
X127247619Y-60652381D01*
X127323810Y-60728571D01*
X127361905Y-60804762D01*
X127361905Y-60957143D01*
X126561905Y-59890476D02*
X126561905Y-60271429D01*
X126942857Y-60309524D01*
X126904762Y-60271429D01*
X126866667Y-60195238D01*
X126866667Y-60004762D01*
X126904762Y-59928572D01*
X126942857Y-59890476D01*
X127019048Y-59852381D01*
X127209524Y-59852381D01*
X127285714Y-59890476D01*
X127323810Y-59928572D01*
X127361905Y-60004762D01*
X127361905Y-60195238D01*
X127323810Y-60271429D01*
X127285714Y-60309524D01*
X107673810Y-69938095D02*
X107597619Y-69900000D01*
X107521429Y-69823810D01*
X107407143Y-69709524D01*
X107330952Y-69671429D01*
X107254762Y-69671429D01*
X107292857Y-69861905D02*
X107216667Y-69823810D01*
X107140476Y-69747619D01*
X107102381Y-69595238D01*
X107102381Y-69328571D01*
X107140476Y-69176190D01*
X107216667Y-69100000D01*
X107292857Y-69061905D01*
X107445238Y-69061905D01*
X107521429Y-69100000D01*
X107597619Y-69176190D01*
X107635714Y-69328571D01*
X107635714Y-69595238D01*
X107597619Y-69747619D01*
X107521429Y-69823810D01*
X107445238Y-69861905D01*
X107292857Y-69861905D01*
X108321428Y-69061905D02*
X108169047Y-69061905D01*
X108092857Y-69100000D01*
X108054762Y-69138095D01*
X107978571Y-69252381D01*
X107940476Y-69404762D01*
X107940476Y-69709524D01*
X107978571Y-69785714D01*
X108016666Y-69823810D01*
X108092857Y-69861905D01*
X108245238Y-69861905D01*
X108321428Y-69823810D01*
X108359524Y-69785714D01*
X108397619Y-69709524D01*
X108397619Y-69519048D01*
X108359524Y-69442857D01*
X108321428Y-69404762D01*
X108245238Y-69366667D01*
X108092857Y-69366667D01*
X108016666Y-69404762D01*
X107978571Y-69442857D01*
X107940476Y-69519048D01*
X103423810Y-74938095D02*
X103347619Y-74900000D01*
X103271429Y-74823810D01*
X103157143Y-74709524D01*
X103080952Y-74671429D01*
X103004762Y-74671429D01*
X103042857Y-74861905D02*
X102966667Y-74823810D01*
X102890476Y-74747619D01*
X102852381Y-74595238D01*
X102852381Y-74328571D01*
X102890476Y-74176190D01*
X102966667Y-74100000D01*
X103042857Y-74061905D01*
X103195238Y-74061905D01*
X103271429Y-74100000D01*
X103347619Y-74176190D01*
X103385714Y-74328571D01*
X103385714Y-74595238D01*
X103347619Y-74747619D01*
X103271429Y-74823810D01*
X103195238Y-74861905D01*
X103042857Y-74861905D01*
X103652381Y-74061905D02*
X104185714Y-74061905D01*
X103842857Y-74861905D01*
X107673810Y-70938095D02*
X107597619Y-70900000D01*
X107521429Y-70823810D01*
X107407143Y-70709524D01*
X107330952Y-70671429D01*
X107254762Y-70671429D01*
X107292857Y-70861905D02*
X107216667Y-70823810D01*
X107140476Y-70747619D01*
X107102381Y-70595238D01*
X107102381Y-70328571D01*
X107140476Y-70176190D01*
X107216667Y-70100000D01*
X107292857Y-70061905D01*
X107445238Y-70061905D01*
X107521429Y-70100000D01*
X107597619Y-70176190D01*
X107635714Y-70328571D01*
X107635714Y-70595238D01*
X107597619Y-70747619D01*
X107521429Y-70823810D01*
X107445238Y-70861905D01*
X107292857Y-70861905D01*
X108092857Y-70404762D02*
X108016666Y-70366667D01*
X107978571Y-70328571D01*
X107940476Y-70252381D01*
X107940476Y-70214286D01*
X107978571Y-70138095D01*
X108016666Y-70100000D01*
X108092857Y-70061905D01*
X108245238Y-70061905D01*
X108321428Y-70100000D01*
X108359524Y-70138095D01*
X108397619Y-70214286D01*
X108397619Y-70252381D01*
X108359524Y-70328571D01*
X108321428Y-70366667D01*
X108245238Y-70404762D01*
X108092857Y-70404762D01*
X108016666Y-70442857D01*
X107978571Y-70480952D01*
X107940476Y-70557143D01*
X107940476Y-70709524D01*
X107978571Y-70785714D01*
X108016666Y-70823810D01*
X108092857Y-70861905D01*
X108245238Y-70861905D01*
X108321428Y-70823810D01*
X108359524Y-70785714D01*
X108397619Y-70709524D01*
X108397619Y-70557143D01*
X108359524Y-70480952D01*
X108321428Y-70442857D01*
X108245238Y-70404762D01*
X105161625Y-63600186D02*
X104703688Y-63519374D01*
X104838376Y-63923435D02*
X104272690Y-63357750D01*
X104488190Y-63142250D01*
X104569002Y-63115312D01*
X104622877Y-63115312D01*
X104703689Y-63142250D01*
X104784501Y-63223062D01*
X104811439Y-63303874D01*
X104811439Y-63357749D01*
X104784501Y-63438561D01*
X104569001Y-63654061D01*
X105700373Y-63061438D02*
X105377124Y-63384687D01*
X105538748Y-63223063D02*
X104973063Y-62657377D01*
X105000000Y-62792064D01*
X105000000Y-62899814D01*
X104973063Y-62980626D01*
X104161625Y-64600186D02*
X103703688Y-64519374D01*
X103838376Y-64923435D02*
X103272690Y-64357750D01*
X103488190Y-64142250D01*
X103569002Y-64115312D01*
X103622877Y-64115312D01*
X103703689Y-64142250D01*
X103784501Y-64223062D01*
X103811439Y-64303874D01*
X103811439Y-64357749D01*
X103784501Y-64438561D01*
X103569001Y-64654061D01*
X103865313Y-63872876D02*
X103865313Y-63819001D01*
X103892251Y-63738189D01*
X104026938Y-63603502D01*
X104107750Y-63576565D01*
X104161625Y-63576564D01*
X104242437Y-63603502D01*
X104296312Y-63657377D01*
X104350187Y-63765126D01*
X104350187Y-64411624D01*
X104700373Y-64061438D01*
X116616667Y-86111905D02*
X116350000Y-85730952D01*
X116159524Y-86111905D02*
X116159524Y-85311905D01*
X116464286Y-85311905D01*
X116540477Y-85350000D01*
X116578572Y-85388095D01*
X116616667Y-85464286D01*
X116616667Y-85578571D01*
X116578572Y-85654762D01*
X116540477Y-85692857D01*
X116464286Y-85730952D01*
X116159524Y-85730952D01*
X117340477Y-85311905D02*
X116959524Y-85311905D01*
X116921429Y-85692857D01*
X116959524Y-85654762D01*
X117035715Y-85616667D01*
X117226191Y-85616667D01*
X117302381Y-85654762D01*
X117340477Y-85692857D01*
X117378572Y-85769048D01*
X117378572Y-85959524D01*
X117340477Y-86035714D01*
X117302381Y-86073810D01*
X117226191Y-86111905D01*
X117035715Y-86111905D01*
X116959524Y-86073810D01*
X116921429Y-86035714D01*
X129366667Y-87861905D02*
X129100000Y-87480952D01*
X128909524Y-87861905D02*
X128909524Y-87061905D01*
X129214286Y-87061905D01*
X129290477Y-87100000D01*
X129328572Y-87138095D01*
X129366667Y-87214286D01*
X129366667Y-87328571D01*
X129328572Y-87404762D01*
X129290477Y-87442857D01*
X129214286Y-87480952D01*
X128909524Y-87480952D01*
X130052381Y-87061905D02*
X129900000Y-87061905D01*
X129823810Y-87100000D01*
X129785715Y-87138095D01*
X129709524Y-87252381D01*
X129671429Y-87404762D01*
X129671429Y-87709524D01*
X129709524Y-87785714D01*
X129747619Y-87823810D01*
X129823810Y-87861905D01*
X129976191Y-87861905D01*
X130052381Y-87823810D01*
X130090477Y-87785714D01*
X130128572Y-87709524D01*
X130128572Y-87519048D01*
X130090477Y-87442857D01*
X130052381Y-87404762D01*
X129976191Y-87366667D01*
X129823810Y-87366667D01*
X129747619Y-87404762D01*
X129709524Y-87442857D01*
X129671429Y-87519048D01*
X122866667Y-70861905D02*
X122600000Y-70480952D01*
X122409524Y-70861905D02*
X122409524Y-70061905D01*
X122714286Y-70061905D01*
X122790477Y-70100000D01*
X122828572Y-70138095D01*
X122866667Y-70214286D01*
X122866667Y-70328571D01*
X122828572Y-70404762D01*
X122790477Y-70442857D01*
X122714286Y-70480952D01*
X122409524Y-70480952D01*
X123133334Y-70061905D02*
X123666667Y-70061905D01*
X123323810Y-70861905D01*
X122866667Y-71861905D02*
X122600000Y-71480952D01*
X122409524Y-71861905D02*
X122409524Y-71061905D01*
X122714286Y-71061905D01*
X122790477Y-71100000D01*
X122828572Y-71138095D01*
X122866667Y-71214286D01*
X122866667Y-71328571D01*
X122828572Y-71404762D01*
X122790477Y-71442857D01*
X122714286Y-71480952D01*
X122409524Y-71480952D01*
X123323810Y-71404762D02*
X123247619Y-71366667D01*
X123209524Y-71328571D01*
X123171429Y-71252381D01*
X123171429Y-71214286D01*
X123209524Y-71138095D01*
X123247619Y-71100000D01*
X123323810Y-71061905D01*
X123476191Y-71061905D01*
X123552381Y-71100000D01*
X123590477Y-71138095D01*
X123628572Y-71214286D01*
X123628572Y-71252381D01*
X123590477Y-71328571D01*
X123552381Y-71366667D01*
X123476191Y-71404762D01*
X123323810Y-71404762D01*
X123247619Y-71442857D01*
X123209524Y-71480952D01*
X123171429Y-71557143D01*
X123171429Y-71709524D01*
X123209524Y-71785714D01*
X123247619Y-71823810D01*
X123323810Y-71861905D01*
X123476191Y-71861905D01*
X123552381Y-71823810D01*
X123590477Y-71785714D01*
X123628572Y-71709524D01*
X123628572Y-71557143D01*
X123590477Y-71480952D01*
X123552381Y-71442857D01*
X123476191Y-71404762D01*
X130985714Y-68361905D02*
X130719047Y-67980952D01*
X130528571Y-68361905D02*
X130528571Y-67561905D01*
X130833333Y-67561905D01*
X130909524Y-67600000D01*
X130947619Y-67638095D01*
X130985714Y-67714286D01*
X130985714Y-67828571D01*
X130947619Y-67904762D01*
X130909524Y-67942857D01*
X130833333Y-67980952D01*
X130528571Y-67980952D01*
X131747619Y-68361905D02*
X131290476Y-68361905D01*
X131519047Y-68361905D02*
X131519047Y-67561905D01*
X131442857Y-67676190D01*
X131366666Y-67752381D01*
X131290476Y-67790476D01*
X132509524Y-68361905D02*
X132052381Y-68361905D01*
X132280952Y-68361905D02*
X132280952Y-67561905D01*
X132204762Y-67676190D01*
X132128571Y-67752381D01*
X132052381Y-67790476D01*
X121111905Y-69514286D02*
X120730952Y-69780953D01*
X121111905Y-69971429D02*
X120311905Y-69971429D01*
X120311905Y-69666667D01*
X120350000Y-69590476D01*
X120388095Y-69552381D01*
X120464286Y-69514286D01*
X120578571Y-69514286D01*
X120654762Y-69552381D01*
X120692857Y-69590476D01*
X120730952Y-69666667D01*
X120730952Y-69971429D01*
X121111905Y-68752381D02*
X121111905Y-69209524D01*
X121111905Y-68980953D02*
X120311905Y-68980953D01*
X120426190Y-69057143D01*
X120502381Y-69133334D01*
X120540476Y-69209524D01*
X120311905Y-68485714D02*
X120311905Y-67990476D01*
X120616667Y-68257143D01*
X120616667Y-68142857D01*
X120654762Y-68066667D01*
X120692857Y-68028571D01*
X120769048Y-67990476D01*
X120959524Y-67990476D01*
X121035714Y-68028571D01*
X121073810Y-68066667D01*
X121111905Y-68142857D01*
X121111905Y-68371429D01*
X121073810Y-68447619D01*
X121035714Y-68485714D01*
X121111905Y-64514286D02*
X120730952Y-64780953D01*
X121111905Y-64971429D02*
X120311905Y-64971429D01*
X120311905Y-64666667D01*
X120350000Y-64590476D01*
X120388095Y-64552381D01*
X120464286Y-64514286D01*
X120578571Y-64514286D01*
X120654762Y-64552381D01*
X120692857Y-64590476D01*
X120730952Y-64666667D01*
X120730952Y-64971429D01*
X121111905Y-63752381D02*
X121111905Y-64209524D01*
X121111905Y-63980953D02*
X120311905Y-63980953D01*
X120426190Y-64057143D01*
X120502381Y-64133334D01*
X120540476Y-64209524D01*
X120578571Y-63066667D02*
X121111905Y-63066667D01*
X120273810Y-63257143D02*
X120845238Y-63447619D01*
X120845238Y-62952381D01*
X122111905Y-69514286D02*
X121730952Y-69780953D01*
X122111905Y-69971429D02*
X121311905Y-69971429D01*
X121311905Y-69666667D01*
X121350000Y-69590476D01*
X121388095Y-69552381D01*
X121464286Y-69514286D01*
X121578571Y-69514286D01*
X121654762Y-69552381D01*
X121692857Y-69590476D01*
X121730952Y-69666667D01*
X121730952Y-69971429D01*
X122111905Y-68752381D02*
X122111905Y-69209524D01*
X122111905Y-68980953D02*
X121311905Y-68980953D01*
X121426190Y-69057143D01*
X121502381Y-69133334D01*
X121540476Y-69209524D01*
X121311905Y-68028571D02*
X121311905Y-68409524D01*
X121692857Y-68447619D01*
X121654762Y-68409524D01*
X121616667Y-68333333D01*
X121616667Y-68142857D01*
X121654762Y-68066667D01*
X121692857Y-68028571D01*
X121769048Y-67990476D01*
X121959524Y-67990476D01*
X122035714Y-68028571D01*
X122073810Y-68066667D01*
X122111905Y-68142857D01*
X122111905Y-68333333D01*
X122073810Y-68409524D01*
X122035714Y-68447619D01*
X122111905Y-64514286D02*
X121730952Y-64780953D01*
X122111905Y-64971429D02*
X121311905Y-64971429D01*
X121311905Y-64666667D01*
X121350000Y-64590476D01*
X121388095Y-64552381D01*
X121464286Y-64514286D01*
X121578571Y-64514286D01*
X121654762Y-64552381D01*
X121692857Y-64590476D01*
X121730952Y-64666667D01*
X121730952Y-64971429D01*
X122111905Y-63752381D02*
X122111905Y-64209524D01*
X122111905Y-63980953D02*
X121311905Y-63980953D01*
X121426190Y-64057143D01*
X121502381Y-64133334D01*
X121540476Y-64209524D01*
X121311905Y-63066667D02*
X121311905Y-63219048D01*
X121350000Y-63295238D01*
X121388095Y-63333333D01*
X121502381Y-63409524D01*
X121654762Y-63447619D01*
X121959524Y-63447619D01*
X122035714Y-63409524D01*
X122073810Y-63371429D01*
X122111905Y-63295238D01*
X122111905Y-63142857D01*
X122073810Y-63066667D01*
X122035714Y-63028571D01*
X121959524Y-62990476D01*
X121769048Y-62990476D01*
X121692857Y-63028571D01*
X121654762Y-63066667D01*
X121616667Y-63142857D01*
X121616667Y-63295238D01*
X121654762Y-63371429D01*
X121692857Y-63409524D01*
X121769048Y-63447619D01*
X107111905Y-82014286D02*
X106730952Y-82280953D01*
X107111905Y-82471429D02*
X106311905Y-82471429D01*
X106311905Y-82166667D01*
X106350000Y-82090476D01*
X106388095Y-82052381D01*
X106464286Y-82014286D01*
X106578571Y-82014286D01*
X106654762Y-82052381D01*
X106692857Y-82090476D01*
X106730952Y-82166667D01*
X106730952Y-82471429D01*
X107111905Y-81252381D02*
X107111905Y-81709524D01*
X107111905Y-81480953D02*
X106311905Y-81480953D01*
X106426190Y-81557143D01*
X106502381Y-81633334D01*
X106540476Y-81709524D01*
X106311905Y-80985714D02*
X106311905Y-80452381D01*
X107111905Y-80795238D01*
X108111905Y-82014286D02*
X107730952Y-82280953D01*
X108111905Y-82471429D02*
X107311905Y-82471429D01*
X107311905Y-82166667D01*
X107350000Y-82090476D01*
X107388095Y-82052381D01*
X107464286Y-82014286D01*
X107578571Y-82014286D01*
X107654762Y-82052381D01*
X107692857Y-82090476D01*
X107730952Y-82166667D01*
X107730952Y-82471429D01*
X108111905Y-81252381D02*
X108111905Y-81709524D01*
X108111905Y-81480953D02*
X107311905Y-81480953D01*
X107426190Y-81557143D01*
X107502381Y-81633334D01*
X107540476Y-81709524D01*
X107654762Y-80795238D02*
X107616667Y-80871429D01*
X107578571Y-80909524D01*
X107502381Y-80947619D01*
X107464286Y-80947619D01*
X107388095Y-80909524D01*
X107350000Y-80871429D01*
X107311905Y-80795238D01*
X107311905Y-80642857D01*
X107350000Y-80566667D01*
X107388095Y-80528571D01*
X107464286Y-80490476D01*
X107502381Y-80490476D01*
X107578571Y-80528571D01*
X107616667Y-80566667D01*
X107654762Y-80642857D01*
X107654762Y-80795238D01*
X107692857Y-80871429D01*
X107730952Y-80909524D01*
X107807143Y-80947619D01*
X107959524Y-80947619D01*
X108035714Y-80909524D01*
X108073810Y-80871429D01*
X108111905Y-80795238D01*
X108111905Y-80642857D01*
X108073810Y-80566667D01*
X108035714Y-80528571D01*
X107959524Y-80490476D01*
X107807143Y-80490476D01*
X107730952Y-80528571D01*
X107692857Y-80566667D01*
X107654762Y-80642857D01*
X120235714Y-86111905D02*
X119969047Y-85730952D01*
X119778571Y-86111905D02*
X119778571Y-85311905D01*
X120083333Y-85311905D01*
X120159524Y-85350000D01*
X120197619Y-85388095D01*
X120235714Y-85464286D01*
X120235714Y-85578571D01*
X120197619Y-85654762D01*
X120159524Y-85692857D01*
X120083333Y-85730952D01*
X119778571Y-85730952D01*
X120997619Y-86111905D02*
X120540476Y-86111905D01*
X120769047Y-86111905D02*
X120769047Y-85311905D01*
X120692857Y-85426190D01*
X120616666Y-85502381D01*
X120540476Y-85540476D01*
X121378571Y-86111905D02*
X121530952Y-86111905D01*
X121607143Y-86073810D01*
X121645238Y-86035714D01*
X121721429Y-85921429D01*
X121759524Y-85769048D01*
X121759524Y-85464286D01*
X121721429Y-85388095D01*
X121683333Y-85350000D01*
X121607143Y-85311905D01*
X121454762Y-85311905D01*
X121378571Y-85350000D01*
X121340476Y-85388095D01*
X121302381Y-85464286D01*
X121302381Y-85654762D01*
X121340476Y-85730952D01*
X121378571Y-85769048D01*
X121454762Y-85807143D01*
X121607143Y-85807143D01*
X121683333Y-85769048D01*
X121721429Y-85730952D01*
X121759524Y-85654762D01*
X108111905Y-73014286D02*
X107730952Y-73280953D01*
X108111905Y-73471429D02*
X107311905Y-73471429D01*
X107311905Y-73166667D01*
X107350000Y-73090476D01*
X107388095Y-73052381D01*
X107464286Y-73014286D01*
X107578571Y-73014286D01*
X107654762Y-73052381D01*
X107692857Y-73090476D01*
X107730952Y-73166667D01*
X107730952Y-73471429D01*
X107388095Y-72709524D02*
X107350000Y-72671429D01*
X107311905Y-72595238D01*
X107311905Y-72404762D01*
X107350000Y-72328572D01*
X107388095Y-72290476D01*
X107464286Y-72252381D01*
X107540476Y-72252381D01*
X107654762Y-72290476D01*
X108111905Y-72747619D01*
X108111905Y-72252381D01*
X107311905Y-71757143D02*
X107311905Y-71680952D01*
X107350000Y-71604762D01*
X107388095Y-71566667D01*
X107464286Y-71528571D01*
X107616667Y-71490476D01*
X107807143Y-71490476D01*
X107959524Y-71528571D01*
X108035714Y-71566667D01*
X108073810Y-71604762D01*
X108111905Y-71680952D01*
X108111905Y-71757143D01*
X108073810Y-71833333D01*
X108035714Y-71871429D01*
X107959524Y-71909524D01*
X107807143Y-71947619D01*
X107616667Y-71947619D01*
X107464286Y-71909524D01*
X107388095Y-71871429D01*
X107350000Y-71833333D01*
X107311905Y-71757143D01*
X109361905Y-73014286D02*
X108980952Y-73280953D01*
X109361905Y-73471429D02*
X108561905Y-73471429D01*
X108561905Y-73166667D01*
X108600000Y-73090476D01*
X108638095Y-73052381D01*
X108714286Y-73014286D01*
X108828571Y-73014286D01*
X108904762Y-73052381D01*
X108942857Y-73090476D01*
X108980952Y-73166667D01*
X108980952Y-73471429D01*
X108638095Y-72709524D02*
X108600000Y-72671429D01*
X108561905Y-72595238D01*
X108561905Y-72404762D01*
X108600000Y-72328572D01*
X108638095Y-72290476D01*
X108714286Y-72252381D01*
X108790476Y-72252381D01*
X108904762Y-72290476D01*
X109361905Y-72747619D01*
X109361905Y-72252381D01*
X109361905Y-71490476D02*
X109361905Y-71947619D01*
X109361905Y-71719048D02*
X108561905Y-71719048D01*
X108676190Y-71795238D01*
X108752381Y-71871429D01*
X108790476Y-71947619D01*
X108111905Y-79514286D02*
X107730952Y-79780953D01*
X108111905Y-79971429D02*
X107311905Y-79971429D01*
X107311905Y-79666667D01*
X107350000Y-79590476D01*
X107388095Y-79552381D01*
X107464286Y-79514286D01*
X107578571Y-79514286D01*
X107654762Y-79552381D01*
X107692857Y-79590476D01*
X107730952Y-79666667D01*
X107730952Y-79971429D01*
X107388095Y-79209524D02*
X107350000Y-79171429D01*
X107311905Y-79095238D01*
X107311905Y-78904762D01*
X107350000Y-78828572D01*
X107388095Y-78790476D01*
X107464286Y-78752381D01*
X107540476Y-78752381D01*
X107654762Y-78790476D01*
X108111905Y-79247619D01*
X108111905Y-78752381D01*
X107388095Y-78447619D02*
X107350000Y-78409524D01*
X107311905Y-78333333D01*
X107311905Y-78142857D01*
X107350000Y-78066667D01*
X107388095Y-78028571D01*
X107464286Y-77990476D01*
X107540476Y-77990476D01*
X107654762Y-78028571D01*
X108111905Y-78485714D01*
X108111905Y-77990476D01*
X100985714Y-70861905D02*
X100719047Y-70480952D01*
X100528571Y-70861905D02*
X100528571Y-70061905D01*
X100833333Y-70061905D01*
X100909524Y-70100000D01*
X100947619Y-70138095D01*
X100985714Y-70214286D01*
X100985714Y-70328571D01*
X100947619Y-70404762D01*
X100909524Y-70442857D01*
X100833333Y-70480952D01*
X100528571Y-70480952D01*
X101290476Y-70138095D02*
X101328571Y-70100000D01*
X101404762Y-70061905D01*
X101595238Y-70061905D01*
X101671428Y-70100000D01*
X101709524Y-70138095D01*
X101747619Y-70214286D01*
X101747619Y-70290476D01*
X101709524Y-70404762D01*
X101252381Y-70861905D01*
X101747619Y-70861905D01*
X102014286Y-70061905D02*
X102509524Y-70061905D01*
X102242857Y-70366667D01*
X102357143Y-70366667D01*
X102433333Y-70404762D01*
X102471429Y-70442857D01*
X102509524Y-70519048D01*
X102509524Y-70709524D01*
X102471429Y-70785714D01*
X102433333Y-70823810D01*
X102357143Y-70861905D01*
X102128571Y-70861905D01*
X102052381Y-70823810D01*
X102014286Y-70785714D01*
X109111905Y-79514286D02*
X108730952Y-79780953D01*
X109111905Y-79971429D02*
X108311905Y-79971429D01*
X108311905Y-79666667D01*
X108350000Y-79590476D01*
X108388095Y-79552381D01*
X108464286Y-79514286D01*
X108578571Y-79514286D01*
X108654762Y-79552381D01*
X108692857Y-79590476D01*
X108730952Y-79666667D01*
X108730952Y-79971429D01*
X108388095Y-79209524D02*
X108350000Y-79171429D01*
X108311905Y-79095238D01*
X108311905Y-78904762D01*
X108350000Y-78828572D01*
X108388095Y-78790476D01*
X108464286Y-78752381D01*
X108540476Y-78752381D01*
X108654762Y-78790476D01*
X109111905Y-79247619D01*
X109111905Y-78752381D01*
X108578571Y-78066667D02*
X109111905Y-78066667D01*
X108273810Y-78257143D02*
X108845238Y-78447619D01*
X108845238Y-77952381D01*
X100985714Y-68861905D02*
X100719047Y-68480952D01*
X100528571Y-68861905D02*
X100528571Y-68061905D01*
X100833333Y-68061905D01*
X100909524Y-68100000D01*
X100947619Y-68138095D01*
X100985714Y-68214286D01*
X100985714Y-68328571D01*
X100947619Y-68404762D01*
X100909524Y-68442857D01*
X100833333Y-68480952D01*
X100528571Y-68480952D01*
X101290476Y-68138095D02*
X101328571Y-68100000D01*
X101404762Y-68061905D01*
X101595238Y-68061905D01*
X101671428Y-68100000D01*
X101709524Y-68138095D01*
X101747619Y-68214286D01*
X101747619Y-68290476D01*
X101709524Y-68404762D01*
X101252381Y-68861905D01*
X101747619Y-68861905D01*
X102471429Y-68061905D02*
X102090476Y-68061905D01*
X102052381Y-68442857D01*
X102090476Y-68404762D01*
X102166667Y-68366667D01*
X102357143Y-68366667D01*
X102433333Y-68404762D01*
X102471429Y-68442857D01*
X102509524Y-68519048D01*
X102509524Y-68709524D01*
X102471429Y-68785714D01*
X102433333Y-68823810D01*
X102357143Y-68861905D01*
X102166667Y-68861905D01*
X102090476Y-68823810D01*
X102052381Y-68785714D01*
X101361905Y-76264286D02*
X100980952Y-76530953D01*
X101361905Y-76721429D02*
X100561905Y-76721429D01*
X100561905Y-76416667D01*
X100600000Y-76340476D01*
X100638095Y-76302381D01*
X100714286Y-76264286D01*
X100828571Y-76264286D01*
X100904762Y-76302381D01*
X100942857Y-76340476D01*
X100980952Y-76416667D01*
X100980952Y-76721429D01*
X100638095Y-75959524D02*
X100600000Y-75921429D01*
X100561905Y-75845238D01*
X100561905Y-75654762D01*
X100600000Y-75578572D01*
X100638095Y-75540476D01*
X100714286Y-75502381D01*
X100790476Y-75502381D01*
X100904762Y-75540476D01*
X101361905Y-75997619D01*
X101361905Y-75502381D01*
X100561905Y-74816667D02*
X100561905Y-74969048D01*
X100600000Y-75045238D01*
X100638095Y-75083333D01*
X100752381Y-75159524D01*
X100904762Y-75197619D01*
X101209524Y-75197619D01*
X101285714Y-75159524D01*
X101323810Y-75121429D01*
X101361905Y-75045238D01*
X101361905Y-74892857D01*
X101323810Y-74816667D01*
X101285714Y-74778571D01*
X101209524Y-74740476D01*
X101019048Y-74740476D01*
X100942857Y-74778571D01*
X100904762Y-74816667D01*
X100866667Y-74892857D01*
X100866667Y-75045238D01*
X100904762Y-75121429D01*
X100942857Y-75159524D01*
X101019048Y-75197619D01*
X102985714Y-80861905D02*
X102719047Y-80480952D01*
X102528571Y-80861905D02*
X102528571Y-80061905D01*
X102833333Y-80061905D01*
X102909524Y-80100000D01*
X102947619Y-80138095D01*
X102985714Y-80214286D01*
X102985714Y-80328571D01*
X102947619Y-80404762D01*
X102909524Y-80442857D01*
X102833333Y-80480952D01*
X102528571Y-80480952D01*
X103290476Y-80138095D02*
X103328571Y-80100000D01*
X103404762Y-80061905D01*
X103595238Y-80061905D01*
X103671428Y-80100000D01*
X103709524Y-80138095D01*
X103747619Y-80214286D01*
X103747619Y-80290476D01*
X103709524Y-80404762D01*
X103252381Y-80861905D01*
X103747619Y-80861905D01*
X104014286Y-80061905D02*
X104547619Y-80061905D01*
X104204762Y-80861905D01*
X102861905Y-76264286D02*
X102480952Y-76530953D01*
X102861905Y-76721429D02*
X102061905Y-76721429D01*
X102061905Y-76416667D01*
X102100000Y-76340476D01*
X102138095Y-76302381D01*
X102214286Y-76264286D01*
X102328571Y-76264286D01*
X102404762Y-76302381D01*
X102442857Y-76340476D01*
X102480952Y-76416667D01*
X102480952Y-76721429D01*
X102138095Y-75959524D02*
X102100000Y-75921429D01*
X102061905Y-75845238D01*
X102061905Y-75654762D01*
X102100000Y-75578572D01*
X102138095Y-75540476D01*
X102214286Y-75502381D01*
X102290476Y-75502381D01*
X102404762Y-75540476D01*
X102861905Y-75997619D01*
X102861905Y-75502381D01*
X102404762Y-75045238D02*
X102366667Y-75121429D01*
X102328571Y-75159524D01*
X102252381Y-75197619D01*
X102214286Y-75197619D01*
X102138095Y-75159524D01*
X102100000Y-75121429D01*
X102061905Y-75045238D01*
X102061905Y-74892857D01*
X102100000Y-74816667D01*
X102138095Y-74778571D01*
X102214286Y-74740476D01*
X102252381Y-74740476D01*
X102328571Y-74778571D01*
X102366667Y-74816667D01*
X102404762Y-74892857D01*
X102404762Y-75045238D01*
X102442857Y-75121429D01*
X102480952Y-75159524D01*
X102557143Y-75197619D01*
X102709524Y-75197619D01*
X102785714Y-75159524D01*
X102823810Y-75121429D01*
X102861905Y-75045238D01*
X102861905Y-74892857D01*
X102823810Y-74816667D01*
X102785714Y-74778571D01*
X102709524Y-74740476D01*
X102557143Y-74740476D01*
X102480952Y-74778571D01*
X102442857Y-74816667D01*
X102404762Y-74892857D01*
X111890476Y-63061905D02*
X111890476Y-63709524D01*
X111928571Y-63785714D01*
X111966667Y-63823810D01*
X112042857Y-63861905D01*
X112195238Y-63861905D01*
X112271429Y-63823810D01*
X112309524Y-63785714D01*
X112347619Y-63709524D01*
X112347619Y-63061905D01*
X113147619Y-63861905D02*
X112690476Y-63861905D01*
X112919047Y-63861905D02*
X112919047Y-63061905D01*
X112842857Y-63176190D01*
X112766666Y-63252381D01*
X112690476Y-63290476D01*
X109890476Y-69561905D02*
X109890476Y-70209524D01*
X109928571Y-70285714D01*
X109966667Y-70323810D01*
X110042857Y-70361905D01*
X110195238Y-70361905D01*
X110271429Y-70323810D01*
X110309524Y-70285714D01*
X110347619Y-70209524D01*
X110347619Y-69561905D01*
X110690476Y-69638095D02*
X110728571Y-69600000D01*
X110804762Y-69561905D01*
X110995238Y-69561905D01*
X111071428Y-69600000D01*
X111109524Y-69638095D01*
X111147619Y-69714286D01*
X111147619Y-69790476D01*
X111109524Y-69904762D01*
X110652381Y-70361905D01*
X111147619Y-70361905D01*
X114140476Y-84061905D02*
X114140476Y-84709524D01*
X114178571Y-84785714D01*
X114216667Y-84823810D01*
X114292857Y-84861905D01*
X114445238Y-84861905D01*
X114521429Y-84823810D01*
X114559524Y-84785714D01*
X114597619Y-84709524D01*
X114597619Y-84061905D01*
X114902381Y-84061905D02*
X115397619Y-84061905D01*
X115130952Y-84366667D01*
X115245238Y-84366667D01*
X115321428Y-84404762D01*
X115359524Y-84442857D01*
X115397619Y-84519048D01*
X115397619Y-84709524D01*
X115359524Y-84785714D01*
X115321428Y-84823810D01*
X115245238Y-84861905D01*
X115016666Y-84861905D01*
X114940476Y-84823810D01*
X114902381Y-84785714D01*
X110485714Y-86035714D02*
X110447619Y-86073810D01*
X110333333Y-86111905D01*
X110257143Y-86111905D01*
X110142857Y-86073810D01*
X110066666Y-85997619D01*
X110028571Y-85921429D01*
X109990476Y-85769048D01*
X109990476Y-85654762D01*
X110028571Y-85502381D01*
X110066666Y-85426190D01*
X110142857Y-85350000D01*
X110257143Y-85311905D01*
X110333333Y-85311905D01*
X110447619Y-85350000D01*
X110485714Y-85388095D01*
X111247619Y-86111905D02*
X110790476Y-86111905D01*
X111019047Y-86111905D02*
X111019047Y-85311905D01*
X110942857Y-85426190D01*
X110866666Y-85502381D01*
X110790476Y-85540476D01*
X111933333Y-85578571D02*
X111933333Y-86111905D01*
X111742857Y-85273810D02*
X111552381Y-85845238D01*
X112047619Y-85845238D01*
X114885714Y-78085714D02*
X114847619Y-78123810D01*
X114733333Y-78161905D01*
X114657143Y-78161905D01*
X114542857Y-78123810D01*
X114466666Y-78047619D01*
X114428571Y-77971429D01*
X114390476Y-77819048D01*
X114390476Y-77704762D01*
X114428571Y-77552381D01*
X114466666Y-77476190D01*
X114542857Y-77400000D01*
X114657143Y-77361905D01*
X114733333Y-77361905D01*
X114847619Y-77400000D01*
X114885714Y-77438095D01*
X115647619Y-78161905D02*
X115190476Y-78161905D01*
X115419047Y-78161905D02*
X115419047Y-77361905D01*
X115342857Y-77476190D01*
X115266666Y-77552381D01*
X115190476Y-77590476D01*
X116371429Y-77361905D02*
X115990476Y-77361905D01*
X115952381Y-77742857D01*
X115990476Y-77704762D01*
X116066667Y-77666667D01*
X116257143Y-77666667D01*
X116333333Y-77704762D01*
X116371429Y-77742857D01*
X116409524Y-77819048D01*
X116409524Y-78009524D01*
X116371429Y-78085714D01*
X116333333Y-78123810D01*
X116257143Y-78161905D01*
X116066667Y-78161905D01*
X115990476Y-78123810D01*
X115952381Y-78085714D01*
X100485714Y-85285714D02*
X100447619Y-85323810D01*
X100333333Y-85361905D01*
X100257143Y-85361905D01*
X100142857Y-85323810D01*
X100066666Y-85247619D01*
X100028571Y-85171429D01*
X99990476Y-85019048D01*
X99990476Y-84904762D01*
X100028571Y-84752381D01*
X100066666Y-84676190D01*
X100142857Y-84600000D01*
X100257143Y-84561905D01*
X100333333Y-84561905D01*
X100447619Y-84600000D01*
X100485714Y-84638095D01*
X101247619Y-85361905D02*
X100790476Y-85361905D01*
X101019047Y-85361905D02*
X101019047Y-84561905D01*
X100942857Y-84676190D01*
X100866666Y-84752381D01*
X100790476Y-84790476D01*
X101514286Y-84561905D02*
X102047619Y-84561905D01*
X101704762Y-85361905D01*
X100485714Y-86285714D02*
X100447619Y-86323810D01*
X100333333Y-86361905D01*
X100257143Y-86361905D01*
X100142857Y-86323810D01*
X100066666Y-86247619D01*
X100028571Y-86171429D01*
X99990476Y-86019048D01*
X99990476Y-85904762D01*
X100028571Y-85752381D01*
X100066666Y-85676190D01*
X100142857Y-85600000D01*
X100257143Y-85561905D01*
X100333333Y-85561905D01*
X100447619Y-85600000D01*
X100485714Y-85638095D01*
X101247619Y-86361905D02*
X100790476Y-86361905D01*
X101019047Y-86361905D02*
X101019047Y-85561905D01*
X100942857Y-85676190D01*
X100866666Y-85752381D01*
X100790476Y-85790476D01*
X101704762Y-85904762D02*
X101628571Y-85866667D01*
X101590476Y-85828571D01*
X101552381Y-85752381D01*
X101552381Y-85714286D01*
X101590476Y-85638095D01*
X101628571Y-85600000D01*
X101704762Y-85561905D01*
X101857143Y-85561905D01*
X101933333Y-85600000D01*
X101971429Y-85638095D01*
X102009524Y-85714286D01*
X102009524Y-85752381D01*
X101971429Y-85828571D01*
X101933333Y-85866667D01*
X101857143Y-85904762D01*
X101704762Y-85904762D01*
X101628571Y-85942857D01*
X101590476Y-85980952D01*
X101552381Y-86057143D01*
X101552381Y-86209524D01*
X101590476Y-86285714D01*
X101628571Y-86323810D01*
X101704762Y-86361905D01*
X101857143Y-86361905D01*
X101933333Y-86323810D01*
X101971429Y-86285714D01*
X102009524Y-86209524D01*
X102009524Y-86057143D01*
X101971429Y-85980952D01*
X101933333Y-85942857D01*
X101857143Y-85904762D01*
X106535714Y-85264286D02*
X106573810Y-85302381D01*
X106611905Y-85416667D01*
X106611905Y-85492857D01*
X106573810Y-85607143D01*
X106497619Y-85683334D01*
X106421429Y-85721429D01*
X106269048Y-85759524D01*
X106154762Y-85759524D01*
X106002381Y-85721429D01*
X105926190Y-85683334D01*
X105850000Y-85607143D01*
X105811905Y-85492857D01*
X105811905Y-85416667D01*
X105850000Y-85302381D01*
X105888095Y-85264286D01*
X106611905Y-84502381D02*
X106611905Y-84959524D01*
X106611905Y-84730953D02*
X105811905Y-84730953D01*
X105926190Y-84807143D01*
X106002381Y-84883334D01*
X106040476Y-84959524D01*
X106611905Y-84121429D02*
X106611905Y-83969048D01*
X106573810Y-83892857D01*
X106535714Y-83854762D01*
X106421429Y-83778571D01*
X106269048Y-83740476D01*
X105964286Y-83740476D01*
X105888095Y-83778571D01*
X105850000Y-83816667D01*
X105811905Y-83892857D01*
X105811905Y-84045238D01*
X105850000Y-84121429D01*
X105888095Y-84159524D01*
X105964286Y-84197619D01*
X106154762Y-84197619D01*
X106230952Y-84159524D01*
X106269048Y-84121429D01*
X106307143Y-84045238D01*
X106307143Y-83892857D01*
X106269048Y-83816667D01*
X106230952Y-83778571D01*
X106154762Y-83740476D01*
X104116667Y-82111905D02*
X103735714Y-82111905D01*
X103735714Y-81311905D01*
X104345238Y-81388095D02*
X104383333Y-81350000D01*
X104459524Y-81311905D01*
X104650000Y-81311905D01*
X104726190Y-81350000D01*
X104764286Y-81388095D01*
X104802381Y-81464286D01*
X104802381Y-81540476D01*
X104764286Y-81654762D01*
X104307143Y-82111905D01*
X104802381Y-82111905D01*
X103361905Y-84383333D02*
X103361905Y-84764286D01*
X102561905Y-84764286D01*
X103361905Y-83697619D02*
X103361905Y-84154762D01*
X103361905Y-83926191D02*
X102561905Y-83926191D01*
X102676190Y-84002381D01*
X102752381Y-84078572D01*
X102790476Y-84154762D01*
X105366667Y-80535714D02*
X105328572Y-80573810D01*
X105214286Y-80611905D01*
X105138096Y-80611905D01*
X105023810Y-80573810D01*
X104947619Y-80497619D01*
X104909524Y-80421429D01*
X104871429Y-80269048D01*
X104871429Y-80154762D01*
X104909524Y-80002381D01*
X104947619Y-79926190D01*
X105023810Y-79850000D01*
X105138096Y-79811905D01*
X105214286Y-79811905D01*
X105328572Y-79850000D01*
X105366667Y-79888095D01*
X106128572Y-80611905D02*
X105671429Y-80611905D01*
X105900000Y-80611905D02*
X105900000Y-79811905D01*
X105823810Y-79926190D01*
X105747619Y-80002381D01*
X105671429Y-80040476D01*
X89233334Y-60061905D02*
X89233334Y-60633333D01*
X89195238Y-60747619D01*
X89119048Y-60823810D01*
X89004762Y-60861905D01*
X88928572Y-60861905D01*
X89538096Y-60061905D02*
X90033334Y-60061905D01*
X89766667Y-60366667D01*
X89880953Y-60366667D01*
X89957143Y-60404762D01*
X89995239Y-60442857D01*
X90033334Y-60519048D01*
X90033334Y-60709524D01*
X89995239Y-60785714D01*
X89957143Y-60823810D01*
X89880953Y-60861905D01*
X89652381Y-60861905D01*
X89576191Y-60823810D01*
X89538096Y-60785714D01*
X93200000Y-60861905D02*
X93200000Y-60061905D01*
X93580952Y-60861905D02*
X93580952Y-60061905D01*
X94038095Y-60861905D01*
X94038095Y-60061905D01*
X94838095Y-60861905D02*
X94380952Y-60861905D01*
X94609523Y-60861905D02*
X94609523Y-60061905D01*
X94533333Y-60176190D01*
X94457142Y-60252381D01*
X94380952Y-60290476D01*
X127233334Y-84061905D02*
X127233334Y-84633333D01*
X127195238Y-84747619D01*
X127119048Y-84823810D01*
X127004762Y-84861905D01*
X126928572Y-84861905D01*
X127957143Y-84328571D02*
X127957143Y-84861905D01*
X127766667Y-84023810D02*
X127576191Y-84595238D01*
X128071429Y-84595238D01*
X129200000Y-84861905D02*
X129200000Y-84061905D01*
X129580952Y-84861905D02*
X129580952Y-84061905D01*
X130038095Y-84861905D01*
X130038095Y-84061905D01*
X130380952Y-84138095D02*
X130419047Y-84100000D01*
X130495238Y-84061905D01*
X130685714Y-84061905D01*
X130761904Y-84100000D01*
X130800000Y-84138095D01*
X130838095Y-84214286D01*
X130838095Y-84290476D01*
X130800000Y-84404762D01*
X130342857Y-84861905D01*
X130838095Y-84861905D01*
M02*
