G04 #@! TF.FileFunction,Soldermask,Top*
%FSLAX46Y46*%
G04 Gerber Fmt 4.6, Leading zero omitted, Abs format (unit mm)*
G04 Created by KiCad (PCBNEW (2014-11-08 BZR 5258)-product) date Tue 11 Nov 2014 02:41:21 PM EST*
%MOMM*%
G01*
G04 APERTURE LIST*
%ADD10C,0.100000*%
%ADD11C,2.050000*%
%ADD12R,7.760000X1.600000*%
%ADD13R,2.200000X2.200000*%
%ADD14R,1.150000X1.450000*%
%ADD15R,1.524000X2.286000*%
%ADD16O,1.524000X2.286000*%
%ADD17R,2.286000X1.524000*%
%ADD18O,2.286000X1.524000*%
%ADD19R,0.600000X0.600000*%
%ADD20R,1.800000X1.200000*%
%ADD21R,0.600000X0.650000*%
%ADD22R,0.650000X0.600000*%
%ADD23R,1.200000X1.800000*%
%ADD24R,0.400000X0.300000*%
%ADD25R,1.300000X0.900000*%
%ADD26R,1.300000X0.800000*%
%ADD27R,0.900000X1.300000*%
%ADD28R,0.800000X1.300000*%
%ADD29R,1.550000X0.600000*%
%ADD30O,1.550000X0.600000*%
%ADD31R,0.450000X1.450000*%
%ADD32O,0.450000X1.450000*%
%ADD33R,0.900000X0.950000*%
%ADD34R,0.950000X0.900000*%
%ADD35R,0.650000X0.700000*%
%ADD36R,0.700000X0.650000*%
%ADD37C,0.254000*%
G04 APERTURE END LIST*
D10*
D11*
X92000000Y-65000000D03*
D12*
X92000000Y-68080000D03*
X92000000Y-61920000D03*
D13*
X89220000Y-67780000D03*
X89220000Y-62220000D03*
X94780000Y-67780000D03*
X94780000Y-62220000D03*
D14*
X121900000Y-80500000D03*
X120100000Y-80500000D03*
D15*
X89460000Y-75000000D03*
D16*
X92000000Y-75000000D03*
X94540000Y-75000000D03*
D15*
X131770000Y-73500000D03*
D16*
X129230000Y-73500000D03*
D17*
X132000000Y-88270000D03*
D18*
X132000000Y-85730000D03*
D14*
X113650000Y-80250000D03*
X111850000Y-80250000D03*
D19*
X131000000Y-66450000D03*
X131000000Y-65550000D03*
D20*
X101500000Y-66950000D03*
X101500000Y-64050000D03*
D21*
X119500000Y-67550000D03*
X119500000Y-68450000D03*
X119500000Y-65450000D03*
X119500000Y-64550000D03*
D22*
X112300000Y-78750000D03*
X113200000Y-78750000D03*
X112300000Y-84250000D03*
X113200000Y-84250000D03*
D14*
X113650000Y-82750000D03*
X111850000Y-82750000D03*
D22*
X119050000Y-79000000D03*
X119950000Y-79000000D03*
D21*
X123000000Y-84550000D03*
X123000000Y-85450000D03*
D22*
X127950000Y-88500000D03*
X127050000Y-88500000D03*
D23*
X120050000Y-82500000D03*
X122950000Y-82500000D03*
D22*
X101950000Y-72750000D03*
X101050000Y-72750000D03*
D24*
X110250000Y-67200000D03*
X110250000Y-66300000D03*
X110250000Y-64700000D03*
X110250000Y-63800000D03*
X120000000Y-75950000D03*
X120000000Y-75050000D03*
X120000000Y-73450000D03*
X120000000Y-72550000D03*
D19*
X108700000Y-65500000D03*
X107800000Y-65500000D03*
X121050000Y-74250000D03*
X121950000Y-74250000D03*
D11*
X131000000Y-80000000D03*
D12*
X131000000Y-83080000D03*
X131000000Y-76920000D03*
D13*
X128220000Y-82780000D03*
X128220000Y-77220000D03*
X133780000Y-82780000D03*
X133780000Y-77220000D03*
D11*
X92000000Y-84000000D03*
D12*
X92000000Y-87080000D03*
X92000000Y-80920000D03*
D13*
X89220000Y-86780000D03*
X89220000Y-81220000D03*
X94780000Y-86780000D03*
X94780000Y-81220000D03*
D25*
X129600000Y-70950000D03*
X129600000Y-69050000D03*
D26*
X127400000Y-70000000D03*
D25*
X129600000Y-66950000D03*
X129600000Y-65050000D03*
D26*
X127400000Y-66000000D03*
D25*
X129600000Y-62950000D03*
X129600000Y-61050000D03*
D26*
X127400000Y-62000000D03*
D25*
X103900000Y-67550000D03*
X103900000Y-69450000D03*
D26*
X106100000Y-68500000D03*
D27*
X105950000Y-75900000D03*
X104050000Y-75900000D03*
D28*
X105000000Y-78100000D03*
D27*
X105950000Y-71400000D03*
X104050000Y-71400000D03*
D28*
X105000000Y-73600000D03*
D10*
G36*
X106181802Y-64492462D02*
X105757538Y-64068198D01*
X106181802Y-63643934D01*
X106606066Y-64068198D01*
X106181802Y-64492462D01*
X106181802Y-64492462D01*
G37*
G36*
X106818198Y-63856066D02*
X106393934Y-63431802D01*
X106818198Y-63007538D01*
X107242462Y-63431802D01*
X106818198Y-63856066D01*
X106818198Y-63856066D01*
G37*
G36*
X105318198Y-64507538D02*
X105742462Y-64931802D01*
X105318198Y-65356066D01*
X104893934Y-64931802D01*
X105318198Y-64507538D01*
X105318198Y-64507538D01*
G37*
G36*
X104681802Y-65143934D02*
X105106066Y-65568198D01*
X104681802Y-65992462D01*
X104257538Y-65568198D01*
X104681802Y-65143934D01*
X104681802Y-65143934D01*
G37*
D19*
X118550000Y-85500000D03*
X119450000Y-85500000D03*
X129050000Y-88500000D03*
X129950000Y-88500000D03*
X123000000Y-73450000D03*
X123000000Y-72550000D03*
X123000000Y-75050000D03*
X123000000Y-75950000D03*
X131950000Y-69000000D03*
X131050000Y-69000000D03*
X121700000Y-67250000D03*
X120800000Y-67250000D03*
X121700000Y-65750000D03*
X120800000Y-65750000D03*
X123000000Y-68450000D03*
X123000000Y-67550000D03*
X123000000Y-64550000D03*
X123000000Y-65450000D03*
X109250000Y-81050000D03*
X109250000Y-81950000D03*
X110500000Y-81050000D03*
X110500000Y-81950000D03*
X120300000Y-84250000D03*
X121200000Y-84250000D03*
X107750000Y-74950000D03*
X107750000Y-74050000D03*
X109000000Y-74950000D03*
X109000000Y-74050000D03*
X107750000Y-76550000D03*
X107750000Y-77450000D03*
X101050000Y-74000000D03*
X101950000Y-74000000D03*
X109000000Y-76550000D03*
X109000000Y-77450000D03*
X101950000Y-71500000D03*
X101050000Y-71500000D03*
X101000000Y-78450000D03*
X101000000Y-77550000D03*
X101950000Y-79500000D03*
X101050000Y-79500000D03*
X102500000Y-78450000D03*
X102500000Y-77550000D03*
D29*
X117700000Y-68405000D03*
D30*
X117700000Y-67135000D03*
X117700000Y-65865000D03*
X117700000Y-64595000D03*
X112300000Y-64595000D03*
X112300000Y-65865000D03*
X112300000Y-67135000D03*
X112300000Y-68405000D03*
D29*
X112300000Y-70595000D03*
D30*
X112300000Y-71865000D03*
X112300000Y-73135000D03*
X112300000Y-74405000D03*
X117700000Y-74405000D03*
X117700000Y-73135000D03*
X117700000Y-71865000D03*
X117700000Y-70595000D03*
D31*
X116025000Y-83700000D03*
D32*
X116675000Y-83700000D03*
X117325000Y-83700000D03*
X117975000Y-83700000D03*
X117975000Y-79300000D03*
X117325000Y-79300000D03*
X116675000Y-79300000D03*
X116025000Y-79300000D03*
D33*
X117000000Y-85750000D03*
X115500000Y-85750000D03*
X117250000Y-77500000D03*
X118750000Y-77500000D03*
X101750000Y-81500000D03*
X100250000Y-81500000D03*
X101750000Y-83000000D03*
X100250000Y-83000000D03*
D34*
X104750000Y-84000000D03*
X104750000Y-85500000D03*
D35*
X104700000Y-83000000D03*
X103800000Y-83000000D03*
D36*
X102750000Y-82700000D03*
X102750000Y-81800000D03*
D22*
X105050000Y-79250000D03*
X105950000Y-79250000D03*
D37*
G36*
X125873000Y-88673000D02*
X124127000Y-88673000D01*
X124127000Y-86927000D01*
X124127000Y-79373000D01*
X123302605Y-79373000D01*
X121552605Y-77623000D01*
X119552605Y-77623000D01*
X118552605Y-76623000D01*
X115447395Y-76623000D01*
X114947395Y-77123000D01*
X111447395Y-77123000D01*
X110660197Y-77910197D01*
X110197395Y-78373000D01*
X109947395Y-78373000D01*
X109623000Y-78697395D01*
X109623000Y-79623000D01*
X106127000Y-79623000D01*
X106127000Y-78377000D01*
X109552605Y-78377000D01*
X109877000Y-78052605D01*
X109877000Y-77552605D01*
X110339803Y-77089803D01*
X111052605Y-76377000D01*
X114552605Y-76377000D01*
X115052605Y-75877000D01*
X118697395Y-75877000D01*
X119697395Y-76877000D01*
X120000000Y-76877000D01*
X121947395Y-76877000D01*
X123697395Y-78627000D01*
X124127000Y-78627000D01*
X124127000Y-62473000D01*
X99673000Y-62473000D01*
X99673000Y-86927000D01*
X124127000Y-86927000D01*
X124127000Y-88673000D01*
X124000000Y-88673000D01*
X97927000Y-88673000D01*
X97927000Y-60727000D01*
X125873000Y-60727000D01*
X125873000Y-88673000D01*
X125873000Y-88673000D01*
G37*
X125873000Y-88673000D02*
X124127000Y-88673000D01*
X124127000Y-86927000D01*
X124127000Y-79373000D01*
X123302605Y-79373000D01*
X121552605Y-77623000D01*
X119552605Y-77623000D01*
X118552605Y-76623000D01*
X115447395Y-76623000D01*
X114947395Y-77123000D01*
X111447395Y-77123000D01*
X110660197Y-77910197D01*
X110197395Y-78373000D01*
X109947395Y-78373000D01*
X109623000Y-78697395D01*
X109623000Y-79623000D01*
X106127000Y-79623000D01*
X106127000Y-78377000D01*
X109552605Y-78377000D01*
X109877000Y-78052605D01*
X109877000Y-77552605D01*
X110339803Y-77089803D01*
X111052605Y-76377000D01*
X114552605Y-76377000D01*
X115052605Y-75877000D01*
X118697395Y-75877000D01*
X119697395Y-76877000D01*
X120000000Y-76877000D01*
X121947395Y-76877000D01*
X123697395Y-78627000D01*
X124127000Y-78627000D01*
X124127000Y-62473000D01*
X99673000Y-62473000D01*
X99673000Y-86927000D01*
X124127000Y-86927000D01*
X124127000Y-88673000D01*
X124000000Y-88673000D01*
X97927000Y-88673000D01*
X97927000Y-60727000D01*
X125873000Y-60727000D01*
X125873000Y-88673000D01*
G36*
X134873000Y-67373000D02*
X132127000Y-67373000D01*
X132127000Y-60127000D01*
X134873000Y-60127000D01*
X134873000Y-67373000D01*
X134873000Y-67373000D01*
G37*
X134873000Y-67373000D02*
X132127000Y-67373000D01*
X132127000Y-60127000D01*
X134873000Y-60127000D01*
X134873000Y-67373000D01*
M02*
