G04 #@! TF.FileFunction,Legend,Bot*
%FSLAX46Y46*%
G04 Gerber Fmt 4.6, Leading zero omitted, Abs format (unit mm)*
G04 Created by KiCad (PCBNEW (2014-11-08 BZR 5258)-product) date Tue 11 Nov 2014 09:30:07 AM EST*
%MOMM*%
G01*
G04 APERTURE LIST*
%ADD10C,0.100000*%
%ADD11C,0.150000*%
%ADD12C,0.350000*%
%ADD13C,0.200000*%
G04 APERTURE END LIST*
D10*
D11*
X116535714Y-85547619D02*
X116488095Y-85500000D01*
X116392857Y-85452381D01*
X116154761Y-85452381D01*
X116059523Y-85500000D01*
X116011904Y-85547619D01*
X115964285Y-85642857D01*
X115964285Y-85738095D01*
X116011904Y-85880952D01*
X116583333Y-86452381D01*
X115964285Y-86452381D01*
X115345238Y-85452381D02*
X115249999Y-85452381D01*
X115154761Y-85500000D01*
X115107142Y-85547619D01*
X115059523Y-85642857D01*
X115011904Y-85833333D01*
X115011904Y-86071429D01*
X115059523Y-86261905D01*
X115107142Y-86357143D01*
X115154761Y-86404762D01*
X115249999Y-86452381D01*
X115345238Y-86452381D01*
X115440476Y-86404762D01*
X115488095Y-86357143D01*
X115535714Y-86261905D01*
X115583333Y-86071429D01*
X115583333Y-85833333D01*
X115535714Y-85642857D01*
X115488095Y-85547619D01*
X115440476Y-85500000D01*
X115345238Y-85452381D01*
X114059523Y-86452381D02*
X114630952Y-86452381D01*
X114345238Y-86452381D02*
X114345238Y-85452381D01*
X114440476Y-85595238D01*
X114535714Y-85690476D01*
X114630952Y-85738095D01*
X113202380Y-85785714D02*
X113202380Y-86452381D01*
X113440476Y-85404762D02*
X113678571Y-86119048D01*
X113059523Y-86119048D01*
X112678571Y-86071429D02*
X111916666Y-86071429D01*
X110916666Y-86452381D02*
X111488095Y-86452381D01*
X111202381Y-86452381D02*
X111202381Y-85452381D01*
X111297619Y-85595238D01*
X111392857Y-85690476D01*
X111488095Y-85738095D01*
X109964285Y-86452381D02*
X110535714Y-86452381D01*
X110250000Y-86452381D02*
X110250000Y-85452381D01*
X110345238Y-85595238D01*
X110440476Y-85690476D01*
X110535714Y-85738095D01*
D12*
X108984000Y-68492000D02*
X108476000Y-68492000D01*
X108476000Y-68492000D02*
X108476000Y-69000000D01*
X111524000Y-69000000D02*
X111524000Y-68492000D01*
X111524000Y-68492000D02*
X111016000Y-68492000D01*
X108984000Y-64492000D02*
X108476000Y-64492000D01*
X108476000Y-64492000D02*
X108476000Y-65000000D01*
X111524000Y-65000000D02*
X111524000Y-64492000D01*
X111524000Y-64492000D02*
X111016000Y-64492000D01*
X121016000Y-76508000D02*
X121524000Y-76508000D01*
X121524000Y-76508000D02*
X121524000Y-76000000D01*
X118476000Y-76000000D02*
X118476000Y-76508000D01*
X118476000Y-76508000D02*
X118984000Y-76508000D01*
X121016000Y-72508000D02*
X121524000Y-72508000D01*
X121524000Y-72508000D02*
X121524000Y-72000000D01*
X118476000Y-72000000D02*
X118476000Y-72508000D01*
X118476000Y-72508000D02*
X118984000Y-72508000D01*
X90492000Y-80016000D02*
X90492000Y-80524000D01*
X90492000Y-80524000D02*
X91000000Y-80524000D01*
X91000000Y-77476000D02*
X90492000Y-77476000D01*
X90492000Y-77476000D02*
X90492000Y-77984000D01*
X94016000Y-71508000D02*
X94524000Y-71508000D01*
X94524000Y-71508000D02*
X94524000Y-71000000D01*
X91476000Y-71000000D02*
X91476000Y-71508000D01*
X91476000Y-71508000D02*
X91984000Y-71508000D01*
D13*
X112952381Y-67785714D02*
X111952381Y-67785714D01*
X111952381Y-68023809D01*
X112000000Y-68166667D01*
X112095238Y-68261905D01*
X112190476Y-68309524D01*
X112380952Y-68357143D01*
X112523810Y-68357143D01*
X112714286Y-68309524D01*
X112809524Y-68261905D01*
X112904762Y-68166667D01*
X112952381Y-68023809D01*
X112952381Y-67785714D01*
X111952381Y-68690476D02*
X111952381Y-69357143D01*
X112952381Y-68690476D01*
X112952381Y-69357143D01*
X111952381Y-69642857D02*
X111952381Y-70261905D01*
X112333333Y-69928571D01*
X112333333Y-70071429D01*
X112380952Y-70166667D01*
X112428571Y-70214286D01*
X112523810Y-70261905D01*
X112761905Y-70261905D01*
X112857143Y-70214286D01*
X112904762Y-70166667D01*
X112952381Y-70071429D01*
X112952381Y-69785714D01*
X112904762Y-69690476D01*
X112857143Y-69642857D01*
X112952381Y-63785714D02*
X111952381Y-63785714D01*
X111952381Y-64023809D01*
X112000000Y-64166667D01*
X112095238Y-64261905D01*
X112190476Y-64309524D01*
X112380952Y-64357143D01*
X112523810Y-64357143D01*
X112714286Y-64309524D01*
X112809524Y-64261905D01*
X112904762Y-64166667D01*
X112952381Y-64023809D01*
X112952381Y-63785714D01*
X111952381Y-64690476D02*
X111952381Y-65357143D01*
X112952381Y-64690476D01*
X112952381Y-65357143D01*
X112285714Y-66166667D02*
X112952381Y-66166667D01*
X111904762Y-65928571D02*
X112619048Y-65690476D01*
X112619048Y-66309524D01*
X117952381Y-74785714D02*
X116952381Y-74785714D01*
X116952381Y-75023809D01*
X117000000Y-75166667D01*
X117095238Y-75261905D01*
X117190476Y-75309524D01*
X117380952Y-75357143D01*
X117523810Y-75357143D01*
X117714286Y-75309524D01*
X117809524Y-75261905D01*
X117904762Y-75166667D01*
X117952381Y-75023809D01*
X117952381Y-74785714D01*
X116952381Y-75690476D02*
X116952381Y-76357143D01*
X117952381Y-75690476D01*
X117952381Y-76357143D01*
X116952381Y-76642857D02*
X116952381Y-77309524D01*
X117952381Y-76880952D01*
X117952381Y-70785714D02*
X116952381Y-70785714D01*
X116952381Y-71023809D01*
X117000000Y-71166667D01*
X117095238Y-71261905D01*
X117190476Y-71309524D01*
X117380952Y-71357143D01*
X117523810Y-71357143D01*
X117714286Y-71309524D01*
X117809524Y-71261905D01*
X117904762Y-71166667D01*
X117952381Y-71023809D01*
X117952381Y-70785714D01*
X116952381Y-71690476D02*
X116952381Y-72357143D01*
X117952381Y-71690476D01*
X117952381Y-72357143D01*
X117380952Y-72880952D02*
X117333333Y-72785714D01*
X117285714Y-72738095D01*
X117190476Y-72690476D01*
X117142857Y-72690476D01*
X117047619Y-72738095D01*
X117000000Y-72785714D01*
X116952381Y-72880952D01*
X116952381Y-73071429D01*
X117000000Y-73166667D01*
X117047619Y-73214286D01*
X117142857Y-73261905D01*
X117190476Y-73261905D01*
X117285714Y-73214286D01*
X117333333Y-73166667D01*
X117380952Y-73071429D01*
X117380952Y-72880952D01*
X117428571Y-72785714D01*
X117476190Y-72738095D01*
X117571429Y-72690476D01*
X117761905Y-72690476D01*
X117857143Y-72738095D01*
X117904762Y-72785714D01*
X117952381Y-72880952D01*
X117952381Y-73071429D01*
X117904762Y-73166667D01*
X117857143Y-73214286D01*
X117761905Y-73261905D01*
X117571429Y-73261905D01*
X117476190Y-73214286D01*
X117428571Y-73166667D01*
X117380952Y-73071429D01*
X91095238Y-82047619D02*
X91190476Y-82000000D01*
X91285714Y-81904762D01*
X91428571Y-81761905D01*
X91523810Y-81714286D01*
X91619048Y-81714286D01*
X91571429Y-81952381D02*
X91666667Y-81904762D01*
X91761905Y-81809524D01*
X91809524Y-81619048D01*
X91809524Y-81285714D01*
X91761905Y-81095238D01*
X91666667Y-81000000D01*
X91571429Y-80952381D01*
X91380952Y-80952381D01*
X91285714Y-81000000D01*
X91190476Y-81095238D01*
X91142857Y-81285714D01*
X91142857Y-81619048D01*
X91190476Y-81809524D01*
X91285714Y-81904762D01*
X91380952Y-81952381D01*
X91571429Y-81952381D01*
X90190476Y-81952381D02*
X90761905Y-81952381D01*
X90476191Y-81952381D02*
X90476191Y-80952381D01*
X90571429Y-81095238D01*
X90666667Y-81190476D01*
X90761905Y-81238095D01*
X93095238Y-68547619D02*
X93190476Y-68500000D01*
X93285714Y-68404762D01*
X93428571Y-68261905D01*
X93523810Y-68214286D01*
X93619048Y-68214286D01*
X93571429Y-68452381D02*
X93666667Y-68404762D01*
X93761905Y-68309524D01*
X93809524Y-68119048D01*
X93809524Y-67785714D01*
X93761905Y-67595238D01*
X93666667Y-67500000D01*
X93571429Y-67452381D01*
X93380952Y-67452381D01*
X93285714Y-67500000D01*
X93190476Y-67595238D01*
X93142857Y-67785714D01*
X93142857Y-68119048D01*
X93190476Y-68309524D01*
X93285714Y-68404762D01*
X93380952Y-68452381D01*
X93571429Y-68452381D01*
X92761905Y-67547619D02*
X92714286Y-67500000D01*
X92619048Y-67452381D01*
X92380952Y-67452381D01*
X92285714Y-67500000D01*
X92238095Y-67547619D01*
X92190476Y-67642857D01*
X92190476Y-67738095D01*
X92238095Y-67880952D01*
X92809524Y-68452381D01*
X92190476Y-68452381D01*
D11*
X111611905Y-71866667D02*
X111230952Y-71600000D01*
X111611905Y-71409524D02*
X110811905Y-71409524D01*
X110811905Y-71714286D01*
X110850000Y-71790477D01*
X110888095Y-71828572D01*
X110964286Y-71866667D01*
X111078571Y-71866667D01*
X111154762Y-71828572D01*
X111192857Y-71790477D01*
X111230952Y-71714286D01*
X111230952Y-71409524D01*
X110811905Y-72133334D02*
X110811905Y-72628572D01*
X111116667Y-72361905D01*
X111116667Y-72476191D01*
X111154762Y-72552381D01*
X111192857Y-72590477D01*
X111269048Y-72628572D01*
X111459524Y-72628572D01*
X111535714Y-72590477D01*
X111573810Y-72552381D01*
X111611905Y-72476191D01*
X111611905Y-72247619D01*
X111573810Y-72171429D01*
X111535714Y-72133334D01*
X106361905Y-66366667D02*
X105980952Y-66100000D01*
X106361905Y-65909524D02*
X105561905Y-65909524D01*
X105561905Y-66214286D01*
X105600000Y-66290477D01*
X105638095Y-66328572D01*
X105714286Y-66366667D01*
X105828571Y-66366667D01*
X105904762Y-66328572D01*
X105942857Y-66290477D01*
X105980952Y-66214286D01*
X105980952Y-65909524D01*
X105828571Y-67052381D02*
X106361905Y-67052381D01*
X105523810Y-66861905D02*
X106095238Y-66671429D01*
X106095238Y-67166667D01*
X119361905Y-78866667D02*
X118980952Y-78600000D01*
X119361905Y-78409524D02*
X118561905Y-78409524D01*
X118561905Y-78714286D01*
X118600000Y-78790477D01*
X118638095Y-78828572D01*
X118714286Y-78866667D01*
X118828571Y-78866667D01*
X118904762Y-78828572D01*
X118942857Y-78790477D01*
X118980952Y-78714286D01*
X118980952Y-78409524D01*
X119361905Y-79247619D02*
X119361905Y-79400000D01*
X119323810Y-79476191D01*
X119285714Y-79514286D01*
X119171429Y-79590477D01*
X119019048Y-79628572D01*
X118714286Y-79628572D01*
X118638095Y-79590477D01*
X118600000Y-79552381D01*
X118561905Y-79476191D01*
X118561905Y-79323810D01*
X118600000Y-79247619D01*
X118638095Y-79209524D01*
X118714286Y-79171429D01*
X118904762Y-79171429D01*
X118980952Y-79209524D01*
X119019048Y-79247619D01*
X119057143Y-79323810D01*
X119057143Y-79476191D01*
X119019048Y-79552381D01*
X118980952Y-79590477D01*
X118904762Y-79628572D01*
X120514286Y-68861905D02*
X120780953Y-68480952D01*
X120971429Y-68861905D02*
X120971429Y-68061905D01*
X120666667Y-68061905D01*
X120590476Y-68100000D01*
X120552381Y-68138095D01*
X120514286Y-68214286D01*
X120514286Y-68328571D01*
X120552381Y-68404762D01*
X120590476Y-68442857D01*
X120666667Y-68480952D01*
X120971429Y-68480952D01*
X119752381Y-68861905D02*
X120209524Y-68861905D01*
X119980953Y-68861905D02*
X119980953Y-68061905D01*
X120057143Y-68176190D01*
X120133334Y-68252381D01*
X120209524Y-68290476D01*
X119257143Y-68061905D02*
X119180952Y-68061905D01*
X119104762Y-68100000D01*
X119066667Y-68138095D01*
X119028571Y-68214286D01*
X118990476Y-68366667D01*
X118990476Y-68557143D01*
X119028571Y-68709524D01*
X119066667Y-68785714D01*
X119104762Y-68823810D01*
X119180952Y-68861905D01*
X119257143Y-68861905D01*
X119333333Y-68823810D01*
X119371429Y-68785714D01*
X119409524Y-68709524D01*
X119447619Y-68557143D01*
X119447619Y-68366667D01*
X119409524Y-68214286D01*
X119371429Y-68138095D01*
X119333333Y-68100000D01*
X119257143Y-68061905D01*
X96552381Y-70942857D02*
X96285714Y-70942857D01*
X96171428Y-71361905D02*
X96552381Y-71361905D01*
X96552381Y-70561905D01*
X96171428Y-70561905D01*
X95866666Y-70638095D02*
X95828571Y-70600000D01*
X95752380Y-70561905D01*
X95561904Y-70561905D01*
X95485714Y-70600000D01*
X95447618Y-70638095D01*
X95409523Y-70714286D01*
X95409523Y-70790476D01*
X95447618Y-70904762D01*
X95904761Y-71361905D01*
X95409523Y-71361905D01*
X95552381Y-78942857D02*
X95285714Y-78942857D01*
X95171428Y-79361905D02*
X95552381Y-79361905D01*
X95552381Y-78561905D01*
X95171428Y-78561905D01*
X94409523Y-79361905D02*
X94866666Y-79361905D01*
X94638095Y-79361905D02*
X94638095Y-78561905D01*
X94714285Y-78676190D01*
X94790476Y-78752381D01*
X94866666Y-78790476D01*
M02*
