G04 #@! TF.FileFunction,Copper,L3,Inr,Signal*
%FSLAX46Y46*%
G04 Gerber Fmt 4.6, Leading zero omitted, Abs format (unit mm)*
G04 Created by KiCad (PCBNEW (2014-11-08 BZR 5258)-product) date Tue 11 Nov 2014 09:30:07 AM EST*
%MOMM*%
G01*
G04 APERTURE LIST*
%ADD10C,0.100000*%
%ADD11C,0.300000*%
%ADD12R,1.524000X2.286000*%
%ADD13O,1.524000X2.286000*%
%ADD14R,2.286000X1.524000*%
%ADD15O,2.286000X1.524000*%
%ADD16C,0.600000*%
%ADD17C,0.254000*%
G04 APERTURE END LIST*
D10*
D11*
X132678571Y-63499999D02*
X132678571Y-62571428D01*
X133250000Y-63071428D01*
X133250000Y-62857142D01*
X133321429Y-62714285D01*
X133392857Y-62642856D01*
X133535714Y-62571428D01*
X133892857Y-62571428D01*
X134035714Y-62642856D01*
X134107143Y-62714285D01*
X134178571Y-62857142D01*
X134178571Y-63285714D01*
X134107143Y-63428571D01*
X134035714Y-63499999D01*
D12*
X89460000Y-75000000D03*
D13*
X92000000Y-75000000D03*
X94540000Y-75000000D03*
D12*
X131770000Y-73500000D03*
D13*
X129230000Y-73500000D03*
D14*
X132000000Y-88270000D03*
D15*
X132000000Y-85730000D03*
D16*
X105000000Y-79250000D03*
X105000000Y-79250000D03*
X109000000Y-72750000D03*
X121000000Y-79000000D03*
X121000000Y-85250000D03*
X102500000Y-87750000D03*
X105000000Y-87750000D03*
X107500000Y-87750000D03*
X110000000Y-87750000D03*
X112500000Y-87750000D03*
X115000000Y-87750000D03*
X117500000Y-87750000D03*
X120000000Y-87750000D03*
X125000000Y-86500000D03*
X125000000Y-84000000D03*
X125000000Y-81500000D03*
X125000000Y-79000000D03*
X125000000Y-76500000D03*
X125000000Y-74000000D03*
X125000000Y-71500000D03*
X125000000Y-69000000D03*
X125000000Y-66500000D03*
X125000000Y-64000000D03*
X125000000Y-61500000D03*
X121250000Y-61500000D03*
X118750000Y-61500000D03*
X116250000Y-61500000D03*
X113750000Y-61500000D03*
X111250000Y-61500000D03*
X108750000Y-61500000D03*
X106250000Y-61500000D03*
X103750000Y-61500000D03*
X101250000Y-61500000D03*
X98750000Y-62750000D03*
X98750000Y-65250000D03*
X98750000Y-67750000D03*
X98750000Y-70250000D03*
X98750000Y-72750000D03*
X98750000Y-75250000D03*
X98750000Y-80250000D03*
X98750000Y-85250000D03*
X98750000Y-87750000D03*
X109750000Y-74000000D03*
X108400000Y-74000000D03*
X107000000Y-74000000D03*
X109750000Y-77500000D03*
X108400000Y-77400000D03*
X123000000Y-76600000D03*
X123600000Y-76000000D03*
X122400000Y-76000000D03*
X123000000Y-72000000D03*
X122400000Y-72600000D03*
X123600000Y-72600000D03*
X105200000Y-66000000D03*
X104200000Y-65200000D03*
X104250000Y-66000000D03*
X107300000Y-63900000D03*
X107250000Y-63000000D03*
X106400000Y-63000000D03*
X121000000Y-63750000D03*
X112250000Y-75000000D03*
X113500000Y-74500000D03*
X116500000Y-73250000D03*
X116500000Y-71750000D03*
X117750000Y-72500000D03*
X111250000Y-71000000D03*
X111250000Y-71000000D03*
X113500000Y-70500000D03*
X117500000Y-69000000D03*
X116500000Y-68500000D03*
X116500000Y-64500000D03*
X117750000Y-64000000D03*
X113500000Y-67250000D03*
X113500000Y-65750000D03*
X112250000Y-66500000D03*
X108500000Y-82000000D03*
X123000000Y-78500000D03*
X121250000Y-77250000D03*
X118750000Y-76250000D03*
X116750000Y-76250000D03*
X114750000Y-76750000D03*
X112250000Y-76750000D03*
X109250000Y-79250000D03*
X107000000Y-77500000D03*
X106500000Y-79250000D03*
X98750000Y-77750000D03*
X122500000Y-87750000D03*
X128000000Y-76000000D03*
X129500000Y-76000000D03*
X131000000Y-76000000D03*
X132500000Y-76000000D03*
X134000000Y-76000000D03*
X128000000Y-84000000D03*
X129500000Y-84000000D03*
X131000000Y-84000000D03*
X132500000Y-84000000D03*
X134000000Y-84000000D03*
X89000000Y-88000000D03*
X90500000Y-88000000D03*
X92000000Y-88000000D03*
X93500000Y-88000000D03*
X95000000Y-88000000D03*
X89000000Y-80000000D03*
X90500000Y-80000000D03*
X96000000Y-82000000D03*
X96000000Y-81000000D03*
X89000000Y-69000000D03*
X90500000Y-69000000D03*
X96000000Y-67000000D03*
X96000000Y-68500000D03*
X89000000Y-61000000D03*
X90500000Y-61000000D03*
X92000000Y-61000000D03*
X93500000Y-61000000D03*
X95000000Y-61000000D03*
X109000000Y-64000000D03*
X122000000Y-69250000D03*
X116750000Y-82500000D03*
X117750000Y-82250000D03*
X104000000Y-85500000D03*
X104750000Y-86250000D03*
X105500000Y-85500000D03*
X100250000Y-82250000D03*
X100250000Y-83750000D03*
X131000000Y-64000000D03*
X101500000Y-66000000D03*
X101500000Y-66000000D03*
X107750000Y-67000000D03*
X121000000Y-69500000D03*
X113750000Y-73000000D03*
X113750000Y-73000000D03*
X116500000Y-67000000D03*
X113750000Y-72000000D03*
X116500000Y-66000000D03*
X128000000Y-86500000D03*
X128000000Y-86500000D03*
X122250000Y-84500000D03*
X109000000Y-68000000D03*
X109000000Y-68000000D03*
X111250000Y-63500000D03*
X111250000Y-63500000D03*
X120750000Y-76250000D03*
X120750000Y-76250000D03*
X120000000Y-71000000D03*
X120000000Y-71000000D03*
X94250000Y-65000000D03*
X94250000Y-65000000D03*
X105750000Y-64500000D03*
X105750000Y-64500000D03*
X105750000Y-64500000D03*
X123000000Y-74250000D03*
X129000000Y-80000000D03*
X94000000Y-84000000D03*
X94000000Y-84000000D03*
X101000000Y-80250000D03*
X127000000Y-67000000D03*
X122500000Y-66500000D03*
X127000000Y-63000000D03*
X127000000Y-63000000D03*
X127000000Y-63000000D03*
X127000000Y-63000000D03*
X127000000Y-63000000D03*
X123500000Y-66500000D03*
D17*
G36*
X108873000Y-63447395D02*
X106477126Y-65843269D01*
X106477126Y-64356025D01*
X106366680Y-64088725D01*
X106162350Y-63884039D01*
X105895244Y-63773126D01*
X105606025Y-63772874D01*
X105338725Y-63883320D01*
X105134039Y-64087650D01*
X105023126Y-64354756D01*
X105022874Y-64643975D01*
X105133320Y-64911275D01*
X105337650Y-65115961D01*
X105604756Y-65226874D01*
X105893975Y-65227126D01*
X106161275Y-65116680D01*
X106365961Y-64912350D01*
X106476874Y-64645244D01*
X106477126Y-64356025D01*
X106477126Y-65843269D01*
X105447395Y-66873000D01*
X103627000Y-66873000D01*
X103627000Y-65447395D01*
X103052605Y-64873000D01*
X99373000Y-64873000D01*
X99373000Y-69000000D01*
X99373000Y-79127000D01*
X102373000Y-79127000D01*
X102373000Y-89373000D01*
X101727126Y-89373000D01*
X101727126Y-80106025D01*
X101616680Y-79838725D01*
X101412350Y-79634039D01*
X101145244Y-79523126D01*
X100856025Y-79522874D01*
X100588725Y-79633320D01*
X100384039Y-79837650D01*
X100273126Y-80104756D01*
X100272874Y-80393975D01*
X100383320Y-80661275D01*
X100587650Y-80865961D01*
X100854756Y-80976874D01*
X101143975Y-80977126D01*
X101411275Y-80866680D01*
X101615961Y-80662350D01*
X101726874Y-80395244D01*
X101727126Y-80106025D01*
X101727126Y-89373000D01*
X95729000Y-89373000D01*
X95729000Y-75411758D01*
X95729000Y-74588242D01*
X95638493Y-74133231D01*
X95380750Y-73747492D01*
X94995011Y-73489749D01*
X94977126Y-73486191D01*
X94977126Y-64856025D01*
X94866680Y-64588725D01*
X94662350Y-64384039D01*
X94395244Y-64273126D01*
X94106025Y-64272874D01*
X93838725Y-64383320D01*
X93634039Y-64587650D01*
X93523126Y-64854756D01*
X93522874Y-65143975D01*
X93633320Y-65411275D01*
X93837650Y-65615961D01*
X94104756Y-65726874D01*
X94393975Y-65727126D01*
X94661275Y-65616680D01*
X94865961Y-65412350D01*
X94976874Y-65145244D01*
X94977126Y-64856025D01*
X94977126Y-73486191D01*
X94540000Y-73399242D01*
X94084989Y-73489749D01*
X93699250Y-73747492D01*
X93441507Y-74133231D01*
X93380955Y-74437642D01*
X93242059Y-73967059D01*
X92898026Y-73541370D01*
X92417277Y-73279740D01*
X92343070Y-73264780D01*
X92127000Y-73387280D01*
X92127000Y-74873000D01*
X92147000Y-74873000D01*
X92147000Y-75127000D01*
X92127000Y-75127000D01*
X92127000Y-76612720D01*
X92343070Y-76735220D01*
X92417277Y-76720260D01*
X92898026Y-76458630D01*
X93242059Y-76032941D01*
X93380955Y-75562357D01*
X93441507Y-75866769D01*
X93699250Y-76252508D01*
X94084989Y-76510251D01*
X94540000Y-76600758D01*
X94995011Y-76510251D01*
X95380750Y-76252508D01*
X95638493Y-75866769D01*
X95729000Y-75411758D01*
X95729000Y-89373000D01*
X94727126Y-89373000D01*
X94727126Y-83856025D01*
X94616680Y-83588725D01*
X94412350Y-83384039D01*
X94145244Y-83273126D01*
X93856025Y-83272874D01*
X93588725Y-83383320D01*
X93384039Y-83587650D01*
X93273126Y-83854756D01*
X93272874Y-84143975D01*
X93383320Y-84411275D01*
X93587650Y-84615961D01*
X93854756Y-84726874D01*
X94143975Y-84727126D01*
X94411275Y-84616680D01*
X94615961Y-84412350D01*
X94726874Y-84145244D01*
X94727126Y-83856025D01*
X94727126Y-89373000D01*
X91873000Y-89373000D01*
X91873000Y-76612720D01*
X91873000Y-75127000D01*
X91853000Y-75127000D01*
X91853000Y-74873000D01*
X91873000Y-74873000D01*
X91873000Y-73387280D01*
X91656930Y-73264780D01*
X91582723Y-73279740D01*
X91101974Y-73541370D01*
X90757941Y-73967059D01*
X90649000Y-74336151D01*
X90649000Y-73772065D01*
X90583993Y-73615124D01*
X90463876Y-73495007D01*
X90306936Y-73430000D01*
X90137065Y-73430000D01*
X88613065Y-73430000D01*
X88456124Y-73495007D01*
X88336007Y-73615124D01*
X88271000Y-73772064D01*
X88271000Y-73941935D01*
X88271000Y-76227935D01*
X88336007Y-76384876D01*
X88456124Y-76504993D01*
X88613064Y-76570000D01*
X88782935Y-76570000D01*
X90306935Y-76570000D01*
X90463876Y-76504993D01*
X90583993Y-76384876D01*
X90649000Y-76227936D01*
X90649000Y-76058065D01*
X90649000Y-75663848D01*
X90757941Y-76032941D01*
X91101974Y-76458630D01*
X91582723Y-76720260D01*
X91656930Y-76735220D01*
X91873000Y-76612720D01*
X91873000Y-89373000D01*
X87627000Y-89373000D01*
X87627000Y-80000000D01*
X87627000Y-69000000D01*
X87627000Y-60127000D01*
X108873000Y-60127000D01*
X108873000Y-63447395D01*
X108873000Y-63447395D01*
G37*
X108873000Y-63447395D02*
X106477126Y-65843269D01*
X106477126Y-64356025D01*
X106366680Y-64088725D01*
X106162350Y-63884039D01*
X105895244Y-63773126D01*
X105606025Y-63772874D01*
X105338725Y-63883320D01*
X105134039Y-64087650D01*
X105023126Y-64354756D01*
X105022874Y-64643975D01*
X105133320Y-64911275D01*
X105337650Y-65115961D01*
X105604756Y-65226874D01*
X105893975Y-65227126D01*
X106161275Y-65116680D01*
X106365961Y-64912350D01*
X106476874Y-64645244D01*
X106477126Y-64356025D01*
X106477126Y-65843269D01*
X105447395Y-66873000D01*
X103627000Y-66873000D01*
X103627000Y-65447395D01*
X103052605Y-64873000D01*
X99373000Y-64873000D01*
X99373000Y-69000000D01*
X99373000Y-79127000D01*
X102373000Y-79127000D01*
X102373000Y-89373000D01*
X101727126Y-89373000D01*
X101727126Y-80106025D01*
X101616680Y-79838725D01*
X101412350Y-79634039D01*
X101145244Y-79523126D01*
X100856025Y-79522874D01*
X100588725Y-79633320D01*
X100384039Y-79837650D01*
X100273126Y-80104756D01*
X100272874Y-80393975D01*
X100383320Y-80661275D01*
X100587650Y-80865961D01*
X100854756Y-80976874D01*
X101143975Y-80977126D01*
X101411275Y-80866680D01*
X101615961Y-80662350D01*
X101726874Y-80395244D01*
X101727126Y-80106025D01*
X101727126Y-89373000D01*
X95729000Y-89373000D01*
X95729000Y-75411758D01*
X95729000Y-74588242D01*
X95638493Y-74133231D01*
X95380750Y-73747492D01*
X94995011Y-73489749D01*
X94977126Y-73486191D01*
X94977126Y-64856025D01*
X94866680Y-64588725D01*
X94662350Y-64384039D01*
X94395244Y-64273126D01*
X94106025Y-64272874D01*
X93838725Y-64383320D01*
X93634039Y-64587650D01*
X93523126Y-64854756D01*
X93522874Y-65143975D01*
X93633320Y-65411275D01*
X93837650Y-65615961D01*
X94104756Y-65726874D01*
X94393975Y-65727126D01*
X94661275Y-65616680D01*
X94865961Y-65412350D01*
X94976874Y-65145244D01*
X94977126Y-64856025D01*
X94977126Y-73486191D01*
X94540000Y-73399242D01*
X94084989Y-73489749D01*
X93699250Y-73747492D01*
X93441507Y-74133231D01*
X93380955Y-74437642D01*
X93242059Y-73967059D01*
X92898026Y-73541370D01*
X92417277Y-73279740D01*
X92343070Y-73264780D01*
X92127000Y-73387280D01*
X92127000Y-74873000D01*
X92147000Y-74873000D01*
X92147000Y-75127000D01*
X92127000Y-75127000D01*
X92127000Y-76612720D01*
X92343070Y-76735220D01*
X92417277Y-76720260D01*
X92898026Y-76458630D01*
X93242059Y-76032941D01*
X93380955Y-75562357D01*
X93441507Y-75866769D01*
X93699250Y-76252508D01*
X94084989Y-76510251D01*
X94540000Y-76600758D01*
X94995011Y-76510251D01*
X95380750Y-76252508D01*
X95638493Y-75866769D01*
X95729000Y-75411758D01*
X95729000Y-89373000D01*
X94727126Y-89373000D01*
X94727126Y-83856025D01*
X94616680Y-83588725D01*
X94412350Y-83384039D01*
X94145244Y-83273126D01*
X93856025Y-83272874D01*
X93588725Y-83383320D01*
X93384039Y-83587650D01*
X93273126Y-83854756D01*
X93272874Y-84143975D01*
X93383320Y-84411275D01*
X93587650Y-84615961D01*
X93854756Y-84726874D01*
X94143975Y-84727126D01*
X94411275Y-84616680D01*
X94615961Y-84412350D01*
X94726874Y-84145244D01*
X94727126Y-83856025D01*
X94727126Y-89373000D01*
X91873000Y-89373000D01*
X91873000Y-76612720D01*
X91873000Y-75127000D01*
X91853000Y-75127000D01*
X91853000Y-74873000D01*
X91873000Y-74873000D01*
X91873000Y-73387280D01*
X91656930Y-73264780D01*
X91582723Y-73279740D01*
X91101974Y-73541370D01*
X90757941Y-73967059D01*
X90649000Y-74336151D01*
X90649000Y-73772065D01*
X90583993Y-73615124D01*
X90463876Y-73495007D01*
X90306936Y-73430000D01*
X90137065Y-73430000D01*
X88613065Y-73430000D01*
X88456124Y-73495007D01*
X88336007Y-73615124D01*
X88271000Y-73772064D01*
X88271000Y-73941935D01*
X88271000Y-76227935D01*
X88336007Y-76384876D01*
X88456124Y-76504993D01*
X88613064Y-76570000D01*
X88782935Y-76570000D01*
X90306935Y-76570000D01*
X90463876Y-76504993D01*
X90583993Y-76384876D01*
X90649000Y-76227936D01*
X90649000Y-76058065D01*
X90649000Y-75663848D01*
X90757941Y-76032941D01*
X91101974Y-76458630D01*
X91582723Y-76720260D01*
X91656930Y-76735220D01*
X91873000Y-76612720D01*
X91873000Y-89373000D01*
X87627000Y-89373000D01*
X87627000Y-80000000D01*
X87627000Y-69000000D01*
X87627000Y-60127000D01*
X108873000Y-60127000D01*
X108873000Y-63447395D01*
G36*
X134373000Y-71373000D02*
X127727126Y-71373000D01*
X127727126Y-66856025D01*
X127727126Y-62856025D01*
X127616680Y-62588725D01*
X127412350Y-62384039D01*
X127145244Y-62273126D01*
X126856025Y-62272874D01*
X126588725Y-62383320D01*
X126384039Y-62587650D01*
X126273126Y-62854756D01*
X126272874Y-63143975D01*
X126383320Y-63411275D01*
X126587650Y-63615961D01*
X126854756Y-63726874D01*
X127143975Y-63727126D01*
X127411275Y-63616680D01*
X127615961Y-63412350D01*
X127726874Y-63145244D01*
X127727126Y-62856025D01*
X127727126Y-66856025D01*
X127616680Y-66588725D01*
X127412350Y-66384039D01*
X127145244Y-66273126D01*
X126856025Y-66272874D01*
X126588725Y-66383320D01*
X126384039Y-66587650D01*
X126273126Y-66854756D01*
X126272874Y-67143975D01*
X126383320Y-67411275D01*
X126587650Y-67615961D01*
X126854756Y-67726874D01*
X127143975Y-67727126D01*
X127411275Y-67616680D01*
X127615961Y-67412350D01*
X127726874Y-67145244D01*
X127727126Y-66856025D01*
X127727126Y-71373000D01*
X125727111Y-71373000D01*
X125727126Y-71356025D01*
X125727126Y-68856025D01*
X125727126Y-66356025D01*
X125727126Y-63856025D01*
X125727126Y-61356025D01*
X125616680Y-61088725D01*
X125412350Y-60884039D01*
X125145244Y-60773126D01*
X124856025Y-60772874D01*
X124588725Y-60883320D01*
X124384039Y-61087650D01*
X124273126Y-61354756D01*
X124272874Y-61643975D01*
X124383320Y-61911275D01*
X124587650Y-62115961D01*
X124854756Y-62226874D01*
X125143975Y-62227126D01*
X125411275Y-62116680D01*
X125615961Y-61912350D01*
X125726874Y-61645244D01*
X125727126Y-61356025D01*
X125727126Y-63856025D01*
X125616680Y-63588725D01*
X125412350Y-63384039D01*
X125145244Y-63273126D01*
X124856025Y-63272874D01*
X124588725Y-63383320D01*
X124384039Y-63587650D01*
X124273126Y-63854756D01*
X124272874Y-64143975D01*
X124383320Y-64411275D01*
X124587650Y-64615961D01*
X124854756Y-64726874D01*
X125143975Y-64727126D01*
X125411275Y-64616680D01*
X125615961Y-64412350D01*
X125726874Y-64145244D01*
X125727126Y-63856025D01*
X125727126Y-66356025D01*
X125616680Y-66088725D01*
X125412350Y-65884039D01*
X125145244Y-65773126D01*
X124856025Y-65772874D01*
X124588725Y-65883320D01*
X124384039Y-66087650D01*
X124273126Y-66354756D01*
X124272874Y-66643975D01*
X124383320Y-66911275D01*
X124587650Y-67115961D01*
X124854756Y-67226874D01*
X125143975Y-67227126D01*
X125411275Y-67116680D01*
X125615961Y-66912350D01*
X125726874Y-66645244D01*
X125727126Y-66356025D01*
X125727126Y-68856025D01*
X125616680Y-68588725D01*
X125412350Y-68384039D01*
X125145244Y-68273126D01*
X124856025Y-68272874D01*
X124588725Y-68383320D01*
X124384039Y-68587650D01*
X124273126Y-68854756D01*
X124272874Y-69143975D01*
X124383320Y-69411275D01*
X124587650Y-69615961D01*
X124854756Y-69726874D01*
X125143975Y-69727126D01*
X125411275Y-69616680D01*
X125615961Y-69412350D01*
X125726874Y-69145244D01*
X125727126Y-68856025D01*
X125727126Y-71356025D01*
X125616680Y-71088725D01*
X125412350Y-70884039D01*
X125145244Y-70773126D01*
X124856025Y-70772874D01*
X124588725Y-70883320D01*
X124384039Y-71087650D01*
X124273126Y-71354756D01*
X124273110Y-71373000D01*
X124227126Y-71373000D01*
X124227126Y-66356025D01*
X124116680Y-66088725D01*
X123912350Y-65884039D01*
X123645244Y-65773126D01*
X123356025Y-65772874D01*
X123088725Y-65883320D01*
X123000024Y-65971866D01*
X122912350Y-65884039D01*
X122645244Y-65773126D01*
X122356025Y-65772874D01*
X122088725Y-65883320D01*
X121977126Y-65994724D01*
X121977126Y-61356025D01*
X121866680Y-61088725D01*
X121662350Y-60884039D01*
X121395244Y-60773126D01*
X121106025Y-60772874D01*
X120838725Y-60883320D01*
X120634039Y-61087650D01*
X120523126Y-61354756D01*
X120522874Y-61643975D01*
X120633320Y-61911275D01*
X120837650Y-62115961D01*
X121104756Y-62226874D01*
X121393975Y-62227126D01*
X121661275Y-62116680D01*
X121865961Y-61912350D01*
X121976874Y-61645244D01*
X121977126Y-61356025D01*
X121977126Y-65994724D01*
X121884039Y-66087650D01*
X121773126Y-66354756D01*
X121772874Y-66643975D01*
X121883320Y-66911275D01*
X122087650Y-67115961D01*
X122354756Y-67226874D01*
X122643975Y-67227126D01*
X122911275Y-67116680D01*
X122999975Y-67028133D01*
X123087650Y-67115961D01*
X123354756Y-67226874D01*
X123643975Y-67227126D01*
X123911275Y-67116680D01*
X124115961Y-66912350D01*
X124226874Y-66645244D01*
X124227126Y-66356025D01*
X124227126Y-71373000D01*
X123385765Y-71373000D01*
X123145244Y-71273126D01*
X122856025Y-71272874D01*
X122727126Y-71326133D01*
X122727126Y-69106025D01*
X122616680Y-68838725D01*
X122412350Y-68634039D01*
X122145244Y-68523126D01*
X121856025Y-68522874D01*
X121727126Y-68576133D01*
X121727126Y-63606025D01*
X121616680Y-63338725D01*
X121412350Y-63134039D01*
X121145244Y-63023126D01*
X120856025Y-63022874D01*
X120588725Y-63133320D01*
X120384039Y-63337650D01*
X120273126Y-63604756D01*
X120272874Y-63893975D01*
X120383320Y-64161275D01*
X120587650Y-64365961D01*
X120854756Y-64476874D01*
X121143975Y-64477126D01*
X121411275Y-64366680D01*
X121615961Y-64162350D01*
X121726874Y-63895244D01*
X121727126Y-63606025D01*
X121727126Y-68576133D01*
X121588725Y-68633320D01*
X121384039Y-68837650D01*
X121273126Y-69104756D01*
X121272874Y-69393975D01*
X121383320Y-69661275D01*
X121587650Y-69865961D01*
X121854756Y-69976874D01*
X122143975Y-69977126D01*
X122411275Y-69866680D01*
X122615961Y-69662350D01*
X122726874Y-69395244D01*
X122727126Y-69106025D01*
X122727126Y-71326133D01*
X122613701Y-71373000D01*
X120632300Y-71373000D01*
X120726874Y-71145244D01*
X120727126Y-70856025D01*
X120616680Y-70588725D01*
X120412350Y-70384039D01*
X120145244Y-70273126D01*
X119856025Y-70272874D01*
X119588725Y-70383320D01*
X119477126Y-70494724D01*
X119477126Y-61356025D01*
X119366680Y-61088725D01*
X119162350Y-60884039D01*
X118895244Y-60773126D01*
X118606025Y-60772874D01*
X118338725Y-60883320D01*
X118134039Y-61087650D01*
X118023126Y-61354756D01*
X118022874Y-61643975D01*
X118133320Y-61911275D01*
X118337650Y-62115961D01*
X118604756Y-62226874D01*
X118893975Y-62227126D01*
X119161275Y-62116680D01*
X119365961Y-61912350D01*
X119476874Y-61645244D01*
X119477126Y-61356025D01*
X119477126Y-70494724D01*
X119384039Y-70587650D01*
X119273126Y-70854756D01*
X119272874Y-71143975D01*
X119367505Y-71373000D01*
X118477126Y-71373000D01*
X118477126Y-63856025D01*
X118366680Y-63588725D01*
X118162350Y-63384039D01*
X117895244Y-63273126D01*
X117606025Y-63272874D01*
X117338725Y-63383320D01*
X117134039Y-63587650D01*
X117023126Y-63854756D01*
X117023003Y-63994885D01*
X116977126Y-63948927D01*
X116977126Y-61356025D01*
X116866680Y-61088725D01*
X116662350Y-60884039D01*
X116395244Y-60773126D01*
X116106025Y-60772874D01*
X115838725Y-60883320D01*
X115634039Y-61087650D01*
X115523126Y-61354756D01*
X115522874Y-61643975D01*
X115633320Y-61911275D01*
X115837650Y-62115961D01*
X116104756Y-62226874D01*
X116393975Y-62227126D01*
X116661275Y-62116680D01*
X116865961Y-61912350D01*
X116976874Y-61645244D01*
X116977126Y-61356025D01*
X116977126Y-63948927D01*
X116912350Y-63884039D01*
X116645244Y-63773126D01*
X116356025Y-63772874D01*
X116088725Y-63883320D01*
X115884039Y-64087650D01*
X115773126Y-64354756D01*
X115772874Y-64643975D01*
X115883320Y-64911275D01*
X116087650Y-65115961D01*
X116354756Y-65226874D01*
X116643975Y-65227126D01*
X116911275Y-65116680D01*
X117115961Y-64912350D01*
X117226874Y-64645244D01*
X117226996Y-64505114D01*
X117337650Y-64615961D01*
X117604756Y-64726874D01*
X117893975Y-64727126D01*
X118161275Y-64616680D01*
X118365961Y-64412350D01*
X118476874Y-64145244D01*
X118477126Y-63856025D01*
X118477126Y-71373000D01*
X118227126Y-71373000D01*
X118227126Y-68856025D01*
X118116680Y-68588725D01*
X117912350Y-68384039D01*
X117645244Y-68273126D01*
X117356025Y-68272874D01*
X117227126Y-68326132D01*
X117227126Y-66856025D01*
X117116680Y-66588725D01*
X117028133Y-66500024D01*
X117115961Y-66412350D01*
X117226874Y-66145244D01*
X117227126Y-65856025D01*
X117116680Y-65588725D01*
X116912350Y-65384039D01*
X116645244Y-65273126D01*
X116356025Y-65272874D01*
X116088725Y-65383320D01*
X115884039Y-65587650D01*
X115773126Y-65854756D01*
X115772874Y-66143975D01*
X115883320Y-66411275D01*
X115971866Y-66499975D01*
X115884039Y-66587650D01*
X115773126Y-66854756D01*
X115772874Y-67143975D01*
X115883320Y-67411275D01*
X116087650Y-67615961D01*
X116354756Y-67726874D01*
X116643975Y-67727126D01*
X116911275Y-67616680D01*
X117115961Y-67412350D01*
X117226874Y-67145244D01*
X117227126Y-66856025D01*
X117227126Y-68326132D01*
X117216576Y-68330492D01*
X117116680Y-68088725D01*
X116912350Y-67884039D01*
X116645244Y-67773126D01*
X116356025Y-67772874D01*
X116088725Y-67883320D01*
X115884039Y-68087650D01*
X115773126Y-68354756D01*
X115772874Y-68643975D01*
X115883320Y-68911275D01*
X116087650Y-69115961D01*
X116354756Y-69226874D01*
X116643975Y-69227126D01*
X116783423Y-69169507D01*
X116883320Y-69411275D01*
X117087650Y-69615961D01*
X117354756Y-69726874D01*
X117643975Y-69727126D01*
X117911275Y-69616680D01*
X118115961Y-69412350D01*
X118226874Y-69145244D01*
X118227126Y-68856025D01*
X118227126Y-71373000D01*
X117130842Y-71373000D01*
X117116680Y-71338725D01*
X116912350Y-71134039D01*
X116645244Y-71023126D01*
X116356025Y-71022874D01*
X116088725Y-71133320D01*
X115884039Y-71337650D01*
X115869360Y-71373000D01*
X114477126Y-71373000D01*
X114477126Y-61356025D01*
X114366680Y-61088725D01*
X114162350Y-60884039D01*
X113895244Y-60773126D01*
X113606025Y-60772874D01*
X113338725Y-60883320D01*
X113134039Y-61087650D01*
X113023126Y-61354756D01*
X113022874Y-61643975D01*
X113133320Y-61911275D01*
X113337650Y-62115961D01*
X113604756Y-62226874D01*
X113893975Y-62227126D01*
X114161275Y-62116680D01*
X114365961Y-61912350D01*
X114476874Y-61645244D01*
X114477126Y-61356025D01*
X114477126Y-71373000D01*
X114227126Y-71373000D01*
X114227126Y-70356025D01*
X114227126Y-67106025D01*
X114116680Y-66838725D01*
X113912350Y-66634039D01*
X113645244Y-66523126D01*
X113356025Y-66522874D01*
X113088725Y-66633320D01*
X112906141Y-66815586D01*
X112976874Y-66645244D01*
X112977126Y-66356025D01*
X112906075Y-66184070D01*
X113087650Y-66365961D01*
X113354756Y-66476874D01*
X113643975Y-66477126D01*
X113911275Y-66366680D01*
X114115961Y-66162350D01*
X114226874Y-65895244D01*
X114227126Y-65606025D01*
X114116680Y-65338725D01*
X113912350Y-65134039D01*
X113645244Y-65023126D01*
X113356025Y-65022874D01*
X113088725Y-65133320D01*
X112884039Y-65337650D01*
X112773126Y-65604756D01*
X112772874Y-65893975D01*
X112843924Y-66065929D01*
X112662350Y-65884039D01*
X112395244Y-65773126D01*
X112106025Y-65772874D01*
X111977126Y-65826133D01*
X111977126Y-63356025D01*
X111977126Y-61356025D01*
X111866680Y-61088725D01*
X111662350Y-60884039D01*
X111395244Y-60773126D01*
X111106025Y-60772874D01*
X110838725Y-60883320D01*
X110634039Y-61087650D01*
X110523126Y-61354756D01*
X110522874Y-61643975D01*
X110633320Y-61911275D01*
X110837650Y-62115961D01*
X111104756Y-62226874D01*
X111393975Y-62227126D01*
X111661275Y-62116680D01*
X111865961Y-61912350D01*
X111976874Y-61645244D01*
X111977126Y-61356025D01*
X111977126Y-63356025D01*
X111866680Y-63088725D01*
X111662350Y-62884039D01*
X111395244Y-62773126D01*
X111106025Y-62772874D01*
X110838725Y-62883320D01*
X110634039Y-63087650D01*
X110523126Y-63354756D01*
X110522874Y-63643975D01*
X110633320Y-63911275D01*
X110837650Y-64115961D01*
X111104756Y-64226874D01*
X111393975Y-64227126D01*
X111661275Y-64116680D01*
X111865961Y-63912350D01*
X111976874Y-63645244D01*
X111977126Y-63356025D01*
X111977126Y-65826133D01*
X111838725Y-65883320D01*
X111634039Y-66087650D01*
X111523126Y-66354756D01*
X111522874Y-66643975D01*
X111633320Y-66911275D01*
X111837650Y-67115961D01*
X112104756Y-67226874D01*
X112393975Y-67227126D01*
X112661275Y-67116680D01*
X112843858Y-66934413D01*
X112773126Y-67104756D01*
X112772874Y-67393975D01*
X112883320Y-67661275D01*
X113087650Y-67865961D01*
X113354756Y-67976874D01*
X113643975Y-67977126D01*
X113911275Y-67866680D01*
X114115961Y-67662350D01*
X114226874Y-67395244D01*
X114227126Y-67106025D01*
X114227126Y-70356025D01*
X114116680Y-70088725D01*
X113912350Y-69884039D01*
X113645244Y-69773126D01*
X113356025Y-69772874D01*
X113088725Y-69883320D01*
X112884039Y-70087650D01*
X112773126Y-70354756D01*
X112772874Y-70643975D01*
X112883320Y-70911275D01*
X113087650Y-71115961D01*
X113354756Y-71226874D01*
X113643975Y-71227126D01*
X113911275Y-71116680D01*
X114115961Y-70912350D01*
X114226874Y-70645244D01*
X114227126Y-70356025D01*
X114227126Y-71373000D01*
X114135765Y-71373000D01*
X113895244Y-71273126D01*
X113606025Y-71272874D01*
X113363701Y-71373000D01*
X111882300Y-71373000D01*
X111976874Y-71145244D01*
X111977126Y-70856025D01*
X111866680Y-70588725D01*
X111662350Y-70384039D01*
X111395244Y-70273126D01*
X111106025Y-70272874D01*
X110838725Y-70383320D01*
X110634039Y-70587650D01*
X110523126Y-70854756D01*
X110522874Y-71143975D01*
X110617505Y-71373000D01*
X109727126Y-71373000D01*
X109727126Y-67856025D01*
X109616680Y-67588725D01*
X109412350Y-67384039D01*
X109145244Y-67273126D01*
X108856025Y-67272874D01*
X108588725Y-67383320D01*
X108384039Y-67587650D01*
X108273126Y-67854756D01*
X108272874Y-68143975D01*
X108383320Y-68411275D01*
X108587650Y-68615961D01*
X108854756Y-68726874D01*
X109143975Y-68727126D01*
X109411275Y-68616680D01*
X109615961Y-68412350D01*
X109726874Y-68145244D01*
X109727126Y-67856025D01*
X109727126Y-71373000D01*
X100127000Y-71373000D01*
X100127000Y-65627000D01*
X102447395Y-65627000D01*
X102873000Y-66052605D01*
X102873000Y-67627000D01*
X106052605Y-67627000D01*
X108952645Y-64726959D01*
X109143975Y-64727126D01*
X109411275Y-64616680D01*
X109615961Y-64412350D01*
X109726874Y-64145244D01*
X109727041Y-63952563D01*
X110127000Y-63552605D01*
X110127000Y-60627000D01*
X131373000Y-60627000D01*
X131373000Y-67627000D01*
X134373000Y-67627000D01*
X134373000Y-71373000D01*
X134373000Y-71373000D01*
G37*
X134373000Y-71373000D02*
X127727126Y-71373000D01*
X127727126Y-66856025D01*
X127727126Y-62856025D01*
X127616680Y-62588725D01*
X127412350Y-62384039D01*
X127145244Y-62273126D01*
X126856025Y-62272874D01*
X126588725Y-62383320D01*
X126384039Y-62587650D01*
X126273126Y-62854756D01*
X126272874Y-63143975D01*
X126383320Y-63411275D01*
X126587650Y-63615961D01*
X126854756Y-63726874D01*
X127143975Y-63727126D01*
X127411275Y-63616680D01*
X127615961Y-63412350D01*
X127726874Y-63145244D01*
X127727126Y-62856025D01*
X127727126Y-66856025D01*
X127616680Y-66588725D01*
X127412350Y-66384039D01*
X127145244Y-66273126D01*
X126856025Y-66272874D01*
X126588725Y-66383320D01*
X126384039Y-66587650D01*
X126273126Y-66854756D01*
X126272874Y-67143975D01*
X126383320Y-67411275D01*
X126587650Y-67615961D01*
X126854756Y-67726874D01*
X127143975Y-67727126D01*
X127411275Y-67616680D01*
X127615961Y-67412350D01*
X127726874Y-67145244D01*
X127727126Y-66856025D01*
X127727126Y-71373000D01*
X125727111Y-71373000D01*
X125727126Y-71356025D01*
X125727126Y-68856025D01*
X125727126Y-66356025D01*
X125727126Y-63856025D01*
X125727126Y-61356025D01*
X125616680Y-61088725D01*
X125412350Y-60884039D01*
X125145244Y-60773126D01*
X124856025Y-60772874D01*
X124588725Y-60883320D01*
X124384039Y-61087650D01*
X124273126Y-61354756D01*
X124272874Y-61643975D01*
X124383320Y-61911275D01*
X124587650Y-62115961D01*
X124854756Y-62226874D01*
X125143975Y-62227126D01*
X125411275Y-62116680D01*
X125615961Y-61912350D01*
X125726874Y-61645244D01*
X125727126Y-61356025D01*
X125727126Y-63856025D01*
X125616680Y-63588725D01*
X125412350Y-63384039D01*
X125145244Y-63273126D01*
X124856025Y-63272874D01*
X124588725Y-63383320D01*
X124384039Y-63587650D01*
X124273126Y-63854756D01*
X124272874Y-64143975D01*
X124383320Y-64411275D01*
X124587650Y-64615961D01*
X124854756Y-64726874D01*
X125143975Y-64727126D01*
X125411275Y-64616680D01*
X125615961Y-64412350D01*
X125726874Y-64145244D01*
X125727126Y-63856025D01*
X125727126Y-66356025D01*
X125616680Y-66088725D01*
X125412350Y-65884039D01*
X125145244Y-65773126D01*
X124856025Y-65772874D01*
X124588725Y-65883320D01*
X124384039Y-66087650D01*
X124273126Y-66354756D01*
X124272874Y-66643975D01*
X124383320Y-66911275D01*
X124587650Y-67115961D01*
X124854756Y-67226874D01*
X125143975Y-67227126D01*
X125411275Y-67116680D01*
X125615961Y-66912350D01*
X125726874Y-66645244D01*
X125727126Y-66356025D01*
X125727126Y-68856025D01*
X125616680Y-68588725D01*
X125412350Y-68384039D01*
X125145244Y-68273126D01*
X124856025Y-68272874D01*
X124588725Y-68383320D01*
X124384039Y-68587650D01*
X124273126Y-68854756D01*
X124272874Y-69143975D01*
X124383320Y-69411275D01*
X124587650Y-69615961D01*
X124854756Y-69726874D01*
X125143975Y-69727126D01*
X125411275Y-69616680D01*
X125615961Y-69412350D01*
X125726874Y-69145244D01*
X125727126Y-68856025D01*
X125727126Y-71356025D01*
X125616680Y-71088725D01*
X125412350Y-70884039D01*
X125145244Y-70773126D01*
X124856025Y-70772874D01*
X124588725Y-70883320D01*
X124384039Y-71087650D01*
X124273126Y-71354756D01*
X124273110Y-71373000D01*
X124227126Y-71373000D01*
X124227126Y-66356025D01*
X124116680Y-66088725D01*
X123912350Y-65884039D01*
X123645244Y-65773126D01*
X123356025Y-65772874D01*
X123088725Y-65883320D01*
X123000024Y-65971866D01*
X122912350Y-65884039D01*
X122645244Y-65773126D01*
X122356025Y-65772874D01*
X122088725Y-65883320D01*
X121977126Y-65994724D01*
X121977126Y-61356025D01*
X121866680Y-61088725D01*
X121662350Y-60884039D01*
X121395244Y-60773126D01*
X121106025Y-60772874D01*
X120838725Y-60883320D01*
X120634039Y-61087650D01*
X120523126Y-61354756D01*
X120522874Y-61643975D01*
X120633320Y-61911275D01*
X120837650Y-62115961D01*
X121104756Y-62226874D01*
X121393975Y-62227126D01*
X121661275Y-62116680D01*
X121865961Y-61912350D01*
X121976874Y-61645244D01*
X121977126Y-61356025D01*
X121977126Y-65994724D01*
X121884039Y-66087650D01*
X121773126Y-66354756D01*
X121772874Y-66643975D01*
X121883320Y-66911275D01*
X122087650Y-67115961D01*
X122354756Y-67226874D01*
X122643975Y-67227126D01*
X122911275Y-67116680D01*
X122999975Y-67028133D01*
X123087650Y-67115961D01*
X123354756Y-67226874D01*
X123643975Y-67227126D01*
X123911275Y-67116680D01*
X124115961Y-66912350D01*
X124226874Y-66645244D01*
X124227126Y-66356025D01*
X124227126Y-71373000D01*
X123385765Y-71373000D01*
X123145244Y-71273126D01*
X122856025Y-71272874D01*
X122727126Y-71326133D01*
X122727126Y-69106025D01*
X122616680Y-68838725D01*
X122412350Y-68634039D01*
X122145244Y-68523126D01*
X121856025Y-68522874D01*
X121727126Y-68576133D01*
X121727126Y-63606025D01*
X121616680Y-63338725D01*
X121412350Y-63134039D01*
X121145244Y-63023126D01*
X120856025Y-63022874D01*
X120588725Y-63133320D01*
X120384039Y-63337650D01*
X120273126Y-63604756D01*
X120272874Y-63893975D01*
X120383320Y-64161275D01*
X120587650Y-64365961D01*
X120854756Y-64476874D01*
X121143975Y-64477126D01*
X121411275Y-64366680D01*
X121615961Y-64162350D01*
X121726874Y-63895244D01*
X121727126Y-63606025D01*
X121727126Y-68576133D01*
X121588725Y-68633320D01*
X121384039Y-68837650D01*
X121273126Y-69104756D01*
X121272874Y-69393975D01*
X121383320Y-69661275D01*
X121587650Y-69865961D01*
X121854756Y-69976874D01*
X122143975Y-69977126D01*
X122411275Y-69866680D01*
X122615961Y-69662350D01*
X122726874Y-69395244D01*
X122727126Y-69106025D01*
X122727126Y-71326133D01*
X122613701Y-71373000D01*
X120632300Y-71373000D01*
X120726874Y-71145244D01*
X120727126Y-70856025D01*
X120616680Y-70588725D01*
X120412350Y-70384039D01*
X120145244Y-70273126D01*
X119856025Y-70272874D01*
X119588725Y-70383320D01*
X119477126Y-70494724D01*
X119477126Y-61356025D01*
X119366680Y-61088725D01*
X119162350Y-60884039D01*
X118895244Y-60773126D01*
X118606025Y-60772874D01*
X118338725Y-60883320D01*
X118134039Y-61087650D01*
X118023126Y-61354756D01*
X118022874Y-61643975D01*
X118133320Y-61911275D01*
X118337650Y-62115961D01*
X118604756Y-62226874D01*
X118893975Y-62227126D01*
X119161275Y-62116680D01*
X119365961Y-61912350D01*
X119476874Y-61645244D01*
X119477126Y-61356025D01*
X119477126Y-70494724D01*
X119384039Y-70587650D01*
X119273126Y-70854756D01*
X119272874Y-71143975D01*
X119367505Y-71373000D01*
X118477126Y-71373000D01*
X118477126Y-63856025D01*
X118366680Y-63588725D01*
X118162350Y-63384039D01*
X117895244Y-63273126D01*
X117606025Y-63272874D01*
X117338725Y-63383320D01*
X117134039Y-63587650D01*
X117023126Y-63854756D01*
X117023003Y-63994885D01*
X116977126Y-63948927D01*
X116977126Y-61356025D01*
X116866680Y-61088725D01*
X116662350Y-60884039D01*
X116395244Y-60773126D01*
X116106025Y-60772874D01*
X115838725Y-60883320D01*
X115634039Y-61087650D01*
X115523126Y-61354756D01*
X115522874Y-61643975D01*
X115633320Y-61911275D01*
X115837650Y-62115961D01*
X116104756Y-62226874D01*
X116393975Y-62227126D01*
X116661275Y-62116680D01*
X116865961Y-61912350D01*
X116976874Y-61645244D01*
X116977126Y-61356025D01*
X116977126Y-63948927D01*
X116912350Y-63884039D01*
X116645244Y-63773126D01*
X116356025Y-63772874D01*
X116088725Y-63883320D01*
X115884039Y-64087650D01*
X115773126Y-64354756D01*
X115772874Y-64643975D01*
X115883320Y-64911275D01*
X116087650Y-65115961D01*
X116354756Y-65226874D01*
X116643975Y-65227126D01*
X116911275Y-65116680D01*
X117115961Y-64912350D01*
X117226874Y-64645244D01*
X117226996Y-64505114D01*
X117337650Y-64615961D01*
X117604756Y-64726874D01*
X117893975Y-64727126D01*
X118161275Y-64616680D01*
X118365961Y-64412350D01*
X118476874Y-64145244D01*
X118477126Y-63856025D01*
X118477126Y-71373000D01*
X118227126Y-71373000D01*
X118227126Y-68856025D01*
X118116680Y-68588725D01*
X117912350Y-68384039D01*
X117645244Y-68273126D01*
X117356025Y-68272874D01*
X117227126Y-68326132D01*
X117227126Y-66856025D01*
X117116680Y-66588725D01*
X117028133Y-66500024D01*
X117115961Y-66412350D01*
X117226874Y-66145244D01*
X117227126Y-65856025D01*
X117116680Y-65588725D01*
X116912350Y-65384039D01*
X116645244Y-65273126D01*
X116356025Y-65272874D01*
X116088725Y-65383320D01*
X115884039Y-65587650D01*
X115773126Y-65854756D01*
X115772874Y-66143975D01*
X115883320Y-66411275D01*
X115971866Y-66499975D01*
X115884039Y-66587650D01*
X115773126Y-66854756D01*
X115772874Y-67143975D01*
X115883320Y-67411275D01*
X116087650Y-67615961D01*
X116354756Y-67726874D01*
X116643975Y-67727126D01*
X116911275Y-67616680D01*
X117115961Y-67412350D01*
X117226874Y-67145244D01*
X117227126Y-66856025D01*
X117227126Y-68326132D01*
X117216576Y-68330492D01*
X117116680Y-68088725D01*
X116912350Y-67884039D01*
X116645244Y-67773126D01*
X116356025Y-67772874D01*
X116088725Y-67883320D01*
X115884039Y-68087650D01*
X115773126Y-68354756D01*
X115772874Y-68643975D01*
X115883320Y-68911275D01*
X116087650Y-69115961D01*
X116354756Y-69226874D01*
X116643975Y-69227126D01*
X116783423Y-69169507D01*
X116883320Y-69411275D01*
X117087650Y-69615961D01*
X117354756Y-69726874D01*
X117643975Y-69727126D01*
X117911275Y-69616680D01*
X118115961Y-69412350D01*
X118226874Y-69145244D01*
X118227126Y-68856025D01*
X118227126Y-71373000D01*
X117130842Y-71373000D01*
X117116680Y-71338725D01*
X116912350Y-71134039D01*
X116645244Y-71023126D01*
X116356025Y-71022874D01*
X116088725Y-71133320D01*
X115884039Y-71337650D01*
X115869360Y-71373000D01*
X114477126Y-71373000D01*
X114477126Y-61356025D01*
X114366680Y-61088725D01*
X114162350Y-60884039D01*
X113895244Y-60773126D01*
X113606025Y-60772874D01*
X113338725Y-60883320D01*
X113134039Y-61087650D01*
X113023126Y-61354756D01*
X113022874Y-61643975D01*
X113133320Y-61911275D01*
X113337650Y-62115961D01*
X113604756Y-62226874D01*
X113893975Y-62227126D01*
X114161275Y-62116680D01*
X114365961Y-61912350D01*
X114476874Y-61645244D01*
X114477126Y-61356025D01*
X114477126Y-71373000D01*
X114227126Y-71373000D01*
X114227126Y-70356025D01*
X114227126Y-67106025D01*
X114116680Y-66838725D01*
X113912350Y-66634039D01*
X113645244Y-66523126D01*
X113356025Y-66522874D01*
X113088725Y-66633320D01*
X112906141Y-66815586D01*
X112976874Y-66645244D01*
X112977126Y-66356025D01*
X112906075Y-66184070D01*
X113087650Y-66365961D01*
X113354756Y-66476874D01*
X113643975Y-66477126D01*
X113911275Y-66366680D01*
X114115961Y-66162350D01*
X114226874Y-65895244D01*
X114227126Y-65606025D01*
X114116680Y-65338725D01*
X113912350Y-65134039D01*
X113645244Y-65023126D01*
X113356025Y-65022874D01*
X113088725Y-65133320D01*
X112884039Y-65337650D01*
X112773126Y-65604756D01*
X112772874Y-65893975D01*
X112843924Y-66065929D01*
X112662350Y-65884039D01*
X112395244Y-65773126D01*
X112106025Y-65772874D01*
X111977126Y-65826133D01*
X111977126Y-63356025D01*
X111977126Y-61356025D01*
X111866680Y-61088725D01*
X111662350Y-60884039D01*
X111395244Y-60773126D01*
X111106025Y-60772874D01*
X110838725Y-60883320D01*
X110634039Y-61087650D01*
X110523126Y-61354756D01*
X110522874Y-61643975D01*
X110633320Y-61911275D01*
X110837650Y-62115961D01*
X111104756Y-62226874D01*
X111393975Y-62227126D01*
X111661275Y-62116680D01*
X111865961Y-61912350D01*
X111976874Y-61645244D01*
X111977126Y-61356025D01*
X111977126Y-63356025D01*
X111866680Y-63088725D01*
X111662350Y-62884039D01*
X111395244Y-62773126D01*
X111106025Y-62772874D01*
X110838725Y-62883320D01*
X110634039Y-63087650D01*
X110523126Y-63354756D01*
X110522874Y-63643975D01*
X110633320Y-63911275D01*
X110837650Y-64115961D01*
X111104756Y-64226874D01*
X111393975Y-64227126D01*
X111661275Y-64116680D01*
X111865961Y-63912350D01*
X111976874Y-63645244D01*
X111977126Y-63356025D01*
X111977126Y-65826133D01*
X111838725Y-65883320D01*
X111634039Y-66087650D01*
X111523126Y-66354756D01*
X111522874Y-66643975D01*
X111633320Y-66911275D01*
X111837650Y-67115961D01*
X112104756Y-67226874D01*
X112393975Y-67227126D01*
X112661275Y-67116680D01*
X112843858Y-66934413D01*
X112773126Y-67104756D01*
X112772874Y-67393975D01*
X112883320Y-67661275D01*
X113087650Y-67865961D01*
X113354756Y-67976874D01*
X113643975Y-67977126D01*
X113911275Y-67866680D01*
X114115961Y-67662350D01*
X114226874Y-67395244D01*
X114227126Y-67106025D01*
X114227126Y-70356025D01*
X114116680Y-70088725D01*
X113912350Y-69884039D01*
X113645244Y-69773126D01*
X113356025Y-69772874D01*
X113088725Y-69883320D01*
X112884039Y-70087650D01*
X112773126Y-70354756D01*
X112772874Y-70643975D01*
X112883320Y-70911275D01*
X113087650Y-71115961D01*
X113354756Y-71226874D01*
X113643975Y-71227126D01*
X113911275Y-71116680D01*
X114115961Y-70912350D01*
X114226874Y-70645244D01*
X114227126Y-70356025D01*
X114227126Y-71373000D01*
X114135765Y-71373000D01*
X113895244Y-71273126D01*
X113606025Y-71272874D01*
X113363701Y-71373000D01*
X111882300Y-71373000D01*
X111976874Y-71145244D01*
X111977126Y-70856025D01*
X111866680Y-70588725D01*
X111662350Y-70384039D01*
X111395244Y-70273126D01*
X111106025Y-70272874D01*
X110838725Y-70383320D01*
X110634039Y-70587650D01*
X110523126Y-70854756D01*
X110522874Y-71143975D01*
X110617505Y-71373000D01*
X109727126Y-71373000D01*
X109727126Y-67856025D01*
X109616680Y-67588725D01*
X109412350Y-67384039D01*
X109145244Y-67273126D01*
X108856025Y-67272874D01*
X108588725Y-67383320D01*
X108384039Y-67587650D01*
X108273126Y-67854756D01*
X108272874Y-68143975D01*
X108383320Y-68411275D01*
X108587650Y-68615961D01*
X108854756Y-68726874D01*
X109143975Y-68727126D01*
X109411275Y-68616680D01*
X109615961Y-68412350D01*
X109726874Y-68145244D01*
X109727126Y-67856025D01*
X109727126Y-71373000D01*
X100127000Y-71373000D01*
X100127000Y-65627000D01*
X102447395Y-65627000D01*
X102873000Y-66052605D01*
X102873000Y-67627000D01*
X106052605Y-67627000D01*
X108952645Y-64726959D01*
X109143975Y-64727126D01*
X109411275Y-64616680D01*
X109615961Y-64412350D01*
X109726874Y-64145244D01*
X109727041Y-63952563D01*
X110127000Y-63552605D01*
X110127000Y-60627000D01*
X131373000Y-60627000D01*
X131373000Y-67627000D01*
X134373000Y-67627000D01*
X134373000Y-71373000D01*
G36*
X134373000Y-88873000D02*
X133600758Y-88873000D01*
X133600758Y-85730000D01*
X133510251Y-85274989D01*
X133252508Y-84889250D01*
X132870063Y-84633708D01*
X132911275Y-84616680D01*
X133115961Y-84412350D01*
X133226874Y-84145244D01*
X133227126Y-83856025D01*
X133227126Y-75856025D01*
X133116680Y-75588725D01*
X132912350Y-75384039D01*
X132645244Y-75273126D01*
X132356025Y-75272874D01*
X132088725Y-75383320D01*
X131884039Y-75587650D01*
X131773126Y-75854756D01*
X131772874Y-76143975D01*
X131883320Y-76411275D01*
X132087650Y-76615961D01*
X132354756Y-76726874D01*
X132643975Y-76727126D01*
X132911275Y-76616680D01*
X133115961Y-76412350D01*
X133226874Y-76145244D01*
X133227126Y-75856025D01*
X133227126Y-83856025D01*
X133116680Y-83588725D01*
X132912350Y-83384039D01*
X132645244Y-83273126D01*
X132356025Y-83272874D01*
X132088725Y-83383320D01*
X131884039Y-83587650D01*
X131773126Y-83854756D01*
X131772874Y-84143975D01*
X131883320Y-84411275D01*
X132012819Y-84541000D01*
X131588242Y-84541000D01*
X131461915Y-84566127D01*
X131615961Y-84412350D01*
X131726874Y-84145244D01*
X131727126Y-83856025D01*
X131727126Y-75856025D01*
X131616680Y-75588725D01*
X131412350Y-75384039D01*
X131145244Y-75273126D01*
X130856025Y-75272874D01*
X130588725Y-75383320D01*
X130384039Y-75587650D01*
X130273126Y-75854756D01*
X130272874Y-76143975D01*
X130383320Y-76411275D01*
X130587650Y-76615961D01*
X130854756Y-76726874D01*
X131143975Y-76727126D01*
X131411275Y-76616680D01*
X131615961Y-76412350D01*
X131726874Y-76145244D01*
X131727126Y-75856025D01*
X131727126Y-83856025D01*
X131616680Y-83588725D01*
X131412350Y-83384039D01*
X131145244Y-83273126D01*
X130856025Y-83272874D01*
X130588725Y-83383320D01*
X130384039Y-83587650D01*
X130273126Y-83854756D01*
X130272874Y-84143975D01*
X130383320Y-84411275D01*
X130587650Y-84615961D01*
X130854756Y-84726874D01*
X130990327Y-84726992D01*
X130747492Y-84889250D01*
X130489749Y-85274989D01*
X130399242Y-85730000D01*
X130489749Y-86185011D01*
X130747492Y-86570750D01*
X131133231Y-86828493D01*
X131588242Y-86919000D01*
X132411758Y-86919000D01*
X132866769Y-86828493D01*
X133252508Y-86570750D01*
X133510251Y-86185011D01*
X133600758Y-85730000D01*
X133600758Y-88873000D01*
X133570000Y-88873000D01*
X133570000Y-87423065D01*
X133504993Y-87266124D01*
X133384876Y-87146007D01*
X133227936Y-87081000D01*
X133058065Y-87081000D01*
X130772065Y-87081000D01*
X130615124Y-87146007D01*
X130495007Y-87266124D01*
X130430000Y-87423064D01*
X130430000Y-87592935D01*
X130430000Y-88873000D01*
X130227126Y-88873000D01*
X130227126Y-83856025D01*
X130227126Y-75856025D01*
X130116680Y-75588725D01*
X129912350Y-75384039D01*
X129645244Y-75273126D01*
X129356025Y-75272874D01*
X129088725Y-75383320D01*
X128884039Y-75587650D01*
X128773126Y-75854756D01*
X128772874Y-76143975D01*
X128883320Y-76411275D01*
X129087650Y-76615961D01*
X129354756Y-76726874D01*
X129643975Y-76727126D01*
X129911275Y-76616680D01*
X130115961Y-76412350D01*
X130226874Y-76145244D01*
X130227126Y-75856025D01*
X130227126Y-83856025D01*
X130116680Y-83588725D01*
X129912350Y-83384039D01*
X129727126Y-83307126D01*
X129727126Y-79856025D01*
X129616680Y-79588725D01*
X129412350Y-79384039D01*
X129145244Y-79273126D01*
X128856025Y-79272874D01*
X128727126Y-79326133D01*
X128727126Y-75856025D01*
X128616680Y-75588725D01*
X128412350Y-75384039D01*
X128145244Y-75273126D01*
X127856025Y-75272874D01*
X127588725Y-75383320D01*
X127384039Y-75587650D01*
X127273126Y-75854756D01*
X127272874Y-76143975D01*
X127383320Y-76411275D01*
X127587650Y-76615961D01*
X127854756Y-76726874D01*
X128143975Y-76727126D01*
X128411275Y-76616680D01*
X128615961Y-76412350D01*
X128726874Y-76145244D01*
X128727126Y-75856025D01*
X128727126Y-79326133D01*
X128588725Y-79383320D01*
X128384039Y-79587650D01*
X128273126Y-79854756D01*
X128272874Y-80143975D01*
X128383320Y-80411275D01*
X128587650Y-80615961D01*
X128854756Y-80726874D01*
X129143975Y-80727126D01*
X129411275Y-80616680D01*
X129615961Y-80412350D01*
X129726874Y-80145244D01*
X129727126Y-79856025D01*
X129727126Y-83307126D01*
X129645244Y-83273126D01*
X129356025Y-83272874D01*
X129088725Y-83383320D01*
X128884039Y-83587650D01*
X128773126Y-83854756D01*
X128772874Y-84143975D01*
X128883320Y-84411275D01*
X129087650Y-84615961D01*
X129354756Y-84726874D01*
X129643975Y-84727126D01*
X129911275Y-84616680D01*
X130115961Y-84412350D01*
X130226874Y-84145244D01*
X130227126Y-83856025D01*
X130227126Y-88873000D01*
X128727126Y-88873000D01*
X128727126Y-86356025D01*
X128727126Y-83856025D01*
X128616680Y-83588725D01*
X128412350Y-83384039D01*
X128145244Y-83273126D01*
X127856025Y-83272874D01*
X127588725Y-83383320D01*
X127384039Y-83587650D01*
X127273126Y-83854756D01*
X127272874Y-84143975D01*
X127383320Y-84411275D01*
X127587650Y-84615961D01*
X127854756Y-84726874D01*
X128143975Y-84727126D01*
X128411275Y-84616680D01*
X128615961Y-84412350D01*
X128726874Y-84145244D01*
X128727126Y-83856025D01*
X128727126Y-86356025D01*
X128616680Y-86088725D01*
X128412350Y-85884039D01*
X128145244Y-85773126D01*
X127856025Y-85772874D01*
X127588725Y-85883320D01*
X127384039Y-86087650D01*
X127273126Y-86354756D01*
X127272874Y-86643975D01*
X127383320Y-86911275D01*
X127587650Y-87115961D01*
X127854756Y-87226874D01*
X128143975Y-87227126D01*
X128411275Y-87116680D01*
X128615961Y-86912350D01*
X128726874Y-86645244D01*
X128727126Y-86356025D01*
X128727126Y-88873000D01*
X125727126Y-88873000D01*
X125727126Y-86356025D01*
X125727126Y-83856025D01*
X125727126Y-81356025D01*
X125727126Y-78856025D01*
X125727126Y-76356025D01*
X125727126Y-73856025D01*
X125616680Y-73588725D01*
X125412350Y-73384039D01*
X125145244Y-73273126D01*
X124856025Y-73272874D01*
X124588725Y-73383320D01*
X124384039Y-73587650D01*
X124273126Y-73854756D01*
X124272874Y-74143975D01*
X124383320Y-74411275D01*
X124587650Y-74615961D01*
X124854756Y-74726874D01*
X125143975Y-74727126D01*
X125411275Y-74616680D01*
X125615961Y-74412350D01*
X125726874Y-74145244D01*
X125727126Y-73856025D01*
X125727126Y-76356025D01*
X125616680Y-76088725D01*
X125412350Y-75884039D01*
X125145244Y-75773126D01*
X124856025Y-75772874D01*
X124588725Y-75883320D01*
X124384039Y-76087650D01*
X124327126Y-76224710D01*
X124327126Y-75856025D01*
X124216680Y-75588725D01*
X124012350Y-75384039D01*
X123745244Y-75273126D01*
X123727126Y-75273110D01*
X123727126Y-74106025D01*
X123616680Y-73838725D01*
X123412350Y-73634039D01*
X123145244Y-73523126D01*
X122856025Y-73522874D01*
X122588725Y-73633320D01*
X122384039Y-73837650D01*
X122273126Y-74104756D01*
X122272874Y-74393975D01*
X122383320Y-74661275D01*
X122587650Y-74865961D01*
X122854756Y-74976874D01*
X123143975Y-74977126D01*
X123411275Y-74866680D01*
X123615961Y-74662350D01*
X123726874Y-74395244D01*
X123727126Y-74106025D01*
X123727126Y-75273110D01*
X123456025Y-75272874D01*
X123188725Y-75383320D01*
X122999850Y-75571866D01*
X122812350Y-75384039D01*
X122545244Y-75273126D01*
X122256025Y-75272874D01*
X121988725Y-75383320D01*
X121784039Y-75587650D01*
X121673126Y-75854756D01*
X121672874Y-76143975D01*
X121783320Y-76411275D01*
X121987650Y-76615961D01*
X122254756Y-76726874D01*
X122272888Y-76726889D01*
X122272874Y-76743975D01*
X122383320Y-77011275D01*
X122587650Y-77215961D01*
X122854756Y-77326874D01*
X123143975Y-77327126D01*
X123411275Y-77216680D01*
X123615961Y-77012350D01*
X123726874Y-76745244D01*
X123726889Y-76727111D01*
X123743975Y-76727126D01*
X124011275Y-76616680D01*
X124215961Y-76412350D01*
X124326874Y-76145244D01*
X124327126Y-75856025D01*
X124327126Y-76224710D01*
X124273126Y-76354756D01*
X124272874Y-76643975D01*
X124383320Y-76911275D01*
X124587650Y-77115961D01*
X124854756Y-77226874D01*
X125143975Y-77227126D01*
X125411275Y-77116680D01*
X125615961Y-76912350D01*
X125726874Y-76645244D01*
X125727126Y-76356025D01*
X125727126Y-78856025D01*
X125616680Y-78588725D01*
X125412350Y-78384039D01*
X125145244Y-78273126D01*
X124856025Y-78272874D01*
X124588725Y-78383320D01*
X124384039Y-78587650D01*
X124273126Y-78854756D01*
X124272874Y-79143975D01*
X124383320Y-79411275D01*
X124587650Y-79615961D01*
X124854756Y-79726874D01*
X125143975Y-79727126D01*
X125411275Y-79616680D01*
X125615961Y-79412350D01*
X125726874Y-79145244D01*
X125727126Y-78856025D01*
X125727126Y-81356025D01*
X125616680Y-81088725D01*
X125412350Y-80884039D01*
X125145244Y-80773126D01*
X124856025Y-80772874D01*
X124588725Y-80883320D01*
X124384039Y-81087650D01*
X124273126Y-81354756D01*
X124272874Y-81643975D01*
X124383320Y-81911275D01*
X124587650Y-82115961D01*
X124854756Y-82226874D01*
X125143975Y-82227126D01*
X125411275Y-82116680D01*
X125615961Y-81912350D01*
X125726874Y-81645244D01*
X125727126Y-81356025D01*
X125727126Y-83856025D01*
X125616680Y-83588725D01*
X125412350Y-83384039D01*
X125145244Y-83273126D01*
X124856025Y-83272874D01*
X124588725Y-83383320D01*
X124384039Y-83587650D01*
X124273126Y-83854756D01*
X124272874Y-84143975D01*
X124383320Y-84411275D01*
X124587650Y-84615961D01*
X124854756Y-84726874D01*
X125143975Y-84727126D01*
X125411275Y-84616680D01*
X125615961Y-84412350D01*
X125726874Y-84145244D01*
X125727126Y-83856025D01*
X125727126Y-86356025D01*
X125616680Y-86088725D01*
X125412350Y-85884039D01*
X125145244Y-85773126D01*
X124856025Y-85772874D01*
X124588725Y-85883320D01*
X124384039Y-86087650D01*
X124273126Y-86354756D01*
X124272874Y-86643975D01*
X124383320Y-86911275D01*
X124587650Y-87115961D01*
X124854756Y-87226874D01*
X125143975Y-87227126D01*
X125411275Y-87116680D01*
X125615961Y-86912350D01*
X125726874Y-86645244D01*
X125727126Y-86356025D01*
X125727126Y-88873000D01*
X123727126Y-88873000D01*
X123727126Y-78356025D01*
X123616680Y-78088725D01*
X123412350Y-77884039D01*
X123145244Y-77773126D01*
X122856025Y-77772874D01*
X122588725Y-77883320D01*
X122384039Y-78087650D01*
X122273126Y-78354756D01*
X122272874Y-78643975D01*
X122383320Y-78911275D01*
X122587650Y-79115961D01*
X122854756Y-79226874D01*
X123143975Y-79227126D01*
X123411275Y-79116680D01*
X123615961Y-78912350D01*
X123726874Y-78645244D01*
X123727126Y-78356025D01*
X123727126Y-88873000D01*
X123227126Y-88873000D01*
X123227126Y-87606025D01*
X123116680Y-87338725D01*
X122977126Y-87198927D01*
X122977126Y-84356025D01*
X122866680Y-84088725D01*
X122662350Y-83884039D01*
X122395244Y-83773126D01*
X122106025Y-83772874D01*
X121977126Y-83826133D01*
X121977126Y-77106025D01*
X121866680Y-76838725D01*
X121662350Y-76634039D01*
X121419576Y-76533229D01*
X121476874Y-76395244D01*
X121477126Y-76106025D01*
X121366680Y-75838725D01*
X121162350Y-75634039D01*
X120895244Y-75523126D01*
X120606025Y-75522874D01*
X120338725Y-75633320D01*
X120134039Y-75837650D01*
X120023126Y-76104756D01*
X120022874Y-76393975D01*
X120133320Y-76661275D01*
X120337650Y-76865961D01*
X120580423Y-76966770D01*
X120523126Y-77104756D01*
X120522874Y-77393975D01*
X120633320Y-77661275D01*
X120837650Y-77865961D01*
X121104756Y-77976874D01*
X121393975Y-77977126D01*
X121661275Y-77866680D01*
X121865961Y-77662350D01*
X121976874Y-77395244D01*
X121977126Y-77106025D01*
X121977126Y-83826133D01*
X121838725Y-83883320D01*
X121634039Y-84087650D01*
X121523126Y-84354756D01*
X121522874Y-84643975D01*
X121633320Y-84911275D01*
X121837650Y-85115961D01*
X122104756Y-85226874D01*
X122393975Y-85227126D01*
X122661275Y-85116680D01*
X122865961Y-84912350D01*
X122976874Y-84645244D01*
X122977126Y-84356025D01*
X122977126Y-87198927D01*
X122912350Y-87134039D01*
X122645244Y-87023126D01*
X122356025Y-87022874D01*
X122088725Y-87133320D01*
X121884039Y-87337650D01*
X121773126Y-87604756D01*
X121772874Y-87893975D01*
X121883320Y-88161275D01*
X122087650Y-88365961D01*
X122354756Y-88476874D01*
X122643975Y-88477126D01*
X122911275Y-88366680D01*
X123115961Y-88162350D01*
X123226874Y-87895244D01*
X123227126Y-87606025D01*
X123227126Y-88873000D01*
X120727126Y-88873000D01*
X120727126Y-87606025D01*
X120616680Y-87338725D01*
X120412350Y-87134039D01*
X120145244Y-87023126D01*
X119856025Y-87022874D01*
X119588725Y-87133320D01*
X119477126Y-87244724D01*
X119477126Y-76106025D01*
X119366680Y-75838725D01*
X119162350Y-75634039D01*
X118895244Y-75523126D01*
X118606025Y-75522874D01*
X118338725Y-75633320D01*
X118134039Y-75837650D01*
X118023126Y-76104756D01*
X118022874Y-76393975D01*
X118133320Y-76661275D01*
X118337650Y-76865961D01*
X118604756Y-76976874D01*
X118893975Y-76977126D01*
X119161275Y-76866680D01*
X119365961Y-76662350D01*
X119476874Y-76395244D01*
X119477126Y-76106025D01*
X119477126Y-87244724D01*
X119384039Y-87337650D01*
X119273126Y-87604756D01*
X119272874Y-87893975D01*
X119383320Y-88161275D01*
X119587650Y-88365961D01*
X119854756Y-88476874D01*
X120143975Y-88477126D01*
X120411275Y-88366680D01*
X120615961Y-88162350D01*
X120726874Y-87895244D01*
X120727126Y-87606025D01*
X120727126Y-88873000D01*
X118477126Y-88873000D01*
X118477126Y-82106025D01*
X118366680Y-81838725D01*
X118162350Y-81634039D01*
X117895244Y-81523126D01*
X117606025Y-81522874D01*
X117477126Y-81576133D01*
X117477126Y-76106025D01*
X117366680Y-75838725D01*
X117162350Y-75634039D01*
X116895244Y-75523126D01*
X116606025Y-75522874D01*
X116338725Y-75633320D01*
X116134039Y-75837650D01*
X116023126Y-76104756D01*
X116022874Y-76393975D01*
X116133320Y-76661275D01*
X116337650Y-76865961D01*
X116604756Y-76976874D01*
X116893975Y-76977126D01*
X117161275Y-76866680D01*
X117365961Y-76662350D01*
X117476874Y-76395244D01*
X117477126Y-76106025D01*
X117477126Y-81576133D01*
X117338725Y-81633320D01*
X117134039Y-81837650D01*
X117121772Y-81867189D01*
X116895244Y-81773126D01*
X116606025Y-81772874D01*
X116338725Y-81883320D01*
X116134039Y-82087650D01*
X116023126Y-82354756D01*
X116022874Y-82643975D01*
X116133320Y-82911275D01*
X116337650Y-83115961D01*
X116604756Y-83226874D01*
X116893975Y-83227126D01*
X117161275Y-83116680D01*
X117365961Y-82912350D01*
X117378227Y-82882810D01*
X117604756Y-82976874D01*
X117893975Y-82977126D01*
X118161275Y-82866680D01*
X118365961Y-82662350D01*
X118476874Y-82395244D01*
X118477126Y-82106025D01*
X118477126Y-88873000D01*
X118227126Y-88873000D01*
X118227126Y-87606025D01*
X118116680Y-87338725D01*
X117912350Y-87134039D01*
X117645244Y-87023126D01*
X117356025Y-87022874D01*
X117088725Y-87133320D01*
X116884039Y-87337650D01*
X116773126Y-87604756D01*
X116772874Y-87893975D01*
X116883320Y-88161275D01*
X117087650Y-88365961D01*
X117354756Y-88476874D01*
X117643975Y-88477126D01*
X117911275Y-88366680D01*
X118115961Y-88162350D01*
X118226874Y-87895244D01*
X118227126Y-87606025D01*
X118227126Y-88873000D01*
X115727126Y-88873000D01*
X115727126Y-87606025D01*
X115616680Y-87338725D01*
X115477126Y-87198927D01*
X115477126Y-76606025D01*
X115366680Y-76338725D01*
X115162350Y-76134039D01*
X114895244Y-76023126D01*
X114606025Y-76022874D01*
X114338725Y-76133320D01*
X114227126Y-76244724D01*
X114227126Y-74356025D01*
X114116680Y-74088725D01*
X113912350Y-73884039D01*
X113645244Y-73773126D01*
X113356025Y-73772874D01*
X113088725Y-73883320D01*
X112884039Y-74087650D01*
X112773126Y-74354756D01*
X112773003Y-74494885D01*
X112662350Y-74384039D01*
X112395244Y-74273126D01*
X112106025Y-74272874D01*
X111838725Y-74383320D01*
X111634039Y-74587650D01*
X111523126Y-74854756D01*
X111522874Y-75143975D01*
X111633320Y-75411275D01*
X111837650Y-75615961D01*
X112104756Y-75726874D01*
X112393975Y-75727126D01*
X112661275Y-75616680D01*
X112865961Y-75412350D01*
X112976874Y-75145244D01*
X112976996Y-75005114D01*
X113087650Y-75115961D01*
X113354756Y-75226874D01*
X113643975Y-75227126D01*
X113911275Y-75116680D01*
X114115961Y-74912350D01*
X114226874Y-74645244D01*
X114227126Y-74356025D01*
X114227126Y-76244724D01*
X114134039Y-76337650D01*
X114023126Y-76604756D01*
X114022874Y-76893975D01*
X114133320Y-77161275D01*
X114337650Y-77365961D01*
X114604756Y-77476874D01*
X114893975Y-77477126D01*
X115161275Y-77366680D01*
X115365961Y-77162350D01*
X115476874Y-76895244D01*
X115477126Y-76606025D01*
X115477126Y-87198927D01*
X115412350Y-87134039D01*
X115145244Y-87023126D01*
X114856025Y-87022874D01*
X114588725Y-87133320D01*
X114384039Y-87337650D01*
X114273126Y-87604756D01*
X114272874Y-87893975D01*
X114383320Y-88161275D01*
X114587650Y-88365961D01*
X114854756Y-88476874D01*
X115143975Y-88477126D01*
X115411275Y-88366680D01*
X115615961Y-88162350D01*
X115726874Y-87895244D01*
X115727126Y-87606025D01*
X115727126Y-88873000D01*
X113227126Y-88873000D01*
X113227126Y-87606025D01*
X113116680Y-87338725D01*
X112977126Y-87198927D01*
X112977126Y-76606025D01*
X112866680Y-76338725D01*
X112662350Y-76134039D01*
X112395244Y-76023126D01*
X112106025Y-76022874D01*
X111838725Y-76133320D01*
X111634039Y-76337650D01*
X111523126Y-76604756D01*
X111522874Y-76893975D01*
X111633320Y-77161275D01*
X111837650Y-77365961D01*
X112104756Y-77476874D01*
X112393975Y-77477126D01*
X112661275Y-77366680D01*
X112865961Y-77162350D01*
X112976874Y-76895244D01*
X112977126Y-76606025D01*
X112977126Y-87198927D01*
X112912350Y-87134039D01*
X112645244Y-87023126D01*
X112356025Y-87022874D01*
X112088725Y-87133320D01*
X111884039Y-87337650D01*
X111773126Y-87604756D01*
X111772874Y-87893975D01*
X111883320Y-88161275D01*
X112087650Y-88365961D01*
X112354756Y-88476874D01*
X112643975Y-88477126D01*
X112911275Y-88366680D01*
X113115961Y-88162350D01*
X113226874Y-87895244D01*
X113227126Y-87606025D01*
X113227126Y-88873000D01*
X110727126Y-88873000D01*
X110727126Y-87606025D01*
X110616680Y-87338725D01*
X110477126Y-87198927D01*
X110477126Y-77356025D01*
X110477126Y-73856025D01*
X110366680Y-73588725D01*
X110162350Y-73384039D01*
X109895244Y-73273126D01*
X109606025Y-73272874D01*
X109338725Y-73383320D01*
X109134039Y-73587650D01*
X109074991Y-73729850D01*
X109016680Y-73588725D01*
X108812350Y-73384039D01*
X108545244Y-73273126D01*
X108256025Y-73272874D01*
X107988725Y-73383320D01*
X107784039Y-73587650D01*
X107699929Y-73790205D01*
X107616680Y-73588725D01*
X107412350Y-73384039D01*
X107145244Y-73273126D01*
X106856025Y-73272874D01*
X106588725Y-73383320D01*
X106384039Y-73587650D01*
X106273126Y-73854756D01*
X106272874Y-74143975D01*
X106383320Y-74411275D01*
X106587650Y-74615961D01*
X106854756Y-74726874D01*
X107143975Y-74727126D01*
X107411275Y-74616680D01*
X107615961Y-74412350D01*
X107700070Y-74209794D01*
X107783320Y-74411275D01*
X107987650Y-74615961D01*
X108254756Y-74726874D01*
X108543975Y-74727126D01*
X108811275Y-74616680D01*
X109015961Y-74412350D01*
X109075008Y-74270149D01*
X109133320Y-74411275D01*
X109337650Y-74615961D01*
X109604756Y-74726874D01*
X109893975Y-74727126D01*
X110161275Y-74616680D01*
X110365961Y-74412350D01*
X110476874Y-74145244D01*
X110477126Y-73856025D01*
X110477126Y-77356025D01*
X110366680Y-77088725D01*
X110162350Y-76884039D01*
X109895244Y-76773126D01*
X109606025Y-76772874D01*
X109338725Y-76883320D01*
X109134039Y-77087650D01*
X109095702Y-77179974D01*
X109016680Y-76988725D01*
X108812350Y-76784039D01*
X108545244Y-76673126D01*
X108256025Y-76672874D01*
X107988725Y-76783320D01*
X107784039Y-76987650D01*
X107679219Y-77240081D01*
X107616680Y-77088725D01*
X107412350Y-76884039D01*
X107145244Y-76773126D01*
X106856025Y-76772874D01*
X106588725Y-76883320D01*
X106384039Y-77087650D01*
X106273126Y-77354756D01*
X106272874Y-77643975D01*
X106383320Y-77911275D01*
X106587650Y-78115961D01*
X106854756Y-78226874D01*
X107143975Y-78227126D01*
X107411275Y-78116680D01*
X107615961Y-77912350D01*
X107720780Y-77659918D01*
X107783320Y-77811275D01*
X107987650Y-78015961D01*
X108254756Y-78126874D01*
X108543975Y-78127126D01*
X108811275Y-78016680D01*
X109015961Y-77812350D01*
X109054297Y-77720025D01*
X109133320Y-77911275D01*
X109337650Y-78115961D01*
X109604756Y-78226874D01*
X109893975Y-78227126D01*
X110161275Y-78116680D01*
X110365961Y-77912350D01*
X110476874Y-77645244D01*
X110477126Y-77356025D01*
X110477126Y-87198927D01*
X110412350Y-87134039D01*
X110145244Y-87023126D01*
X109977126Y-87022979D01*
X109977126Y-79106025D01*
X109866680Y-78838725D01*
X109662350Y-78634039D01*
X109395244Y-78523126D01*
X109106025Y-78522874D01*
X108838725Y-78633320D01*
X108634039Y-78837650D01*
X108523126Y-79104756D01*
X108522874Y-79393975D01*
X108633320Y-79661275D01*
X108837650Y-79865961D01*
X109104756Y-79976874D01*
X109393975Y-79977126D01*
X109661275Y-79866680D01*
X109865961Y-79662350D01*
X109976874Y-79395244D01*
X109977126Y-79106025D01*
X109977126Y-87022979D01*
X109856025Y-87022874D01*
X109588725Y-87133320D01*
X109384039Y-87337650D01*
X109273126Y-87604756D01*
X109272874Y-87893975D01*
X109383320Y-88161275D01*
X109587650Y-88365961D01*
X109854756Y-88476874D01*
X110143975Y-88477126D01*
X110411275Y-88366680D01*
X110615961Y-88162350D01*
X110726874Y-87895244D01*
X110727126Y-87606025D01*
X110727126Y-88873000D01*
X109227126Y-88873000D01*
X109227126Y-81856025D01*
X109116680Y-81588725D01*
X108912350Y-81384039D01*
X108645244Y-81273126D01*
X108356025Y-81272874D01*
X108088725Y-81383320D01*
X107884039Y-81587650D01*
X107773126Y-81854756D01*
X107772874Y-82143975D01*
X107883320Y-82411275D01*
X108087650Y-82615961D01*
X108354756Y-82726874D01*
X108643975Y-82727126D01*
X108911275Y-82616680D01*
X109115961Y-82412350D01*
X109226874Y-82145244D01*
X109227126Y-81856025D01*
X109227126Y-88873000D01*
X108227126Y-88873000D01*
X108227126Y-87606025D01*
X108116680Y-87338725D01*
X107912350Y-87134039D01*
X107645244Y-87023126D01*
X107356025Y-87022874D01*
X107227126Y-87076133D01*
X107227126Y-79106025D01*
X107116680Y-78838725D01*
X106912350Y-78634039D01*
X106645244Y-78523126D01*
X106356025Y-78522874D01*
X106088725Y-78633320D01*
X105884039Y-78837650D01*
X105773126Y-79104756D01*
X105772874Y-79393975D01*
X105883320Y-79661275D01*
X106087650Y-79865961D01*
X106354756Y-79976874D01*
X106643975Y-79977126D01*
X106911275Y-79866680D01*
X107115961Y-79662350D01*
X107226874Y-79395244D01*
X107227126Y-79106025D01*
X107227126Y-87076133D01*
X107088725Y-87133320D01*
X106884039Y-87337650D01*
X106773126Y-87604756D01*
X106772874Y-87893975D01*
X106883320Y-88161275D01*
X107087650Y-88365961D01*
X107354756Y-88476874D01*
X107643975Y-88477126D01*
X107911275Y-88366680D01*
X108115961Y-88162350D01*
X108226874Y-87895244D01*
X108227126Y-87606025D01*
X108227126Y-88873000D01*
X106227126Y-88873000D01*
X106227126Y-85356025D01*
X106116680Y-85088725D01*
X105912350Y-84884039D01*
X105645244Y-84773126D01*
X105356025Y-84772874D01*
X105088725Y-84883320D01*
X104884039Y-85087650D01*
X104773126Y-85354756D01*
X104772979Y-85523019D01*
X104726980Y-85522979D01*
X104727126Y-85356025D01*
X104616680Y-85088725D01*
X104412350Y-84884039D01*
X104145244Y-84773126D01*
X103856025Y-84772874D01*
X103588725Y-84883320D01*
X103384039Y-85087650D01*
X103273126Y-85354756D01*
X103272874Y-85643975D01*
X103383320Y-85911275D01*
X103587650Y-86115961D01*
X103854756Y-86226874D01*
X104023019Y-86227020D01*
X104022874Y-86393975D01*
X104133320Y-86661275D01*
X104337650Y-86865961D01*
X104604756Y-86976874D01*
X104893975Y-86977126D01*
X105161275Y-86866680D01*
X105365961Y-86662350D01*
X105476874Y-86395244D01*
X105477020Y-86226980D01*
X105643975Y-86227126D01*
X105911275Y-86116680D01*
X106115961Y-85912350D01*
X106226874Y-85645244D01*
X106227126Y-85356025D01*
X106227126Y-88873000D01*
X105727126Y-88873000D01*
X105727126Y-87606025D01*
X105616680Y-87338725D01*
X105412350Y-87134039D01*
X105145244Y-87023126D01*
X104856025Y-87022874D01*
X104588725Y-87133320D01*
X104384039Y-87337650D01*
X104273126Y-87604756D01*
X104272874Y-87893975D01*
X104383320Y-88161275D01*
X104587650Y-88365961D01*
X104854756Y-88476874D01*
X105143975Y-88477126D01*
X105411275Y-88366680D01*
X105615961Y-88162350D01*
X105726874Y-87895244D01*
X105727126Y-87606025D01*
X105727126Y-88873000D01*
X103127000Y-88873000D01*
X103127000Y-88135765D01*
X103226874Y-87895244D01*
X103227126Y-87606025D01*
X103127000Y-87363701D01*
X103127000Y-86500000D01*
X103127000Y-78373000D01*
X100127000Y-78373000D01*
X100127000Y-72127000D01*
X113022888Y-72127000D01*
X113022874Y-72143975D01*
X113133320Y-72411275D01*
X113221866Y-72499975D01*
X113134039Y-72587650D01*
X113023126Y-72854756D01*
X113022874Y-73143975D01*
X113133320Y-73411275D01*
X113337650Y-73615961D01*
X113604756Y-73726874D01*
X113893975Y-73727126D01*
X114161275Y-73616680D01*
X114365961Y-73412350D01*
X114476874Y-73145244D01*
X114477126Y-72856025D01*
X114366680Y-72588725D01*
X114278133Y-72500024D01*
X114365961Y-72412350D01*
X114476874Y-72145244D01*
X114476889Y-72127000D01*
X115869157Y-72127000D01*
X115883320Y-72161275D01*
X116087650Y-72365961D01*
X116354756Y-72476874D01*
X116643975Y-72477126D01*
X116911275Y-72366680D01*
X117093858Y-72184413D01*
X117023126Y-72354756D01*
X117022874Y-72643975D01*
X117093924Y-72815929D01*
X116912350Y-72634039D01*
X116645244Y-72523126D01*
X116356025Y-72522874D01*
X116088725Y-72633320D01*
X115884039Y-72837650D01*
X115773126Y-73104756D01*
X115772874Y-73393975D01*
X115883320Y-73661275D01*
X116087650Y-73865961D01*
X116354756Y-73976874D01*
X116643975Y-73977126D01*
X116911275Y-73866680D01*
X117115961Y-73662350D01*
X117226874Y-73395244D01*
X117227126Y-73106025D01*
X117156075Y-72934070D01*
X117337650Y-73115961D01*
X117604756Y-73226874D01*
X117893975Y-73227126D01*
X118161275Y-73116680D01*
X118365961Y-72912350D01*
X118476874Y-72645244D01*
X118477126Y-72356025D01*
X118382494Y-72127000D01*
X121844794Y-72127000D01*
X121784039Y-72187650D01*
X121673126Y-72454756D01*
X121672874Y-72743975D01*
X121783320Y-73011275D01*
X121987650Y-73215961D01*
X122254756Y-73326874D01*
X122543975Y-73327126D01*
X122811275Y-73216680D01*
X123000149Y-73028133D01*
X123187650Y-73215961D01*
X123454756Y-73326874D01*
X123743975Y-73327126D01*
X124011275Y-73216680D01*
X124215961Y-73012350D01*
X124326874Y-72745244D01*
X124327126Y-72456025D01*
X124216680Y-72188725D01*
X124155062Y-72127000D01*
X124614234Y-72127000D01*
X124854756Y-72226874D01*
X125143975Y-72227126D01*
X125386298Y-72127000D01*
X128569578Y-72127000D01*
X128389250Y-72247492D01*
X128131507Y-72633231D01*
X128041000Y-73088242D01*
X128041000Y-73911758D01*
X128131507Y-74366769D01*
X128389250Y-74752508D01*
X128774989Y-75010251D01*
X129230000Y-75100758D01*
X129685011Y-75010251D01*
X130070750Y-74752508D01*
X130328493Y-74366769D01*
X130419000Y-73911758D01*
X130419000Y-73088242D01*
X130328493Y-72633231D01*
X130070750Y-72247492D01*
X129890421Y-72127000D01*
X130641087Y-72127000D01*
X130581000Y-72272064D01*
X130581000Y-72441935D01*
X130581000Y-74727935D01*
X130646007Y-74884876D01*
X130766124Y-75004993D01*
X130923064Y-75070000D01*
X131092935Y-75070000D01*
X132616935Y-75070000D01*
X132773876Y-75004993D01*
X132893993Y-74884876D01*
X132959000Y-74727936D01*
X132959000Y-74558065D01*
X132959000Y-72272065D01*
X132898912Y-72127000D01*
X134373000Y-72127000D01*
X134373000Y-75367699D01*
X134145244Y-75273126D01*
X133856025Y-75272874D01*
X133588725Y-75383320D01*
X133384039Y-75587650D01*
X133273126Y-75854756D01*
X133272874Y-76143975D01*
X133383320Y-76411275D01*
X133587650Y-76615961D01*
X133854756Y-76726874D01*
X134143975Y-76727126D01*
X134373000Y-76632494D01*
X134373000Y-83367699D01*
X134145244Y-83273126D01*
X133856025Y-83272874D01*
X133588725Y-83383320D01*
X133384039Y-83587650D01*
X133273126Y-83854756D01*
X133272874Y-84143975D01*
X133383320Y-84411275D01*
X133587650Y-84615961D01*
X133854756Y-84726874D01*
X134143975Y-84727126D01*
X134373000Y-84632494D01*
X134373000Y-88873000D01*
X134373000Y-88873000D01*
G37*
X134373000Y-88873000D02*
X133600758Y-88873000D01*
X133600758Y-85730000D01*
X133510251Y-85274989D01*
X133252508Y-84889250D01*
X132870063Y-84633708D01*
X132911275Y-84616680D01*
X133115961Y-84412350D01*
X133226874Y-84145244D01*
X133227126Y-83856025D01*
X133227126Y-75856025D01*
X133116680Y-75588725D01*
X132912350Y-75384039D01*
X132645244Y-75273126D01*
X132356025Y-75272874D01*
X132088725Y-75383320D01*
X131884039Y-75587650D01*
X131773126Y-75854756D01*
X131772874Y-76143975D01*
X131883320Y-76411275D01*
X132087650Y-76615961D01*
X132354756Y-76726874D01*
X132643975Y-76727126D01*
X132911275Y-76616680D01*
X133115961Y-76412350D01*
X133226874Y-76145244D01*
X133227126Y-75856025D01*
X133227126Y-83856025D01*
X133116680Y-83588725D01*
X132912350Y-83384039D01*
X132645244Y-83273126D01*
X132356025Y-83272874D01*
X132088725Y-83383320D01*
X131884039Y-83587650D01*
X131773126Y-83854756D01*
X131772874Y-84143975D01*
X131883320Y-84411275D01*
X132012819Y-84541000D01*
X131588242Y-84541000D01*
X131461915Y-84566127D01*
X131615961Y-84412350D01*
X131726874Y-84145244D01*
X131727126Y-83856025D01*
X131727126Y-75856025D01*
X131616680Y-75588725D01*
X131412350Y-75384039D01*
X131145244Y-75273126D01*
X130856025Y-75272874D01*
X130588725Y-75383320D01*
X130384039Y-75587650D01*
X130273126Y-75854756D01*
X130272874Y-76143975D01*
X130383320Y-76411275D01*
X130587650Y-76615961D01*
X130854756Y-76726874D01*
X131143975Y-76727126D01*
X131411275Y-76616680D01*
X131615961Y-76412350D01*
X131726874Y-76145244D01*
X131727126Y-75856025D01*
X131727126Y-83856025D01*
X131616680Y-83588725D01*
X131412350Y-83384039D01*
X131145244Y-83273126D01*
X130856025Y-83272874D01*
X130588725Y-83383320D01*
X130384039Y-83587650D01*
X130273126Y-83854756D01*
X130272874Y-84143975D01*
X130383320Y-84411275D01*
X130587650Y-84615961D01*
X130854756Y-84726874D01*
X130990327Y-84726992D01*
X130747492Y-84889250D01*
X130489749Y-85274989D01*
X130399242Y-85730000D01*
X130489749Y-86185011D01*
X130747492Y-86570750D01*
X131133231Y-86828493D01*
X131588242Y-86919000D01*
X132411758Y-86919000D01*
X132866769Y-86828493D01*
X133252508Y-86570750D01*
X133510251Y-86185011D01*
X133600758Y-85730000D01*
X133600758Y-88873000D01*
X133570000Y-88873000D01*
X133570000Y-87423065D01*
X133504993Y-87266124D01*
X133384876Y-87146007D01*
X133227936Y-87081000D01*
X133058065Y-87081000D01*
X130772065Y-87081000D01*
X130615124Y-87146007D01*
X130495007Y-87266124D01*
X130430000Y-87423064D01*
X130430000Y-87592935D01*
X130430000Y-88873000D01*
X130227126Y-88873000D01*
X130227126Y-83856025D01*
X130227126Y-75856025D01*
X130116680Y-75588725D01*
X129912350Y-75384039D01*
X129645244Y-75273126D01*
X129356025Y-75272874D01*
X129088725Y-75383320D01*
X128884039Y-75587650D01*
X128773126Y-75854756D01*
X128772874Y-76143975D01*
X128883320Y-76411275D01*
X129087650Y-76615961D01*
X129354756Y-76726874D01*
X129643975Y-76727126D01*
X129911275Y-76616680D01*
X130115961Y-76412350D01*
X130226874Y-76145244D01*
X130227126Y-75856025D01*
X130227126Y-83856025D01*
X130116680Y-83588725D01*
X129912350Y-83384039D01*
X129727126Y-83307126D01*
X129727126Y-79856025D01*
X129616680Y-79588725D01*
X129412350Y-79384039D01*
X129145244Y-79273126D01*
X128856025Y-79272874D01*
X128727126Y-79326133D01*
X128727126Y-75856025D01*
X128616680Y-75588725D01*
X128412350Y-75384039D01*
X128145244Y-75273126D01*
X127856025Y-75272874D01*
X127588725Y-75383320D01*
X127384039Y-75587650D01*
X127273126Y-75854756D01*
X127272874Y-76143975D01*
X127383320Y-76411275D01*
X127587650Y-76615961D01*
X127854756Y-76726874D01*
X128143975Y-76727126D01*
X128411275Y-76616680D01*
X128615961Y-76412350D01*
X128726874Y-76145244D01*
X128727126Y-75856025D01*
X128727126Y-79326133D01*
X128588725Y-79383320D01*
X128384039Y-79587650D01*
X128273126Y-79854756D01*
X128272874Y-80143975D01*
X128383320Y-80411275D01*
X128587650Y-80615961D01*
X128854756Y-80726874D01*
X129143975Y-80727126D01*
X129411275Y-80616680D01*
X129615961Y-80412350D01*
X129726874Y-80145244D01*
X129727126Y-79856025D01*
X129727126Y-83307126D01*
X129645244Y-83273126D01*
X129356025Y-83272874D01*
X129088725Y-83383320D01*
X128884039Y-83587650D01*
X128773126Y-83854756D01*
X128772874Y-84143975D01*
X128883320Y-84411275D01*
X129087650Y-84615961D01*
X129354756Y-84726874D01*
X129643975Y-84727126D01*
X129911275Y-84616680D01*
X130115961Y-84412350D01*
X130226874Y-84145244D01*
X130227126Y-83856025D01*
X130227126Y-88873000D01*
X128727126Y-88873000D01*
X128727126Y-86356025D01*
X128727126Y-83856025D01*
X128616680Y-83588725D01*
X128412350Y-83384039D01*
X128145244Y-83273126D01*
X127856025Y-83272874D01*
X127588725Y-83383320D01*
X127384039Y-83587650D01*
X127273126Y-83854756D01*
X127272874Y-84143975D01*
X127383320Y-84411275D01*
X127587650Y-84615961D01*
X127854756Y-84726874D01*
X128143975Y-84727126D01*
X128411275Y-84616680D01*
X128615961Y-84412350D01*
X128726874Y-84145244D01*
X128727126Y-83856025D01*
X128727126Y-86356025D01*
X128616680Y-86088725D01*
X128412350Y-85884039D01*
X128145244Y-85773126D01*
X127856025Y-85772874D01*
X127588725Y-85883320D01*
X127384039Y-86087650D01*
X127273126Y-86354756D01*
X127272874Y-86643975D01*
X127383320Y-86911275D01*
X127587650Y-87115961D01*
X127854756Y-87226874D01*
X128143975Y-87227126D01*
X128411275Y-87116680D01*
X128615961Y-86912350D01*
X128726874Y-86645244D01*
X128727126Y-86356025D01*
X128727126Y-88873000D01*
X125727126Y-88873000D01*
X125727126Y-86356025D01*
X125727126Y-83856025D01*
X125727126Y-81356025D01*
X125727126Y-78856025D01*
X125727126Y-76356025D01*
X125727126Y-73856025D01*
X125616680Y-73588725D01*
X125412350Y-73384039D01*
X125145244Y-73273126D01*
X124856025Y-73272874D01*
X124588725Y-73383320D01*
X124384039Y-73587650D01*
X124273126Y-73854756D01*
X124272874Y-74143975D01*
X124383320Y-74411275D01*
X124587650Y-74615961D01*
X124854756Y-74726874D01*
X125143975Y-74727126D01*
X125411275Y-74616680D01*
X125615961Y-74412350D01*
X125726874Y-74145244D01*
X125727126Y-73856025D01*
X125727126Y-76356025D01*
X125616680Y-76088725D01*
X125412350Y-75884039D01*
X125145244Y-75773126D01*
X124856025Y-75772874D01*
X124588725Y-75883320D01*
X124384039Y-76087650D01*
X124327126Y-76224710D01*
X124327126Y-75856025D01*
X124216680Y-75588725D01*
X124012350Y-75384039D01*
X123745244Y-75273126D01*
X123727126Y-75273110D01*
X123727126Y-74106025D01*
X123616680Y-73838725D01*
X123412350Y-73634039D01*
X123145244Y-73523126D01*
X122856025Y-73522874D01*
X122588725Y-73633320D01*
X122384039Y-73837650D01*
X122273126Y-74104756D01*
X122272874Y-74393975D01*
X122383320Y-74661275D01*
X122587650Y-74865961D01*
X122854756Y-74976874D01*
X123143975Y-74977126D01*
X123411275Y-74866680D01*
X123615961Y-74662350D01*
X123726874Y-74395244D01*
X123727126Y-74106025D01*
X123727126Y-75273110D01*
X123456025Y-75272874D01*
X123188725Y-75383320D01*
X122999850Y-75571866D01*
X122812350Y-75384039D01*
X122545244Y-75273126D01*
X122256025Y-75272874D01*
X121988725Y-75383320D01*
X121784039Y-75587650D01*
X121673126Y-75854756D01*
X121672874Y-76143975D01*
X121783320Y-76411275D01*
X121987650Y-76615961D01*
X122254756Y-76726874D01*
X122272888Y-76726889D01*
X122272874Y-76743975D01*
X122383320Y-77011275D01*
X122587650Y-77215961D01*
X122854756Y-77326874D01*
X123143975Y-77327126D01*
X123411275Y-77216680D01*
X123615961Y-77012350D01*
X123726874Y-76745244D01*
X123726889Y-76727111D01*
X123743975Y-76727126D01*
X124011275Y-76616680D01*
X124215961Y-76412350D01*
X124326874Y-76145244D01*
X124327126Y-75856025D01*
X124327126Y-76224710D01*
X124273126Y-76354756D01*
X124272874Y-76643975D01*
X124383320Y-76911275D01*
X124587650Y-77115961D01*
X124854756Y-77226874D01*
X125143975Y-77227126D01*
X125411275Y-77116680D01*
X125615961Y-76912350D01*
X125726874Y-76645244D01*
X125727126Y-76356025D01*
X125727126Y-78856025D01*
X125616680Y-78588725D01*
X125412350Y-78384039D01*
X125145244Y-78273126D01*
X124856025Y-78272874D01*
X124588725Y-78383320D01*
X124384039Y-78587650D01*
X124273126Y-78854756D01*
X124272874Y-79143975D01*
X124383320Y-79411275D01*
X124587650Y-79615961D01*
X124854756Y-79726874D01*
X125143975Y-79727126D01*
X125411275Y-79616680D01*
X125615961Y-79412350D01*
X125726874Y-79145244D01*
X125727126Y-78856025D01*
X125727126Y-81356025D01*
X125616680Y-81088725D01*
X125412350Y-80884039D01*
X125145244Y-80773126D01*
X124856025Y-80772874D01*
X124588725Y-80883320D01*
X124384039Y-81087650D01*
X124273126Y-81354756D01*
X124272874Y-81643975D01*
X124383320Y-81911275D01*
X124587650Y-82115961D01*
X124854756Y-82226874D01*
X125143975Y-82227126D01*
X125411275Y-82116680D01*
X125615961Y-81912350D01*
X125726874Y-81645244D01*
X125727126Y-81356025D01*
X125727126Y-83856025D01*
X125616680Y-83588725D01*
X125412350Y-83384039D01*
X125145244Y-83273126D01*
X124856025Y-83272874D01*
X124588725Y-83383320D01*
X124384039Y-83587650D01*
X124273126Y-83854756D01*
X124272874Y-84143975D01*
X124383320Y-84411275D01*
X124587650Y-84615961D01*
X124854756Y-84726874D01*
X125143975Y-84727126D01*
X125411275Y-84616680D01*
X125615961Y-84412350D01*
X125726874Y-84145244D01*
X125727126Y-83856025D01*
X125727126Y-86356025D01*
X125616680Y-86088725D01*
X125412350Y-85884039D01*
X125145244Y-85773126D01*
X124856025Y-85772874D01*
X124588725Y-85883320D01*
X124384039Y-86087650D01*
X124273126Y-86354756D01*
X124272874Y-86643975D01*
X124383320Y-86911275D01*
X124587650Y-87115961D01*
X124854756Y-87226874D01*
X125143975Y-87227126D01*
X125411275Y-87116680D01*
X125615961Y-86912350D01*
X125726874Y-86645244D01*
X125727126Y-86356025D01*
X125727126Y-88873000D01*
X123727126Y-88873000D01*
X123727126Y-78356025D01*
X123616680Y-78088725D01*
X123412350Y-77884039D01*
X123145244Y-77773126D01*
X122856025Y-77772874D01*
X122588725Y-77883320D01*
X122384039Y-78087650D01*
X122273126Y-78354756D01*
X122272874Y-78643975D01*
X122383320Y-78911275D01*
X122587650Y-79115961D01*
X122854756Y-79226874D01*
X123143975Y-79227126D01*
X123411275Y-79116680D01*
X123615961Y-78912350D01*
X123726874Y-78645244D01*
X123727126Y-78356025D01*
X123727126Y-88873000D01*
X123227126Y-88873000D01*
X123227126Y-87606025D01*
X123116680Y-87338725D01*
X122977126Y-87198927D01*
X122977126Y-84356025D01*
X122866680Y-84088725D01*
X122662350Y-83884039D01*
X122395244Y-83773126D01*
X122106025Y-83772874D01*
X121977126Y-83826133D01*
X121977126Y-77106025D01*
X121866680Y-76838725D01*
X121662350Y-76634039D01*
X121419576Y-76533229D01*
X121476874Y-76395244D01*
X121477126Y-76106025D01*
X121366680Y-75838725D01*
X121162350Y-75634039D01*
X120895244Y-75523126D01*
X120606025Y-75522874D01*
X120338725Y-75633320D01*
X120134039Y-75837650D01*
X120023126Y-76104756D01*
X120022874Y-76393975D01*
X120133320Y-76661275D01*
X120337650Y-76865961D01*
X120580423Y-76966770D01*
X120523126Y-77104756D01*
X120522874Y-77393975D01*
X120633320Y-77661275D01*
X120837650Y-77865961D01*
X121104756Y-77976874D01*
X121393975Y-77977126D01*
X121661275Y-77866680D01*
X121865961Y-77662350D01*
X121976874Y-77395244D01*
X121977126Y-77106025D01*
X121977126Y-83826133D01*
X121838725Y-83883320D01*
X121634039Y-84087650D01*
X121523126Y-84354756D01*
X121522874Y-84643975D01*
X121633320Y-84911275D01*
X121837650Y-85115961D01*
X122104756Y-85226874D01*
X122393975Y-85227126D01*
X122661275Y-85116680D01*
X122865961Y-84912350D01*
X122976874Y-84645244D01*
X122977126Y-84356025D01*
X122977126Y-87198927D01*
X122912350Y-87134039D01*
X122645244Y-87023126D01*
X122356025Y-87022874D01*
X122088725Y-87133320D01*
X121884039Y-87337650D01*
X121773126Y-87604756D01*
X121772874Y-87893975D01*
X121883320Y-88161275D01*
X122087650Y-88365961D01*
X122354756Y-88476874D01*
X122643975Y-88477126D01*
X122911275Y-88366680D01*
X123115961Y-88162350D01*
X123226874Y-87895244D01*
X123227126Y-87606025D01*
X123227126Y-88873000D01*
X120727126Y-88873000D01*
X120727126Y-87606025D01*
X120616680Y-87338725D01*
X120412350Y-87134039D01*
X120145244Y-87023126D01*
X119856025Y-87022874D01*
X119588725Y-87133320D01*
X119477126Y-87244724D01*
X119477126Y-76106025D01*
X119366680Y-75838725D01*
X119162350Y-75634039D01*
X118895244Y-75523126D01*
X118606025Y-75522874D01*
X118338725Y-75633320D01*
X118134039Y-75837650D01*
X118023126Y-76104756D01*
X118022874Y-76393975D01*
X118133320Y-76661275D01*
X118337650Y-76865961D01*
X118604756Y-76976874D01*
X118893975Y-76977126D01*
X119161275Y-76866680D01*
X119365961Y-76662350D01*
X119476874Y-76395244D01*
X119477126Y-76106025D01*
X119477126Y-87244724D01*
X119384039Y-87337650D01*
X119273126Y-87604756D01*
X119272874Y-87893975D01*
X119383320Y-88161275D01*
X119587650Y-88365961D01*
X119854756Y-88476874D01*
X120143975Y-88477126D01*
X120411275Y-88366680D01*
X120615961Y-88162350D01*
X120726874Y-87895244D01*
X120727126Y-87606025D01*
X120727126Y-88873000D01*
X118477126Y-88873000D01*
X118477126Y-82106025D01*
X118366680Y-81838725D01*
X118162350Y-81634039D01*
X117895244Y-81523126D01*
X117606025Y-81522874D01*
X117477126Y-81576133D01*
X117477126Y-76106025D01*
X117366680Y-75838725D01*
X117162350Y-75634039D01*
X116895244Y-75523126D01*
X116606025Y-75522874D01*
X116338725Y-75633320D01*
X116134039Y-75837650D01*
X116023126Y-76104756D01*
X116022874Y-76393975D01*
X116133320Y-76661275D01*
X116337650Y-76865961D01*
X116604756Y-76976874D01*
X116893975Y-76977126D01*
X117161275Y-76866680D01*
X117365961Y-76662350D01*
X117476874Y-76395244D01*
X117477126Y-76106025D01*
X117477126Y-81576133D01*
X117338725Y-81633320D01*
X117134039Y-81837650D01*
X117121772Y-81867189D01*
X116895244Y-81773126D01*
X116606025Y-81772874D01*
X116338725Y-81883320D01*
X116134039Y-82087650D01*
X116023126Y-82354756D01*
X116022874Y-82643975D01*
X116133320Y-82911275D01*
X116337650Y-83115961D01*
X116604756Y-83226874D01*
X116893975Y-83227126D01*
X117161275Y-83116680D01*
X117365961Y-82912350D01*
X117378227Y-82882810D01*
X117604756Y-82976874D01*
X117893975Y-82977126D01*
X118161275Y-82866680D01*
X118365961Y-82662350D01*
X118476874Y-82395244D01*
X118477126Y-82106025D01*
X118477126Y-88873000D01*
X118227126Y-88873000D01*
X118227126Y-87606025D01*
X118116680Y-87338725D01*
X117912350Y-87134039D01*
X117645244Y-87023126D01*
X117356025Y-87022874D01*
X117088725Y-87133320D01*
X116884039Y-87337650D01*
X116773126Y-87604756D01*
X116772874Y-87893975D01*
X116883320Y-88161275D01*
X117087650Y-88365961D01*
X117354756Y-88476874D01*
X117643975Y-88477126D01*
X117911275Y-88366680D01*
X118115961Y-88162350D01*
X118226874Y-87895244D01*
X118227126Y-87606025D01*
X118227126Y-88873000D01*
X115727126Y-88873000D01*
X115727126Y-87606025D01*
X115616680Y-87338725D01*
X115477126Y-87198927D01*
X115477126Y-76606025D01*
X115366680Y-76338725D01*
X115162350Y-76134039D01*
X114895244Y-76023126D01*
X114606025Y-76022874D01*
X114338725Y-76133320D01*
X114227126Y-76244724D01*
X114227126Y-74356025D01*
X114116680Y-74088725D01*
X113912350Y-73884039D01*
X113645244Y-73773126D01*
X113356025Y-73772874D01*
X113088725Y-73883320D01*
X112884039Y-74087650D01*
X112773126Y-74354756D01*
X112773003Y-74494885D01*
X112662350Y-74384039D01*
X112395244Y-74273126D01*
X112106025Y-74272874D01*
X111838725Y-74383320D01*
X111634039Y-74587650D01*
X111523126Y-74854756D01*
X111522874Y-75143975D01*
X111633320Y-75411275D01*
X111837650Y-75615961D01*
X112104756Y-75726874D01*
X112393975Y-75727126D01*
X112661275Y-75616680D01*
X112865961Y-75412350D01*
X112976874Y-75145244D01*
X112976996Y-75005114D01*
X113087650Y-75115961D01*
X113354756Y-75226874D01*
X113643975Y-75227126D01*
X113911275Y-75116680D01*
X114115961Y-74912350D01*
X114226874Y-74645244D01*
X114227126Y-74356025D01*
X114227126Y-76244724D01*
X114134039Y-76337650D01*
X114023126Y-76604756D01*
X114022874Y-76893975D01*
X114133320Y-77161275D01*
X114337650Y-77365961D01*
X114604756Y-77476874D01*
X114893975Y-77477126D01*
X115161275Y-77366680D01*
X115365961Y-77162350D01*
X115476874Y-76895244D01*
X115477126Y-76606025D01*
X115477126Y-87198927D01*
X115412350Y-87134039D01*
X115145244Y-87023126D01*
X114856025Y-87022874D01*
X114588725Y-87133320D01*
X114384039Y-87337650D01*
X114273126Y-87604756D01*
X114272874Y-87893975D01*
X114383320Y-88161275D01*
X114587650Y-88365961D01*
X114854756Y-88476874D01*
X115143975Y-88477126D01*
X115411275Y-88366680D01*
X115615961Y-88162350D01*
X115726874Y-87895244D01*
X115727126Y-87606025D01*
X115727126Y-88873000D01*
X113227126Y-88873000D01*
X113227126Y-87606025D01*
X113116680Y-87338725D01*
X112977126Y-87198927D01*
X112977126Y-76606025D01*
X112866680Y-76338725D01*
X112662350Y-76134039D01*
X112395244Y-76023126D01*
X112106025Y-76022874D01*
X111838725Y-76133320D01*
X111634039Y-76337650D01*
X111523126Y-76604756D01*
X111522874Y-76893975D01*
X111633320Y-77161275D01*
X111837650Y-77365961D01*
X112104756Y-77476874D01*
X112393975Y-77477126D01*
X112661275Y-77366680D01*
X112865961Y-77162350D01*
X112976874Y-76895244D01*
X112977126Y-76606025D01*
X112977126Y-87198927D01*
X112912350Y-87134039D01*
X112645244Y-87023126D01*
X112356025Y-87022874D01*
X112088725Y-87133320D01*
X111884039Y-87337650D01*
X111773126Y-87604756D01*
X111772874Y-87893975D01*
X111883320Y-88161275D01*
X112087650Y-88365961D01*
X112354756Y-88476874D01*
X112643975Y-88477126D01*
X112911275Y-88366680D01*
X113115961Y-88162350D01*
X113226874Y-87895244D01*
X113227126Y-87606025D01*
X113227126Y-88873000D01*
X110727126Y-88873000D01*
X110727126Y-87606025D01*
X110616680Y-87338725D01*
X110477126Y-87198927D01*
X110477126Y-77356025D01*
X110477126Y-73856025D01*
X110366680Y-73588725D01*
X110162350Y-73384039D01*
X109895244Y-73273126D01*
X109606025Y-73272874D01*
X109338725Y-73383320D01*
X109134039Y-73587650D01*
X109074991Y-73729850D01*
X109016680Y-73588725D01*
X108812350Y-73384039D01*
X108545244Y-73273126D01*
X108256025Y-73272874D01*
X107988725Y-73383320D01*
X107784039Y-73587650D01*
X107699929Y-73790205D01*
X107616680Y-73588725D01*
X107412350Y-73384039D01*
X107145244Y-73273126D01*
X106856025Y-73272874D01*
X106588725Y-73383320D01*
X106384039Y-73587650D01*
X106273126Y-73854756D01*
X106272874Y-74143975D01*
X106383320Y-74411275D01*
X106587650Y-74615961D01*
X106854756Y-74726874D01*
X107143975Y-74727126D01*
X107411275Y-74616680D01*
X107615961Y-74412350D01*
X107700070Y-74209794D01*
X107783320Y-74411275D01*
X107987650Y-74615961D01*
X108254756Y-74726874D01*
X108543975Y-74727126D01*
X108811275Y-74616680D01*
X109015961Y-74412350D01*
X109075008Y-74270149D01*
X109133320Y-74411275D01*
X109337650Y-74615961D01*
X109604756Y-74726874D01*
X109893975Y-74727126D01*
X110161275Y-74616680D01*
X110365961Y-74412350D01*
X110476874Y-74145244D01*
X110477126Y-73856025D01*
X110477126Y-77356025D01*
X110366680Y-77088725D01*
X110162350Y-76884039D01*
X109895244Y-76773126D01*
X109606025Y-76772874D01*
X109338725Y-76883320D01*
X109134039Y-77087650D01*
X109095702Y-77179974D01*
X109016680Y-76988725D01*
X108812350Y-76784039D01*
X108545244Y-76673126D01*
X108256025Y-76672874D01*
X107988725Y-76783320D01*
X107784039Y-76987650D01*
X107679219Y-77240081D01*
X107616680Y-77088725D01*
X107412350Y-76884039D01*
X107145244Y-76773126D01*
X106856025Y-76772874D01*
X106588725Y-76883320D01*
X106384039Y-77087650D01*
X106273126Y-77354756D01*
X106272874Y-77643975D01*
X106383320Y-77911275D01*
X106587650Y-78115961D01*
X106854756Y-78226874D01*
X107143975Y-78227126D01*
X107411275Y-78116680D01*
X107615961Y-77912350D01*
X107720780Y-77659918D01*
X107783320Y-77811275D01*
X107987650Y-78015961D01*
X108254756Y-78126874D01*
X108543975Y-78127126D01*
X108811275Y-78016680D01*
X109015961Y-77812350D01*
X109054297Y-77720025D01*
X109133320Y-77911275D01*
X109337650Y-78115961D01*
X109604756Y-78226874D01*
X109893975Y-78227126D01*
X110161275Y-78116680D01*
X110365961Y-77912350D01*
X110476874Y-77645244D01*
X110477126Y-77356025D01*
X110477126Y-87198927D01*
X110412350Y-87134039D01*
X110145244Y-87023126D01*
X109977126Y-87022979D01*
X109977126Y-79106025D01*
X109866680Y-78838725D01*
X109662350Y-78634039D01*
X109395244Y-78523126D01*
X109106025Y-78522874D01*
X108838725Y-78633320D01*
X108634039Y-78837650D01*
X108523126Y-79104756D01*
X108522874Y-79393975D01*
X108633320Y-79661275D01*
X108837650Y-79865961D01*
X109104756Y-79976874D01*
X109393975Y-79977126D01*
X109661275Y-79866680D01*
X109865961Y-79662350D01*
X109976874Y-79395244D01*
X109977126Y-79106025D01*
X109977126Y-87022979D01*
X109856025Y-87022874D01*
X109588725Y-87133320D01*
X109384039Y-87337650D01*
X109273126Y-87604756D01*
X109272874Y-87893975D01*
X109383320Y-88161275D01*
X109587650Y-88365961D01*
X109854756Y-88476874D01*
X110143975Y-88477126D01*
X110411275Y-88366680D01*
X110615961Y-88162350D01*
X110726874Y-87895244D01*
X110727126Y-87606025D01*
X110727126Y-88873000D01*
X109227126Y-88873000D01*
X109227126Y-81856025D01*
X109116680Y-81588725D01*
X108912350Y-81384039D01*
X108645244Y-81273126D01*
X108356025Y-81272874D01*
X108088725Y-81383320D01*
X107884039Y-81587650D01*
X107773126Y-81854756D01*
X107772874Y-82143975D01*
X107883320Y-82411275D01*
X108087650Y-82615961D01*
X108354756Y-82726874D01*
X108643975Y-82727126D01*
X108911275Y-82616680D01*
X109115961Y-82412350D01*
X109226874Y-82145244D01*
X109227126Y-81856025D01*
X109227126Y-88873000D01*
X108227126Y-88873000D01*
X108227126Y-87606025D01*
X108116680Y-87338725D01*
X107912350Y-87134039D01*
X107645244Y-87023126D01*
X107356025Y-87022874D01*
X107227126Y-87076133D01*
X107227126Y-79106025D01*
X107116680Y-78838725D01*
X106912350Y-78634039D01*
X106645244Y-78523126D01*
X106356025Y-78522874D01*
X106088725Y-78633320D01*
X105884039Y-78837650D01*
X105773126Y-79104756D01*
X105772874Y-79393975D01*
X105883320Y-79661275D01*
X106087650Y-79865961D01*
X106354756Y-79976874D01*
X106643975Y-79977126D01*
X106911275Y-79866680D01*
X107115961Y-79662350D01*
X107226874Y-79395244D01*
X107227126Y-79106025D01*
X107227126Y-87076133D01*
X107088725Y-87133320D01*
X106884039Y-87337650D01*
X106773126Y-87604756D01*
X106772874Y-87893975D01*
X106883320Y-88161275D01*
X107087650Y-88365961D01*
X107354756Y-88476874D01*
X107643975Y-88477126D01*
X107911275Y-88366680D01*
X108115961Y-88162350D01*
X108226874Y-87895244D01*
X108227126Y-87606025D01*
X108227126Y-88873000D01*
X106227126Y-88873000D01*
X106227126Y-85356025D01*
X106116680Y-85088725D01*
X105912350Y-84884039D01*
X105645244Y-84773126D01*
X105356025Y-84772874D01*
X105088725Y-84883320D01*
X104884039Y-85087650D01*
X104773126Y-85354756D01*
X104772979Y-85523019D01*
X104726980Y-85522979D01*
X104727126Y-85356025D01*
X104616680Y-85088725D01*
X104412350Y-84884039D01*
X104145244Y-84773126D01*
X103856025Y-84772874D01*
X103588725Y-84883320D01*
X103384039Y-85087650D01*
X103273126Y-85354756D01*
X103272874Y-85643975D01*
X103383320Y-85911275D01*
X103587650Y-86115961D01*
X103854756Y-86226874D01*
X104023019Y-86227020D01*
X104022874Y-86393975D01*
X104133320Y-86661275D01*
X104337650Y-86865961D01*
X104604756Y-86976874D01*
X104893975Y-86977126D01*
X105161275Y-86866680D01*
X105365961Y-86662350D01*
X105476874Y-86395244D01*
X105477020Y-86226980D01*
X105643975Y-86227126D01*
X105911275Y-86116680D01*
X106115961Y-85912350D01*
X106226874Y-85645244D01*
X106227126Y-85356025D01*
X106227126Y-88873000D01*
X105727126Y-88873000D01*
X105727126Y-87606025D01*
X105616680Y-87338725D01*
X105412350Y-87134039D01*
X105145244Y-87023126D01*
X104856025Y-87022874D01*
X104588725Y-87133320D01*
X104384039Y-87337650D01*
X104273126Y-87604756D01*
X104272874Y-87893975D01*
X104383320Y-88161275D01*
X104587650Y-88365961D01*
X104854756Y-88476874D01*
X105143975Y-88477126D01*
X105411275Y-88366680D01*
X105615961Y-88162350D01*
X105726874Y-87895244D01*
X105727126Y-87606025D01*
X105727126Y-88873000D01*
X103127000Y-88873000D01*
X103127000Y-88135765D01*
X103226874Y-87895244D01*
X103227126Y-87606025D01*
X103127000Y-87363701D01*
X103127000Y-86500000D01*
X103127000Y-78373000D01*
X100127000Y-78373000D01*
X100127000Y-72127000D01*
X113022888Y-72127000D01*
X113022874Y-72143975D01*
X113133320Y-72411275D01*
X113221866Y-72499975D01*
X113134039Y-72587650D01*
X113023126Y-72854756D01*
X113022874Y-73143975D01*
X113133320Y-73411275D01*
X113337650Y-73615961D01*
X113604756Y-73726874D01*
X113893975Y-73727126D01*
X114161275Y-73616680D01*
X114365961Y-73412350D01*
X114476874Y-73145244D01*
X114477126Y-72856025D01*
X114366680Y-72588725D01*
X114278133Y-72500024D01*
X114365961Y-72412350D01*
X114476874Y-72145244D01*
X114476889Y-72127000D01*
X115869157Y-72127000D01*
X115883320Y-72161275D01*
X116087650Y-72365961D01*
X116354756Y-72476874D01*
X116643975Y-72477126D01*
X116911275Y-72366680D01*
X117093858Y-72184413D01*
X117023126Y-72354756D01*
X117022874Y-72643975D01*
X117093924Y-72815929D01*
X116912350Y-72634039D01*
X116645244Y-72523126D01*
X116356025Y-72522874D01*
X116088725Y-72633320D01*
X115884039Y-72837650D01*
X115773126Y-73104756D01*
X115772874Y-73393975D01*
X115883320Y-73661275D01*
X116087650Y-73865961D01*
X116354756Y-73976874D01*
X116643975Y-73977126D01*
X116911275Y-73866680D01*
X117115961Y-73662350D01*
X117226874Y-73395244D01*
X117227126Y-73106025D01*
X117156075Y-72934070D01*
X117337650Y-73115961D01*
X117604756Y-73226874D01*
X117893975Y-73227126D01*
X118161275Y-73116680D01*
X118365961Y-72912350D01*
X118476874Y-72645244D01*
X118477126Y-72356025D01*
X118382494Y-72127000D01*
X121844794Y-72127000D01*
X121784039Y-72187650D01*
X121673126Y-72454756D01*
X121672874Y-72743975D01*
X121783320Y-73011275D01*
X121987650Y-73215961D01*
X122254756Y-73326874D01*
X122543975Y-73327126D01*
X122811275Y-73216680D01*
X123000149Y-73028133D01*
X123187650Y-73215961D01*
X123454756Y-73326874D01*
X123743975Y-73327126D01*
X124011275Y-73216680D01*
X124215961Y-73012350D01*
X124326874Y-72745244D01*
X124327126Y-72456025D01*
X124216680Y-72188725D01*
X124155062Y-72127000D01*
X124614234Y-72127000D01*
X124854756Y-72226874D01*
X125143975Y-72227126D01*
X125386298Y-72127000D01*
X128569578Y-72127000D01*
X128389250Y-72247492D01*
X128131507Y-72633231D01*
X128041000Y-73088242D01*
X128041000Y-73911758D01*
X128131507Y-74366769D01*
X128389250Y-74752508D01*
X128774989Y-75010251D01*
X129230000Y-75100758D01*
X129685011Y-75010251D01*
X130070750Y-74752508D01*
X130328493Y-74366769D01*
X130419000Y-73911758D01*
X130419000Y-73088242D01*
X130328493Y-72633231D01*
X130070750Y-72247492D01*
X129890421Y-72127000D01*
X130641087Y-72127000D01*
X130581000Y-72272064D01*
X130581000Y-72441935D01*
X130581000Y-74727935D01*
X130646007Y-74884876D01*
X130766124Y-75004993D01*
X130923064Y-75070000D01*
X131092935Y-75070000D01*
X132616935Y-75070000D01*
X132773876Y-75004993D01*
X132893993Y-74884876D01*
X132959000Y-74727936D01*
X132959000Y-74558065D01*
X132959000Y-72272065D01*
X132898912Y-72127000D01*
X134373000Y-72127000D01*
X134373000Y-75367699D01*
X134145244Y-75273126D01*
X133856025Y-75272874D01*
X133588725Y-75383320D01*
X133384039Y-75587650D01*
X133273126Y-75854756D01*
X133272874Y-76143975D01*
X133383320Y-76411275D01*
X133587650Y-76615961D01*
X133854756Y-76726874D01*
X134143975Y-76727126D01*
X134373000Y-76632494D01*
X134373000Y-83367699D01*
X134145244Y-83273126D01*
X133856025Y-83272874D01*
X133588725Y-83383320D01*
X133384039Y-83587650D01*
X133273126Y-83854756D01*
X133272874Y-84143975D01*
X133383320Y-84411275D01*
X133587650Y-84615961D01*
X133854756Y-84726874D01*
X134143975Y-84727126D01*
X134373000Y-84632494D01*
X134373000Y-88873000D01*
M02*
