G04 #@! TF.FileFunction,Soldermask,Top*
%FSLAX46Y46*%
G04 Gerber Fmt 4.6, Leading zero omitted, Abs format (unit mm)*
G04 Created by KiCad (PCBNEW (2014-11-13 BZR 5275)-product) date Thu 13 Nov 2014 07:34:44 PM EST*
%MOMM*%
G01*
G04 APERTURE LIST*
%ADD10C,0.100000*%
%ADD11R,2.286000X1.524000*%
%ADD12O,2.286000X1.524000*%
%ADD13C,2.000000*%
%ADD14C,2.200000*%
%ADD15R,0.300000X0.400000*%
%ADD16R,1.450000X1.150000*%
%ADD17R,1.524000X2.286000*%
%ADD18O,1.524000X2.286000*%
%ADD19R,1.150000X1.450000*%
%ADD20R,0.600000X0.600000*%
%ADD21R,1.800000X1.200000*%
%ADD22R,0.600000X0.650000*%
%ADD23R,0.650000X0.600000*%
%ADD24R,1.300000X0.900000*%
%ADD25R,1.300000X0.800000*%
%ADD26R,0.900000X1.300000*%
%ADD27R,0.800000X1.300000*%
%ADD28R,1.550000X0.600000*%
%ADD29O,1.550000X0.600000*%
%ADD30R,0.450000X1.450000*%
%ADD31O,0.450000X1.450000*%
%ADD32R,0.900000X0.950000*%
%ADD33R,0.950000X0.900000*%
%ADD34R,0.650000X0.700000*%
%ADD35R,0.700000X0.650000*%
%ADD36C,0.254000*%
G04 APERTURE END LIST*
D10*
D11*
X133000000Y-88270000D03*
D12*
X133000000Y-85730000D03*
D13*
X92000000Y-84000000D03*
D14*
X89450000Y-81450000D03*
X94550000Y-81450000D03*
X89450000Y-86550000D03*
X94550000Y-86550000D03*
D15*
X108750000Y-64200000D03*
X109650000Y-64200000D03*
X107800000Y-66750000D03*
X108700000Y-66750000D03*
X120950000Y-73000000D03*
X120050000Y-73000000D03*
D16*
X120500000Y-80100000D03*
X120500000Y-81900000D03*
D17*
X89460000Y-75000000D03*
D18*
X92000000Y-75000000D03*
X94540000Y-75000000D03*
D17*
X131770000Y-73500000D03*
D18*
X129230000Y-73500000D03*
D19*
X113650000Y-80250000D03*
X111850000Y-80250000D03*
D20*
X131000000Y-66450000D03*
X131000000Y-65550000D03*
D21*
X101500000Y-66950000D03*
X101500000Y-64050000D03*
D22*
X119500000Y-67550000D03*
X119500000Y-68450000D03*
X119500000Y-65450000D03*
X119500000Y-64550000D03*
D23*
X112300000Y-78750000D03*
X113200000Y-78750000D03*
X112300000Y-84250000D03*
X113200000Y-84250000D03*
D19*
X113650000Y-82750000D03*
X111850000Y-82750000D03*
D23*
X119050000Y-78750000D03*
X119950000Y-78750000D03*
X122550000Y-85750000D03*
X123450000Y-85750000D03*
X127950000Y-88500000D03*
X127050000Y-88500000D03*
D21*
X122750000Y-81700000D03*
X122750000Y-78800000D03*
D23*
X101950000Y-72750000D03*
X101050000Y-72750000D03*
D15*
X120950000Y-75500000D03*
X120050000Y-75500000D03*
D20*
X108700000Y-65500000D03*
X107800000Y-65500000D03*
X121050000Y-74250000D03*
X121950000Y-74250000D03*
D24*
X129600000Y-70950000D03*
X129600000Y-69050000D03*
D25*
X127400000Y-70000000D03*
D24*
X129600000Y-66950000D03*
X129600000Y-65050000D03*
D25*
X127400000Y-66000000D03*
D24*
X129600000Y-62950000D03*
X129600000Y-61050000D03*
D25*
X127400000Y-62000000D03*
D24*
X103900000Y-67550000D03*
X103900000Y-69450000D03*
D25*
X106100000Y-68500000D03*
D26*
X105950000Y-75900000D03*
X104050000Y-75900000D03*
D27*
X105000000Y-78100000D03*
D26*
X105950000Y-71400000D03*
X104050000Y-71400000D03*
D27*
X105000000Y-73600000D03*
D10*
G36*
X106181802Y-64492462D02*
X105757538Y-64068198D01*
X106181802Y-63643934D01*
X106606066Y-64068198D01*
X106181802Y-64492462D01*
X106181802Y-64492462D01*
G37*
G36*
X106818198Y-63856066D02*
X106393934Y-63431802D01*
X106818198Y-63007538D01*
X107242462Y-63431802D01*
X106818198Y-63856066D01*
X106818198Y-63856066D01*
G37*
G36*
X105318198Y-64507538D02*
X105742462Y-64931802D01*
X105318198Y-65356066D01*
X104893934Y-64931802D01*
X105318198Y-64507538D01*
X105318198Y-64507538D01*
G37*
G36*
X104681802Y-65143934D02*
X105106066Y-65568198D01*
X104681802Y-65992462D01*
X104257538Y-65568198D01*
X104681802Y-65143934D01*
X104681802Y-65143934D01*
G37*
D20*
X118050000Y-85750000D03*
X118950000Y-85750000D03*
X129050000Y-88500000D03*
X129950000Y-88500000D03*
X123000000Y-73450000D03*
X123000000Y-72550000D03*
X123000000Y-75050000D03*
X123000000Y-75950000D03*
X131950000Y-69000000D03*
X131050000Y-69000000D03*
X121700000Y-67250000D03*
X120800000Y-67250000D03*
X121700000Y-65750000D03*
X120800000Y-65750000D03*
X123000000Y-68450000D03*
X123000000Y-67550000D03*
X123000000Y-64550000D03*
X123000000Y-65450000D03*
X109250000Y-81050000D03*
X109250000Y-81950000D03*
X110500000Y-81050000D03*
X110500000Y-81950000D03*
X120300000Y-84250000D03*
X121200000Y-84250000D03*
X107750000Y-74950000D03*
X107750000Y-74050000D03*
X109000000Y-74950000D03*
X109000000Y-74050000D03*
X107750000Y-76550000D03*
X107750000Y-77450000D03*
X101050000Y-74000000D03*
X101950000Y-74000000D03*
X109000000Y-76550000D03*
X109000000Y-77450000D03*
X101950000Y-71500000D03*
X101050000Y-71500000D03*
X101000000Y-78450000D03*
X101000000Y-77550000D03*
X101950000Y-79500000D03*
X101050000Y-79500000D03*
X102500000Y-78450000D03*
X102500000Y-77550000D03*
D28*
X117700000Y-68405000D03*
D29*
X117700000Y-67135000D03*
X117700000Y-65865000D03*
X117700000Y-64595000D03*
X112300000Y-64595000D03*
X112300000Y-65865000D03*
X112300000Y-67135000D03*
X112300000Y-68405000D03*
D28*
X112300000Y-70595000D03*
D29*
X112300000Y-71865000D03*
X112300000Y-73135000D03*
X112300000Y-74405000D03*
X117700000Y-74405000D03*
X117700000Y-73135000D03*
X117700000Y-71865000D03*
X117700000Y-70595000D03*
D30*
X116025000Y-83700000D03*
D31*
X116675000Y-83700000D03*
X117325000Y-83700000D03*
X117975000Y-83700000D03*
X117975000Y-79300000D03*
X117325000Y-79300000D03*
X116675000Y-79300000D03*
X116025000Y-79300000D03*
D32*
X114500000Y-85750000D03*
X113000000Y-85750000D03*
X117250000Y-77500000D03*
X118750000Y-77500000D03*
X101750000Y-81500000D03*
X100250000Y-81500000D03*
X101750000Y-83000000D03*
X100250000Y-83000000D03*
D33*
X104750000Y-84000000D03*
X104750000Y-85500000D03*
D34*
X104700000Y-83000000D03*
X103800000Y-83000000D03*
D35*
X102750000Y-82700000D03*
X102750000Y-81800000D03*
D23*
X105050000Y-79250000D03*
X105950000Y-79250000D03*
D13*
X92000000Y-65250000D03*
D14*
X89450000Y-62700000D03*
X94550000Y-62700000D03*
X89450000Y-67800000D03*
X94550000Y-67800000D03*
D13*
X131000000Y-80000000D03*
D14*
X128450000Y-77450000D03*
X133550000Y-77450000D03*
X128450000Y-82550000D03*
X133550000Y-82550000D03*
D36*
G36*
X125873000Y-88673000D02*
X124127000Y-88673000D01*
X124127000Y-86927000D01*
X124127000Y-79500000D01*
X124127000Y-77623000D01*
X121500000Y-77623000D01*
X119552605Y-77623000D01*
X118552605Y-76623000D01*
X115447395Y-76623000D01*
X114947395Y-77123000D01*
X111447395Y-77123000D01*
X110697395Y-77873000D01*
X109877000Y-77873000D01*
X109877000Y-77552605D01*
X111052605Y-76377000D01*
X114552605Y-76377000D01*
X115052605Y-75877000D01*
X118697395Y-75877000D01*
X119697395Y-76877000D01*
X122000000Y-76877000D01*
X124127000Y-76877000D01*
X124127000Y-62473000D01*
X99673000Y-62473000D01*
X99673000Y-86927000D01*
X124127000Y-86927000D01*
X124127000Y-88673000D01*
X124000000Y-88673000D01*
X97927000Y-88673000D01*
X97927000Y-60727000D01*
X125873000Y-60727000D01*
X125873000Y-88673000D01*
X125873000Y-88673000D01*
G37*
X125873000Y-88673000D02*
X124127000Y-88673000D01*
X124127000Y-86927000D01*
X124127000Y-79500000D01*
X124127000Y-77623000D01*
X121500000Y-77623000D01*
X119552605Y-77623000D01*
X118552605Y-76623000D01*
X115447395Y-76623000D01*
X114947395Y-77123000D01*
X111447395Y-77123000D01*
X110697395Y-77873000D01*
X109877000Y-77873000D01*
X109877000Y-77552605D01*
X111052605Y-76377000D01*
X114552605Y-76377000D01*
X115052605Y-75877000D01*
X118697395Y-75877000D01*
X119697395Y-76877000D01*
X122000000Y-76877000D01*
X124127000Y-76877000D01*
X124127000Y-62473000D01*
X99673000Y-62473000D01*
X99673000Y-86927000D01*
X124127000Y-86927000D01*
X124127000Y-88673000D01*
X124000000Y-88673000D01*
X97927000Y-88673000D01*
X97927000Y-60727000D01*
X125873000Y-60727000D01*
X125873000Y-88673000D01*
G36*
X134873000Y-67373000D02*
X132127000Y-67373000D01*
X132127000Y-60127000D01*
X134873000Y-60127000D01*
X134873000Y-67373000D01*
X134873000Y-67373000D01*
G37*
X134873000Y-67373000D02*
X132127000Y-67373000D01*
X132127000Y-60127000D01*
X134873000Y-60127000D01*
X134873000Y-67373000D01*
M02*
