G04 #@! TF.FileFunction,Soldermask,Bot*
%FSLAX46Y46*%
G04 Gerber Fmt 4.6, Leading zero omitted, Abs format (unit mm)*
G04 Created by KiCad (PCBNEW (2014-11-13 BZR 5275)-product) date Thu 13 Nov 2014 07:34:44 PM EST*
%MOMM*%
G01*
G04 APERTURE LIST*
%ADD10C,0.100000*%
%ADD11R,2.286000X1.524000*%
%ADD12O,2.286000X1.524000*%
%ADD13C,2.000000*%
%ADD14C,2.200000*%
%ADD15R,1.524000X2.286000*%
%ADD16O,1.524000X2.286000*%
%ADD17R,0.900000X1.300000*%
%ADD18R,0.800000X1.300000*%
%ADD19R,1.300000X0.900000*%
%ADD20R,1.300000X0.800000*%
%ADD21R,0.600000X0.600000*%
%ADD22R,0.650000X0.700000*%
%ADD23R,0.650000X0.600000*%
%ADD24R,0.600000X0.650000*%
%ADD25R,1.150000X1.450000*%
%ADD26C,0.254000*%
G04 APERTURE END LIST*
D10*
D11*
X133000000Y-88270000D03*
D12*
X133000000Y-85730000D03*
D13*
X92000000Y-84000000D03*
D14*
X89450000Y-81450000D03*
X94550000Y-81450000D03*
X89450000Y-86550000D03*
X94550000Y-86550000D03*
D15*
X89460000Y-75000000D03*
D16*
X92000000Y-75000000D03*
X94540000Y-75000000D03*
D15*
X131770000Y-73500000D03*
D16*
X129230000Y-73500000D03*
D17*
X110950000Y-70100000D03*
X109050000Y-70100000D03*
D18*
X110000000Y-67900000D03*
D17*
X110950000Y-66100000D03*
X109050000Y-66100000D03*
D18*
X110000000Y-63900000D03*
D17*
X119050000Y-74900000D03*
X120950000Y-74900000D03*
D18*
X120000000Y-77100000D03*
D17*
X119050000Y-70900000D03*
X120950000Y-70900000D03*
D18*
X120000000Y-73100000D03*
D19*
X92100000Y-77550000D03*
X92100000Y-79450000D03*
D20*
X89900000Y-78500000D03*
D19*
X91900000Y-72450000D03*
X91900000Y-70550000D03*
D20*
X94100000Y-71500000D03*
D21*
X110000000Y-71550000D03*
X110000000Y-72450000D03*
X107000000Y-66950000D03*
X107000000Y-66050000D03*
X120000000Y-78550000D03*
X120000000Y-79450000D03*
X120450000Y-69500000D03*
X119550000Y-69500000D03*
D22*
X95550000Y-70000000D03*
X96450000Y-70000000D03*
X94050000Y-79000000D03*
X94950000Y-79000000D03*
D23*
X128700000Y-66000000D03*
X127800000Y-66000000D03*
X122050000Y-79500000D03*
X122950000Y-79500000D03*
X99950000Y-73500000D03*
X99050000Y-73500000D03*
D24*
X119500000Y-83950000D03*
X119500000Y-83050000D03*
D23*
X100450000Y-66000000D03*
X99550000Y-66000000D03*
X105050000Y-79250000D03*
X105950000Y-79250000D03*
X106200000Y-68000000D03*
X105300000Y-68000000D03*
X107450000Y-73000000D03*
X106550000Y-73000000D03*
X121050000Y-68500000D03*
X121950000Y-68500000D03*
D25*
X104600000Y-80750000D03*
X106400000Y-80750000D03*
X129900000Y-64250000D03*
X128100000Y-64250000D03*
X107650000Y-71500000D03*
X105850000Y-71500000D03*
X119600000Y-67000000D03*
X121400000Y-67000000D03*
X121600000Y-81000000D03*
X123400000Y-81000000D03*
X106650000Y-69500000D03*
X104850000Y-69500000D03*
D13*
X92000000Y-65250000D03*
D14*
X89450000Y-62700000D03*
X94550000Y-62700000D03*
X89450000Y-67800000D03*
X94550000Y-67800000D03*
D13*
X131000000Y-80000000D03*
D14*
X128450000Y-77450000D03*
X133550000Y-77450000D03*
X128450000Y-82550000D03*
X133550000Y-82550000D03*
D26*
G36*
X134873000Y-67373000D02*
X132127000Y-67373000D01*
X132127000Y-60127000D01*
X134873000Y-60127000D01*
X134873000Y-67373000D01*
X134873000Y-67373000D01*
G37*
X134873000Y-67373000D02*
X132127000Y-67373000D01*
X132127000Y-60127000D01*
X134873000Y-60127000D01*
X134873000Y-67373000D01*
G36*
X117373000Y-84447395D02*
X116947395Y-84873000D01*
X109552605Y-84873000D01*
X109127000Y-84447395D01*
X109127000Y-81552605D01*
X109552605Y-81127000D01*
X116947395Y-81127000D01*
X117373000Y-81552605D01*
X117373000Y-84447395D01*
X117373000Y-84447395D01*
G37*
X117373000Y-84447395D02*
X116947395Y-84873000D01*
X109552605Y-84873000D01*
X109127000Y-84447395D01*
X109127000Y-81552605D01*
X109552605Y-81127000D01*
X116947395Y-81127000D01*
X117373000Y-81552605D01*
X117373000Y-84447395D01*
M02*
