M48
;DRILL file {kicad (2014-11-13 BZR 5275)-product} date Thu 13 Nov 2014 07:34:45 PM EST
;FORMAT={-:-/ absolute / inch / decimal}
FMAT,2
INCH,TZ
T1C0.012
T2C0.040
T3C0.055
T4C0.059
%
G90
G05
M72
T1
X3.8878Y-2.4705
X3.8878Y-2.5689
X3.8878Y-2.6673
X3.8878Y-2.7657
X3.8878Y-2.8642
X3.8878Y-2.9626
X3.8878Y-3.061
X3.8878Y-3.1594
X3.8878Y-3.3563
X3.8878Y-3.4547
X3.9469Y-2.8543
X3.9469Y-2.8543
X3.9469Y-3.2382
X3.9469Y-3.2972
X3.9764Y-3.1594
X3.9862Y-2.4213
X3.9961Y-2.5984
X3.9961Y-2.5984
X4.0354Y-3.4547
X4.0846Y-2.4213
X4.0945Y-3.3661
X4.1024Y-2.5669
X4.1043Y-2.5984
X4.1043Y-3.1201
X4.124Y-3.3957
X4.1339Y-3.4547
X4.1417Y-2.5984
X4.1535Y-3.3661
X4.1634Y-2.5394
X4.1634Y-2.5394
X4.1634Y-2.5394
X4.1831Y-2.4213
X4.189Y-2.4803
X4.1929Y-3.1201
X4.2126Y-2.9134
X4.2126Y-3.0512
X4.2224Y-2.4803
X4.2244Y-2.5157
X4.2323Y-3.4547
X4.2421Y-2.6772
X4.2677Y-2.9134
X4.2677Y-3.0472
X4.2717Y-3.2283
X4.2815Y-2.4213
X4.2913Y-2.6772
X4.2913Y-2.6772
X4.2913Y-2.8642
X4.3012Y-3.1201
X4.3209Y-2.9134
X4.3209Y-3.0512
X4.3307Y-3.4547
X4.3799Y-2.4213
X4.3799Y-2.5
X4.3799Y-2.5
X4.3799Y-2.7953
X4.3799Y-2.7953
X4.3898Y-3.3465
X4.3898Y-3.4055
X4.4193Y-2.6181
X4.4193Y-2.9528
X4.4193Y-3.0217
X4.4291Y-3.4547
X4.4685Y-2.5886
X4.4685Y-2.6476
X4.4685Y-2.7756
X4.4685Y-2.9331
X4.4783Y-2.4213
X4.4783Y-2.8346
X4.4783Y-2.874
X4.4783Y-2.874
X4.5177Y-3.0217
X4.5276Y-3.4547
X4.5669Y-3.3465
X4.5768Y-2.4213
X4.5866Y-2.5394
X4.5866Y-2.5984
X4.5866Y-2.6378
X4.5866Y-2.6969
X4.5866Y-2.8248
X4.5866Y-2.8839
X4.5965Y-3.002
X4.5965Y-3.248
X4.626Y-2.7165
X4.626Y-3.4547
X4.6358Y-2.5197
X4.6358Y-2.8543
X4.6358Y-3.2382
X4.6752Y-2.4213
X4.6752Y-3.002
X4.7244Y-2.7953
X4.7244Y-2.7953
X4.7244Y-3.4547
X4.7539Y-3.002
X4.7539Y-3.002
X4.7638Y-2.5098
X4.7638Y-2.7362
X4.7638Y-3.1102
X4.7638Y-3.3563
X4.7736Y-2.4213
X4.7736Y-3.0413
X4.8031Y-2.7264
X4.813Y-3.3268
X4.8189Y-2.8583
X4.8189Y-2.9921
X4.8228Y-2.6181
X4.8228Y-3.4547
X4.8425Y-2.8346
X4.8425Y-2.9232
X4.8425Y-3.0157
X4.8622Y-2.6181
X4.8661Y-2.8583
X4.8661Y-2.9921
X4.8819Y-3.0709
X4.9213Y-2.4213
X4.9213Y-2.5197
X4.9213Y-2.6181
X4.9213Y-2.7165
X4.9213Y-2.815
X4.9213Y-2.9134
X4.9213Y-3.0118
X4.9213Y-3.1102
X4.9213Y-3.2087
X4.9213Y-3.3071
X4.9213Y-3.4055
X5.Y-2.4803
X5.Y-2.4803
X5.Y-2.4803
X5.Y-2.4803
X5.Y-2.4803
X5.Y-2.6378
X5.0394Y-3.4055
X5.0394Y-3.4055
X5.1575Y-2.5197
T2
X3.522Y-2.9528
X3.622Y-2.9528
X3.722Y-2.9528
X5.0878Y-2.8937
X5.1878Y-2.8937
X5.2362Y-3.3752
X5.2362Y-3.4752
T3
X3.622Y-2.5689
X3.622Y-3.3071
X5.1575Y-3.1496
T4
X3.5217Y-2.4685
X3.5217Y-2.6693
X3.5217Y-3.2067
X3.5217Y-3.4075
X3.7224Y-2.4685
X3.7224Y-2.6693
X3.7224Y-3.2067
X3.7224Y-3.4075
X5.0571Y-3.0492
X5.0571Y-3.25
X5.2579Y-3.0492
X5.2579Y-3.25
T0
M30
