G04 #@! TF.FileFunction,Copper,L4,Bot,Signal*
%FSLAX46Y46*%
G04 Gerber Fmt 4.6, Leading zero omitted, Abs format (unit mm)*
G04 Created by KiCad (PCBNEW (2014-11-08 BZR 5258)-product) date Tue 11 Nov 2014 02:41:21 PM EST*
%MOMM*%
G01*
G04 APERTURE LIST*
%ADD10C,0.100000*%
%ADD11C,0.200000*%
%ADD12C,0.300000*%
%ADD13R,1.524000X2.286000*%
%ADD14O,1.524000X2.286000*%
%ADD15R,2.286000X1.524000*%
%ADD16O,2.286000X1.524000*%
%ADD17R,0.900000X1.300000*%
%ADD18R,0.800000X1.300000*%
%ADD19R,1.300000X0.900000*%
%ADD20R,1.300000X0.800000*%
%ADD21R,0.600000X0.600000*%
%ADD22R,0.650000X0.700000*%
%ADD23R,0.650000X0.600000*%
%ADD24R,0.600000X0.650000*%
%ADD25R,1.150000X1.450000*%
%ADD26C,0.600000*%
%ADD27C,0.600000*%
%ADD28C,0.400000*%
%ADD29C,0.350000*%
G04 APERTURE END LIST*
D10*
D11*
X115630952Y-81652381D02*
X115392857Y-82652381D01*
X115202380Y-81938095D01*
X115011904Y-82652381D01*
X114773809Y-81652381D01*
X113821428Y-82557143D02*
X113869047Y-82604762D01*
X114011904Y-82652381D01*
X114107142Y-82652381D01*
X114250000Y-82604762D01*
X114345238Y-82509524D01*
X114392857Y-82414286D01*
X114440476Y-82223810D01*
X114440476Y-82080952D01*
X114392857Y-81890476D01*
X114345238Y-81795238D01*
X114250000Y-81700000D01*
X114107142Y-81652381D01*
X114011904Y-81652381D01*
X113869047Y-81700000D01*
X113821428Y-81747619D01*
X113392857Y-82652381D02*
X113392857Y-81652381D01*
X113011904Y-81652381D01*
X112916666Y-81700000D01*
X112869047Y-81747619D01*
X112821428Y-81842857D01*
X112821428Y-81985714D01*
X112869047Y-82080952D01*
X112916666Y-82128571D01*
X113011904Y-82176190D01*
X113392857Y-82176190D01*
X111916666Y-81652381D02*
X112392857Y-81652381D01*
X112440476Y-82128571D01*
X112392857Y-82080952D01*
X112297619Y-82033333D01*
X112059523Y-82033333D01*
X111964285Y-82080952D01*
X111916666Y-82128571D01*
X111869047Y-82223810D01*
X111869047Y-82461905D01*
X111916666Y-82557143D01*
X111964285Y-82604762D01*
X112059523Y-82652381D01*
X112297619Y-82652381D01*
X112392857Y-82604762D01*
X112440476Y-82557143D01*
X111488095Y-81747619D02*
X111440476Y-81700000D01*
X111345238Y-81652381D01*
X111107142Y-81652381D01*
X111011904Y-81700000D01*
X110964285Y-81747619D01*
X110916666Y-81842857D01*
X110916666Y-81938095D01*
X110964285Y-82080952D01*
X111535714Y-82652381D01*
X110916666Y-82652381D01*
X116511904Y-83728571D02*
X116845238Y-83728571D01*
X116845238Y-84252381D02*
X116845238Y-83252381D01*
X116369047Y-83252381D01*
X115416666Y-84252381D02*
X115750000Y-83776190D01*
X115988095Y-84252381D02*
X115988095Y-83252381D01*
X115607142Y-83252381D01*
X115511904Y-83300000D01*
X115464285Y-83347619D01*
X115416666Y-83442857D01*
X115416666Y-83585714D01*
X115464285Y-83680952D01*
X115511904Y-83728571D01*
X115607142Y-83776190D01*
X115988095Y-83776190D01*
X114797619Y-83252381D02*
X114607142Y-83252381D01*
X114511904Y-83300000D01*
X114416666Y-83395238D01*
X114369047Y-83585714D01*
X114369047Y-83919048D01*
X114416666Y-84109524D01*
X114511904Y-84204762D01*
X114607142Y-84252381D01*
X114797619Y-84252381D01*
X114892857Y-84204762D01*
X114988095Y-84109524D01*
X115035714Y-83919048D01*
X115035714Y-83585714D01*
X114988095Y-83395238D01*
X114892857Y-83300000D01*
X114797619Y-83252381D01*
X113940476Y-84252381D02*
X113940476Y-83252381D01*
X113369047Y-84252381D01*
X113369047Y-83252381D01*
X113035714Y-83252381D02*
X112464285Y-83252381D01*
X112750000Y-84252381D02*
X112750000Y-83252381D01*
X112130952Y-83728571D02*
X111797618Y-83728571D01*
X111654761Y-84252381D02*
X112130952Y-84252381D01*
X112130952Y-83252381D01*
X111654761Y-83252381D01*
X111226190Y-84252381D02*
X111226190Y-83252381D01*
X110654761Y-84252381D01*
X110654761Y-83252381D01*
X110178571Y-84252381D02*
X110178571Y-83252381D01*
X109940476Y-83252381D01*
X109797618Y-83300000D01*
X109702380Y-83395238D01*
X109654761Y-83490476D01*
X109607142Y-83680952D01*
X109607142Y-83823810D01*
X109654761Y-84014286D01*
X109702380Y-84109524D01*
X109797618Y-84204762D01*
X109940476Y-84252381D01*
X110178571Y-84252381D01*
D12*
X133178571Y-61214285D02*
X134178571Y-61214285D01*
X132607143Y-61571428D02*
X133678571Y-61928571D01*
X133678571Y-60999999D01*
D13*
X89460000Y-75000000D03*
D14*
X92000000Y-75000000D03*
X94540000Y-75000000D03*
D13*
X131770000Y-73500000D03*
D14*
X129230000Y-73500000D03*
D15*
X132000000Y-88270000D03*
D16*
X132000000Y-85730000D03*
D17*
X110950000Y-70100000D03*
X109050000Y-70100000D03*
D18*
X110000000Y-67900000D03*
D17*
X110950000Y-66100000D03*
X109050000Y-66100000D03*
D18*
X110000000Y-63900000D03*
D17*
X119050000Y-74900000D03*
X120950000Y-74900000D03*
D18*
X120000000Y-77100000D03*
D17*
X119050000Y-70900000D03*
X120950000Y-70900000D03*
D18*
X120000000Y-73100000D03*
D19*
X92100000Y-78050000D03*
X92100000Y-79950000D03*
D20*
X89900000Y-79000000D03*
D17*
X92050000Y-69900000D03*
X93950000Y-69900000D03*
D18*
X93000000Y-72100000D03*
D21*
X110000000Y-71550000D03*
X110000000Y-72450000D03*
X107000000Y-66950000D03*
X107000000Y-66050000D03*
X120000000Y-78550000D03*
X120000000Y-79450000D03*
X120450000Y-69500000D03*
X119550000Y-69500000D03*
D22*
X95550000Y-70000000D03*
X96450000Y-70000000D03*
X94550000Y-80000000D03*
X95450000Y-80000000D03*
D23*
X128700000Y-66000000D03*
X127800000Y-66000000D03*
X122050000Y-79500000D03*
X122950000Y-79500000D03*
X99950000Y-73500000D03*
X99050000Y-73500000D03*
D24*
X119500000Y-83950000D03*
X119500000Y-83050000D03*
D23*
X100450000Y-66000000D03*
X99550000Y-66000000D03*
X105050000Y-79250000D03*
X105950000Y-79250000D03*
X106200000Y-68000000D03*
X105300000Y-68000000D03*
X107450000Y-73000000D03*
X106550000Y-73000000D03*
X121050000Y-68500000D03*
X121950000Y-68500000D03*
D25*
X104600000Y-80750000D03*
X106400000Y-80750000D03*
X129900000Y-64250000D03*
X128100000Y-64250000D03*
X107650000Y-71500000D03*
X105850000Y-71500000D03*
X119600000Y-67000000D03*
X121400000Y-67000000D03*
X121600000Y-81000000D03*
X123400000Y-81000000D03*
X106650000Y-69500000D03*
X104850000Y-69500000D03*
D26*
X104250000Y-79250000D03*
X109000000Y-72750000D03*
X121000000Y-79000000D03*
X121000000Y-85250000D03*
X102500000Y-87750000D03*
X105000000Y-87750000D03*
X107500000Y-87750000D03*
X110000000Y-87750000D03*
X112500000Y-87750000D03*
X115000000Y-87750000D03*
X117500000Y-87750000D03*
X120000000Y-87750000D03*
X125000000Y-86500000D03*
X125000000Y-84000000D03*
X125000000Y-81500000D03*
X125000000Y-79000000D03*
X125000000Y-76500000D03*
X125000000Y-74000000D03*
X125000000Y-71500000D03*
X125000000Y-69000000D03*
X125000000Y-66500000D03*
X125000000Y-64000000D03*
X125000000Y-61500000D03*
X121250000Y-61500000D03*
X118750000Y-61500000D03*
X116250000Y-61500000D03*
X113750000Y-61500000D03*
X111250000Y-61500000D03*
X108750000Y-61500000D03*
X106250000Y-61500000D03*
X103750000Y-61500000D03*
X101250000Y-61500000D03*
X98750000Y-62750000D03*
X98750000Y-65250000D03*
X98750000Y-67750000D03*
X98750000Y-70250000D03*
X98750000Y-72750000D03*
X98750000Y-75250000D03*
X98750000Y-80250000D03*
X98750000Y-85250000D03*
X98750000Y-87750000D03*
X109750000Y-74000000D03*
X108400000Y-74000000D03*
X107000000Y-74000000D03*
X109750000Y-77500000D03*
X108400000Y-77400000D03*
X123000000Y-76600000D03*
X123600000Y-76000000D03*
X122400000Y-76000000D03*
X123000000Y-72000000D03*
X122400000Y-72600000D03*
X123600000Y-72600000D03*
X105200000Y-66000000D03*
X104200000Y-65200000D03*
X104250000Y-66000000D03*
X107300000Y-63900000D03*
X107250000Y-63000000D03*
X106400000Y-63000000D03*
X121000000Y-63750000D03*
X112250000Y-75000000D03*
X113500000Y-74500000D03*
X116500000Y-73250000D03*
X116500000Y-71750000D03*
X117750000Y-72500000D03*
X111250000Y-71000000D03*
X111250000Y-71000000D03*
X113500000Y-70500000D03*
X117500000Y-69000000D03*
X116500000Y-68500000D03*
X116500000Y-64500000D03*
X117750000Y-64000000D03*
X113500000Y-67250000D03*
X113500000Y-65750000D03*
X112250000Y-66500000D03*
X108500000Y-82000000D03*
X123000000Y-78500000D03*
X121250000Y-77250000D03*
X118750000Y-76250000D03*
X116750000Y-76250000D03*
X114750000Y-76750000D03*
X112250000Y-76750000D03*
X109250000Y-79250000D03*
X107000000Y-77500000D03*
X106500000Y-79250000D03*
X98750000Y-77750000D03*
X122500000Y-87750000D03*
X128000000Y-76000000D03*
X129500000Y-76000000D03*
X131000000Y-76000000D03*
X132500000Y-76000000D03*
X134000000Y-76000000D03*
X128000000Y-84000000D03*
X129500000Y-84000000D03*
X131000000Y-84000000D03*
X132500000Y-84000000D03*
X134000000Y-84000000D03*
X89000000Y-88000000D03*
X90500000Y-88000000D03*
X92000000Y-88000000D03*
X93500000Y-88000000D03*
X95000000Y-88000000D03*
X89000000Y-80000000D03*
X90500000Y-80000000D03*
X96000000Y-82000000D03*
X96000000Y-81000000D03*
X89000000Y-69000000D03*
X90500000Y-69000000D03*
X96000000Y-67000000D03*
X96000000Y-68500000D03*
X89000000Y-61000000D03*
X90500000Y-61000000D03*
X92000000Y-61000000D03*
X93500000Y-61000000D03*
X95000000Y-61000000D03*
X109000000Y-64000000D03*
X122000000Y-69250000D03*
X116750000Y-82500000D03*
X117750000Y-82250000D03*
X104000000Y-85500000D03*
X104750000Y-86250000D03*
X105500000Y-85500000D03*
X100250000Y-82250000D03*
X100250000Y-83750000D03*
X100250000Y-72500000D03*
X100250000Y-72500000D03*
X131000000Y-64000000D03*
X101500000Y-66000000D03*
X101500000Y-66000000D03*
X107750000Y-67000000D03*
X121000000Y-69500000D03*
X113750000Y-73000000D03*
X113750000Y-73000000D03*
X116500000Y-67000000D03*
X113750000Y-72000000D03*
X116500000Y-66000000D03*
X128000000Y-86500000D03*
X128000000Y-86500000D03*
X122250000Y-84500000D03*
X109000000Y-68000000D03*
X109000000Y-68000000D03*
X111250000Y-63500000D03*
X111250000Y-63500000D03*
X120750000Y-76250000D03*
X120750000Y-76250000D03*
X120000000Y-71000000D03*
X120000000Y-71000000D03*
X94250000Y-65000000D03*
X94250000Y-65000000D03*
X105750000Y-64500000D03*
X105750000Y-64500000D03*
X105750000Y-64500000D03*
X123000000Y-74250000D03*
X129000000Y-80000000D03*
X94000000Y-84000000D03*
X94000000Y-84000000D03*
X101000000Y-80250000D03*
X127000000Y-67000000D03*
X122500000Y-66500000D03*
X127000000Y-63000000D03*
X127000000Y-63000000D03*
X127000000Y-63000000D03*
X127000000Y-63000000D03*
X127000000Y-63000000D03*
X123500000Y-66500000D03*
D27*
X105050000Y-79250000D02*
X104250000Y-79250000D01*
X107450000Y-73000000D02*
X107450000Y-71700000D01*
X107450000Y-71700000D02*
X107650000Y-71500000D01*
X107450000Y-73000000D02*
X108750000Y-73000000D01*
X108750000Y-73000000D02*
X109000000Y-72750000D01*
X122050000Y-79950000D02*
X121600000Y-80400000D01*
X121600000Y-80400000D02*
X121600000Y-81000000D01*
X122050000Y-79500000D02*
X122050000Y-79950000D01*
X108983942Y-72733942D02*
X109000000Y-72750000D01*
X105050000Y-79700000D02*
X104600000Y-80150000D01*
X104600000Y-80150000D02*
X104600000Y-80750000D01*
X105050000Y-79250000D02*
X105050000Y-79700000D01*
X119500000Y-84750000D02*
X120000000Y-85250000D01*
X120000000Y-85250000D02*
X121000000Y-85250000D01*
X119500000Y-83950000D02*
X119500000Y-84750000D01*
X122050000Y-79500000D02*
X121500000Y-79500000D01*
X121500000Y-79500000D02*
X121000000Y-79000000D01*
X103750000Y-79250000D02*
X104250000Y-79250000D01*
X103750000Y-79250000D02*
X102500000Y-78000000D01*
X99750000Y-78000000D02*
X102500000Y-78000000D01*
X97750000Y-80000000D02*
X99750000Y-78000000D01*
X97750000Y-80000000D02*
X95450000Y-80000000D01*
D28*
X109300000Y-72450000D02*
X109000000Y-72750000D01*
X110000000Y-72450000D02*
X109300000Y-72450000D01*
X120550000Y-79450000D02*
X121000000Y-79000000D01*
X120000000Y-79450000D02*
X120550000Y-79450000D01*
D27*
X106000000Y-73000000D02*
X105850000Y-72850000D01*
X105850000Y-72850000D02*
X105850000Y-71500000D01*
X106550000Y-73000000D02*
X106000000Y-73000000D01*
X106550000Y-73000000D02*
X106550000Y-73550000D01*
X106550000Y-73550000D02*
X107000000Y-74000000D01*
X104850000Y-68900000D02*
X105300000Y-68450000D01*
X105300000Y-68450000D02*
X105300000Y-68000000D01*
X104850000Y-69500000D02*
X104850000Y-68900000D01*
X122950000Y-79950000D02*
X123400000Y-80400000D01*
X123400000Y-80400000D02*
X123400000Y-81000000D01*
X122950000Y-79500000D02*
X122950000Y-79950000D01*
X121950000Y-68500000D02*
X121950000Y-67550000D01*
X121950000Y-67550000D02*
X121400000Y-67000000D01*
X128100000Y-65150000D02*
X127800000Y-65450000D01*
X127800000Y-65450000D02*
X127800000Y-66000000D01*
X128100000Y-64250000D02*
X128100000Y-65150000D01*
X105950000Y-79700000D02*
X106400000Y-80150000D01*
X106400000Y-80150000D02*
X106400000Y-80750000D01*
X105950000Y-79250000D02*
X105950000Y-79700000D01*
X98750000Y-65750000D02*
X99000000Y-66000000D01*
X99000000Y-66000000D02*
X99550000Y-66000000D01*
X98750000Y-65250000D02*
X98750000Y-65750000D01*
X119250000Y-82250000D02*
X119500000Y-82500000D01*
X119500000Y-82500000D02*
X119500000Y-83050000D01*
X117750000Y-82250000D02*
X119250000Y-82250000D01*
X99050000Y-73500000D02*
X98750000Y-73200000D01*
X98750000Y-73200000D02*
X98750000Y-72750000D01*
X123000000Y-78500000D02*
X123000000Y-79450000D01*
X123000000Y-79450000D02*
X122950000Y-79500000D01*
X126500000Y-66000000D02*
X126000000Y-66500000D01*
X126000000Y-66500000D02*
X125000000Y-66500000D01*
X127800000Y-66000000D02*
X126500000Y-66000000D01*
X121950000Y-68500000D02*
X121950000Y-69200000D01*
X121950000Y-69200000D02*
X122000000Y-69250000D01*
X105300000Y-68000000D02*
X105300000Y-66100000D01*
X105300000Y-66100000D02*
X105200000Y-66000000D01*
X105950000Y-79250000D02*
X106500000Y-79250000D01*
X111250000Y-71000000D02*
X110950000Y-70700000D01*
X110950000Y-70700000D02*
X110950000Y-70100000D01*
X91250000Y-72750000D02*
X92000000Y-73500000D01*
X92000000Y-73500000D02*
X92000000Y-75000000D01*
X91250000Y-71750000D02*
X91250000Y-72750000D01*
X92050000Y-70950000D02*
X91250000Y-71750000D01*
X92050000Y-69900000D02*
X92050000Y-70950000D01*
X92100000Y-78050000D02*
X92100000Y-75100000D01*
X92100000Y-75100000D02*
X92000000Y-75000000D01*
D28*
X109100000Y-63900000D02*
X109000000Y-64000000D01*
X110000000Y-63900000D02*
X109100000Y-63900000D01*
X119050000Y-74900000D02*
X119050000Y-73450000D01*
X119400000Y-73100000D02*
X120000000Y-73100000D01*
X119050000Y-73450000D02*
X119400000Y-73100000D01*
X119050000Y-75950000D02*
X118750000Y-76250000D01*
X119050000Y-74900000D02*
X119050000Y-75950000D01*
D27*
X106650000Y-68900000D02*
X106200000Y-68450000D01*
X106200000Y-68450000D02*
X106200000Y-68000000D01*
X106650000Y-69500000D02*
X106650000Y-68900000D01*
X120000000Y-68500000D02*
X119600000Y-68100000D01*
X119600000Y-68100000D02*
X119600000Y-67000000D01*
X121050000Y-68500000D02*
X120000000Y-68500000D01*
X129900000Y-64250000D02*
X130750000Y-64250000D01*
X130750000Y-64250000D02*
X131000000Y-64000000D01*
X100450000Y-66000000D02*
X101500000Y-66000000D01*
X99950000Y-73500000D02*
X99950000Y-72800000D01*
X99950000Y-72800000D02*
X100250000Y-72500000D01*
X130000000Y-66000000D02*
X131000000Y-65000000D01*
X131000000Y-65000000D02*
X131000000Y-64000000D01*
X128700000Y-66000000D02*
X130000000Y-66000000D01*
X121050000Y-68500000D02*
X121050000Y-69450000D01*
X121050000Y-69450000D02*
X121000000Y-69500000D01*
X106200000Y-68000000D02*
X106850000Y-68000000D01*
X107000000Y-67850000D02*
X107000000Y-66950000D01*
X106850000Y-68000000D02*
X107000000Y-67850000D01*
X96450000Y-70000000D02*
X96750000Y-70000000D01*
X96750000Y-70000000D02*
X98000000Y-71250000D01*
X98000000Y-71250000D02*
X99750000Y-71250000D01*
X99750000Y-71250000D02*
X101500000Y-69500000D01*
X101500000Y-69500000D02*
X101500000Y-66000000D01*
D28*
X107700000Y-66950000D02*
X107750000Y-67000000D01*
X107000000Y-66950000D02*
X107700000Y-66950000D01*
X120450000Y-69500000D02*
X121000000Y-69500000D01*
X116500000Y-67000000D02*
X115500000Y-68000000D01*
X115500000Y-68000000D02*
X115500000Y-72250000D01*
X115500000Y-72250000D02*
X114750000Y-73000000D01*
X114750000Y-73000000D02*
X113750000Y-73000000D01*
X116500000Y-66000000D02*
X116000000Y-66000000D01*
X116000000Y-66000000D02*
X114750000Y-67250000D01*
X114750000Y-67250000D02*
X114750000Y-71750000D01*
X114750000Y-71750000D02*
X114500000Y-72000000D01*
X114500000Y-72000000D02*
X113750000Y-72000000D01*
D29*
X126750000Y-85250000D02*
X128000000Y-86500000D01*
X123750000Y-85250000D02*
X126750000Y-85250000D01*
X123750000Y-85250000D02*
X123000000Y-84500000D01*
X123000000Y-84500000D02*
X122250000Y-84500000D01*
D28*
X110000000Y-71550000D02*
X110000000Y-67900000D01*
X109100000Y-67900000D02*
X109000000Y-68000000D01*
X110000000Y-67900000D02*
X109100000Y-67900000D01*
X110950000Y-66100000D02*
X110950000Y-65450000D01*
X110950000Y-65450000D02*
X110500000Y-65000000D01*
X110500000Y-65000000D02*
X107500000Y-65000000D01*
X107000000Y-65500000D02*
X107000000Y-66050000D01*
X107500000Y-65000000D02*
X107000000Y-65500000D01*
X110950000Y-63800000D02*
X111250000Y-63500000D01*
X110950000Y-66100000D02*
X110950000Y-63800000D01*
X120000000Y-77100000D02*
X120000000Y-78550000D01*
X120000000Y-77000000D02*
X120750000Y-76250000D01*
X120000000Y-77100000D02*
X120000000Y-77000000D01*
X119550000Y-69500000D02*
X119250000Y-69500000D01*
X119250000Y-69500000D02*
X119000000Y-69750000D01*
X119000000Y-69750000D02*
X119000000Y-70000000D01*
X119050000Y-70050000D02*
X119050000Y-70900000D01*
X119000000Y-70000000D02*
X119050000Y-70050000D01*
X119900000Y-70900000D02*
X120000000Y-71000000D01*
X119050000Y-70900000D02*
X119900000Y-70900000D01*
D27*
X93700000Y-79950000D02*
X93750000Y-80000000D01*
X93750000Y-80000000D02*
X94550000Y-80000000D01*
X92100000Y-79950000D02*
X93700000Y-79950000D01*
X94650000Y-69900000D02*
X94750000Y-70000000D01*
X94750000Y-70000000D02*
X95550000Y-70000000D01*
X93950000Y-69900000D02*
X94650000Y-69900000D01*
D29*
X95250000Y-64000000D02*
X94250000Y-65000000D01*
X105750000Y-64500000D02*
X105250000Y-64000000D01*
X105250000Y-64000000D02*
X95250000Y-64000000D01*
X123000000Y-74250000D02*
X123500000Y-74250000D01*
X123500000Y-74250000D02*
X124500000Y-75250000D01*
X124500000Y-75250000D02*
X125750000Y-75250000D01*
X125750000Y-75250000D02*
X126500000Y-76000000D01*
X126500000Y-76000000D02*
X126500000Y-79250000D01*
X126500000Y-79250000D02*
X127250000Y-80000000D01*
X127250000Y-80000000D02*
X129000000Y-80000000D01*
D27*
X89460000Y-77460000D02*
X89900000Y-77900000D01*
X89900000Y-77900000D02*
X89900000Y-79000000D01*
X89460000Y-75000000D02*
X89460000Y-77460000D01*
D29*
X101000000Y-80250000D02*
X97250000Y-84000000D01*
X97250000Y-84000000D02*
X94000000Y-84000000D01*
X126500000Y-67500000D02*
X123500000Y-67500000D01*
X123500000Y-67500000D02*
X122500000Y-66500000D01*
X127000000Y-67000000D02*
X126500000Y-67500000D01*
X124000000Y-65500000D02*
X123500000Y-66000000D01*
X123500000Y-66000000D02*
X123500000Y-66500000D01*
X126000000Y-65500000D02*
X124000000Y-65500000D01*
X127000000Y-64500000D02*
X126000000Y-65500000D01*
X127000000Y-63000000D02*
X127000000Y-64500000D01*
D27*
X94540000Y-72540000D02*
X94100000Y-72100000D01*
X94100000Y-72100000D02*
X93000000Y-72100000D01*
X94540000Y-75000000D02*
X94540000Y-72540000D01*
M02*
